<svg id="skype-logo" xmlns="http://www.w3.org/2000/svg" viewBox="0 0 438.536 438.536"><path d="M415.7 262.093c3.04-14.657 4.564-28.935 4.564-42.826 0-27.218-5.276-53.247-15.844-78.087-10.562-24.838-24.838-46.25-42.825-64.237-17.987-17.988-39.395-32.263-64.234-42.83-24.844-10.558-50.865-15.842-78.087-15.842-13.894 0-28.17 1.525-42.827 4.57C156.65 7.615 134.38 0 109.636 0 79.377 0 53.54 10.705 32.125 32.115 10.708 53.53.004 79.368.004 109.63c0 24.745 7.614 47.015 22.84 66.81-3.045 14.655-4.57 28.933-4.57 42.827 0 27.215 5.28 53.243 15.844 78.085 10.562 24.838 24.838 46.25 42.827 64.24 17.987 17.987 39.4 32.258 64.24 42.825 24.84 10.564 50.868 15.845 78.086 15.845 13.894 0 28.17-1.526 42.835-4.572 19.79 15.23 42.058 22.847 66.804 22.847 30.258 0 56.102-10.71 77.504-32.12 21.416-21.416 32.12-47.253 32.12-77.52-.005-24.74-7.616-47.006-22.834-66.804zm-90.228 42.397c-6.276 11.136-14.702 20.033-25.263 26.696-10.568 6.663-22.225 11.748-34.976 15.273-12.75 3.517-26.073 5.282-39.97 5.282-32.164 0-59.856-6.235-83.08-18.705-23.222-12.47-34.832-27.453-34.832-44.968 0-8.563 2.428-15.694 7.282-21.41 4.853-5.71 12.038-8.56 21.555-8.56 5.52 0 10.656 1.52 15.414 4.563 4.758 3.046 9.135 6.715 13.134 11 4 4.284 8.326 8.56 12.99 12.846 4.66 4.284 10.847 7.945 18.555 10.99 7.71 3.047 16.418 4.573 26.128 4.573 12.372 0 22.36-2.423 29.982-7.275 7.61-4.86 11.416-11 11.416-18.418 0-7.618-3.042-13.326-9.13-17.132-4.182-2.673-14.846-6.098-31.977-10.283l-41.687-10.284c-11.42-2.66-21.222-5.75-29.408-9.27-8.186-3.524-15.8-8.134-22.84-13.85-7.04-5.707-12.37-12.89-15.987-21.554-3.616-8.658-5.424-18.796-5.424-30.406 0-13.896 3.19-26.12 9.563-36.688 6.374-10.565 14.85-18.846 25.41-24.84 10.56-5.997 21.934-10.47 34.118-13.42 12.18-2.95 24.742-4.425 37.685-4.425 18.276 0 35.59 2.19 51.96 6.567 16.37 4.377 29.883 10.8 40.54 19.27 10.656 8.474 15.984 17.943 15.984 28.41 0 8.562-2.707 15.893-8.138 21.982-5.414 6.088-12.6 9.134-21.55 9.134-4.948 0-9.514-1.143-13.702-3.427-4.186-2.283-7.99-5.042-11.423-8.278-3.425-3.234-7.046-6.423-10.85-9.563-3.807-3.14-8.947-5.852-15.41-8.136-6.48-2.284-13.803-3.427-21.987-3.427-27.406 0-41.112 7.322-41.112 21.98 0 3.235.716 6.09 2.142 8.565 1.427 2.474 3 4.473 4.71 5.996 1.71 1.526 4.565 3.047 8.564 4.57 4 1.526 7.33 2.623 9.994 3.285 2.663.666 6.854 1.665 12.562 2.996l29.694 6.852c9.325 2.096 17.648 4.286 24.98 6.567 7.332 2.287 15.182 5.52 23.556 9.71 8.374 4.186 15.32 8.847 20.838 13.987 5.523 5.144 10.137 11.656 13.853 19.555 3.714 7.9 5.564 16.61 5.564 26.124 0 13.894-3.136 26.41-9.425 37.544z"/></svg>