<?xml version="1.0" encoding="iso-8859-1"?>
<!-- Generator: Adobe Illustrator 19.0.0, SVG Export Plug-In . SVG Version: 6.00 Build 0)  -->
<svg xmlns="http://www.w3.org/2000/svg" xmlns:xlink="http://www.w3.org/1999/xlink" version="1.1" id="Layer_1" x="0px" y="0px" viewBox="0 0 512 512" style="enable-background:new 0 0 512 512;" xml:space="preserve" width="16px" height="16px">
<g>
	<g>
		<g>
			<path d="M245.328,213.333c-17.643,0-32,14.357-32,32c0,17.643,14.357,32,32,32c17.643,0,32-14.357,32-32     C277.328,227.691,262.971,213.333,245.328,213.333z" fill="#FFFFFF"/>
			<path d="M474.405,451.371l-72-125.995l-71.723-125.547V64h10.667c17.643,0,32-14.357,32-32c0-17.643-14.357-32-32-32H170.683     c-17.643,0-32,14.357-32,32c0,17.643,14.357,32,32,32h10.667v135.829l-71.744,125.547l-72,125.995     c-7.253,12.693-7.189,27.819,0.128,40.448C45.072,504.469,58.171,512,72.784,512h366.421c14.613,0,27.712-7.552,35.051-20.181     C481.595,479.168,481.637,464.043,474.405,451.371z M170.661,42.667c-5.888,0-10.667-4.779-10.667-10.667     s4.779-10.667,10.667-10.667h170.667c5.888,0,10.667,4.779,10.667,10.667s-4.779,10.667-10.667,10.667H170.661z M202.661,448     c-17.643,0-32-14.357-32-32c0-17.643,14.357-32,32-32c17.643,0,32,14.357,32,32C234.661,433.643,220.304,448,202.661,448z      M309.328,405.333c-17.643,0-32-14.357-32-32c0-17.643,14.357-32,32-32c17.643,0,32,14.357,32,32     C341.328,390.976,326.971,405.333,309.328,405.333z M137.232,320l64.021-112.043c0.917-1.621,1.408-3.435,1.408-5.291V64h106.667     v138.667c0,1.856,0.469,3.669,1.408,5.291L374.757,320H137.232z" fill="#FFFFFF"/>
		</g>
	</g>
</g>
<g>
</g>
<g>
</g>
<g>
</g>
<g>
</g>
<g>
</g>
<g>
</g>
<g>
</g>
<g>
</g>
<g>
</g>
<g>
</g>
<g>
</g>
<g>
</g>
<g>
</g>
<g>
</g>
<g>
</g>
</svg>
