<svg id="Layer_1" data-name="Layer 1" xmlns="http://www.w3.org/2000/svg" viewBox="0 0 273.37 228.73"><defs><style>.cls-1{fill:#f4dda8;}.cls-2{fill:#18627d;}.cls-3{fill:#55d6d2;}.cls-4{fill:#f85b30;}.cls-5{fill:#1fc5db;}</style></defs><title>счеты</title><path class="cls-1" d="M76,113.84,15.77,139.91,34.1,182.26,99.36,154a46.3,46.3,0,0,0,7.44-.3c15.55-1.79,38.64-13.95,38.64-13.95a.25.25,0,0,1,0-.07l35.21-15.24a6.65,6.65,0,1,0-5.29-12.21L147,124.54c-.07-.32-.14-.64-.22-1l43.66-18.9a7.14,7.14,0,1,0-5.67-13.11L142.17,110c-.12-.28-.23-.57-.35-.86l52.5-22.73a7.14,7.14,0,1,0-5.67-13.11l-53.06,23c-.17-.29-.34-.57-.52-.85L182.3,74.94a7.14,7.14,0,0,0-5.68-13.11L121.7,85.61l0,0c-5.41,2.31-15.71,7.59-17.82,8.68Z" transform="translate(-6.42 -8.6)"/><path class="cls-2" d="M249.54,143.35l-.55-2.8-.25,0a9.65,9.65,0,0,0-.2-2.26l-24.1-121.4A10.36,10.36,0,0,0,212.27,8.8l-105.71,21A10.35,10.35,0,0,0,98.42,42l24.11,121.4a10.56,10.56,0,0,0,.69,2.17l-.25.05.56,2.79a10.35,10.35,0,0,0,12.17,8.14l105.7-21A10.36,10.36,0,0,0,249.54,143.35ZM229,91.74,122.8,112.83,118,88.56,224.18,67.47Zm-5.57-28L117.23,84.81l-4.82-24.27,106.2-21.09Zm-114.9-24,105.7-21a.25.25,0,0,1,.3.19l3.34,16.81L111.67,56.8,108.33,40A.24.24,0,0,1,108.53,39.7Zm15,76.87,106.2-21.09,4.82,24.28-106.2,21.09Zm114.9,24-105.7,21a.25.25,0,0,1-.3-.2l-3.34-16.8L235.3,123.5l3.34,16.8A.25.25,0,0,1,238.44,140.6Z" transform="translate(-6.42 -8.6)"/><rect class="cls-3" x="135.12" y="44.28" width="9.24" height="17.78" rx="3.89" ry="3.89" transform="translate(-14.09 19.63) rotate(-11.23)"/><rect class="cls-3" x="148.48" y="41.63" width="9.24" height="17.77" rx="3.89" ry="3.89" transform="translate(-13.32 22.18) rotate(-11.23)"/><rect class="cls-4" x="151.81" y="128.33" width="9.24" height="17.77" rx="3.89" ry="3.89" transform="translate(-30.14 24.49) rotate(-11.23)"/><rect class="cls-4" x="165.17" y="125.68" width="9.24" height="17.77" rx="3.89" ry="3.89" transform="translate(-29.39 27.07) rotate(-11.24)"/><rect class="cls-4" x="162.55" y="38.83" width="9.24" height="17.77" rx="3.89" ry="3.89" transform="translate(-12.51 24.86) rotate(-11.23)"/><rect class="cls-4" x="175.91" y="36.18" width="9.24" height="17.77" rx="3.89" ry="3.89" transform="translate(-11.74 27.42) rotate(-11.23)"/><rect class="cls-4" x="146.25" y="100.31" width="9.24" height="17.77" rx="3.89" ry="3.89" transform="translate(-24.79 22.86) rotate(-11.23)"/><rect class="cls-4" x="159.61" y="97.66" width="9.24" height="17.77" rx="3.89" ry="3.89" transform="translate(-24.03 25.45) rotate(-11.24)"/><rect class="cls-4" x="173.68" y="94.87" width="9.24" height="17.77" rx="3.89" ry="3.89" transform="translate(-23.21 28.1) rotate(-11.23)"/><rect class="cls-4" x="187.03" y="92.21" width="9.24" height="17.77" rx="3.89" ry="3.89" transform="translate(-22.45 30.69) rotate(-11.24)"/><rect class="cls-4" x="191.17" y="33.15" width="9.24" height="17.77" rx="3.89" ry="3.89" transform="translate(-10.86 30.33) rotate(-11.23)"/><rect class="cls-3" x="192.6" y="120.23" width="9.24" height="17.77" rx="3.89" ry="3.89" transform="translate(-27.8 32.31) rotate(-11.24)"/><rect class="cls-4" x="207.86" y="117.2" width="9.24" height="17.77" rx="3.89" ry="3.89" transform="translate(-26.92 35.23) rotate(-11.24)"/><rect class="cls-3" x="168.11" y="66.85" width="9.24" height="17.77" rx="3.89" ry="3.89" transform="translate(-17.86 26.48) rotate(-11.23)"/><rect class="cls-3" x="181.47" y="64.2" width="9.24" height="17.77" rx="3.89" ry="3.89" transform="translate(-17.09 29.07) rotate(-11.24)"/><rect class="cls-3" x="196.73" y="61.17" width="9.24" height="17.77" rx="3.89" ry="3.89" transform="translate(-16.2 31.94) rotate(-11.23)"/><path class="cls-1" d="M103.84,94.31c2-6.67,3.77-12.06,3.77-12.06s7.07-8.84,9.53-11.36c8.24-8.46,3.68-17.35,2.31-18.86-2.35-2.59-5.47,1.44-5.47,1.44l-23.09,23C85,82.9,78.1,101.84,76,113.84Z" transform="translate(-6.42 -8.6)"/><path class="cls-1" d="M264.78,116.86l-1.27-8.78a7.18,7.18,0,0,0-13.94-1.37l-.12-1.36a7.66,7.66,0,0,0-14.92-1.28l-.13-1.28A7.66,7.66,0,1,0,219.23,105h-.16l0,0v0h-.16l-6.18-35.55A8,8,0,0,0,197,72.22s6.59,40.24,9.7,58.63l-12,10.54,2.9,21.52c2.65,3.64,17.09,16.39,22,20.72.75.66,1.4,1.2,1.72,1.46l6.34,46,41.25-5.6-6.28-48.44s4.54-12.7,4.55-12.85C267.37,159.62,268.31,133.24,264.78,116.86Z" transform="translate(-6.42 -8.6)"/><rect class="cls-5" x="220.6" y="188.48" width="56.29" height="45.13" transform="translate(-33.66 28.53) rotate(-8.09)"/><rect class="cls-5" x="14.83" y="125.09" width="61.44" height="56.29" transform="translate(-61.52 20.44) rotate(-22.47)"/></svg>