<svg id="Layer_1" data-name="Layer 1" xmlns="http://www.w3.org/2000/svg" viewBox="0 0 70.88 67.7"><defs><style>.cls-1{fill:#efbf3a;}.cls-2{fill:#ff5000;}.cls-3{fill:#009632;}</style></defs><title>весы</title><path class="cls-1" d="M148.2,408.65a.45.45,0,0,1-.44-.35l-7.32-31.56a.47.47,0,0,1,.34-.55.46.46,0,0,1,.54.34l7.31,31.57a.45.45,0,0,1-.33.54Z" transform="translate(-132.68 -360.43)"/><path class="cls-1" d="M133.57,408.65h-.11a.45.45,0,0,1-.33-.54l7.31-31.57a.46.46,0,0,1,.54-.34.45.45,0,0,1,.34.55L134,408.3A.44.44,0,0,1,133.57,408.65Z" transform="translate(-132.68 -360.43)"/><path class="cls-1" d="M202.68,420.17a.45.45,0,0,1-.44-.35l-7.32-31.56a.46.46,0,0,1,.34-.54.44.44,0,0,1,.54.34l7.32,31.56a.46.46,0,0,1-.34.54Z" transform="translate(-132.68 -360.43)"/><path class="cls-1" d="M188.05,420.17H188a.45.45,0,0,1-.34-.54l7.31-31.56a.45.45,0,0,1,.54-.34.44.44,0,0,1,.34.54l-7.31,31.56A.46.46,0,0,1,188.05,420.17Z" transform="translate(-132.68 -360.43)"/><path class="cls-1" d="M171.66,375.06a4.59,4.59,0,1,1-3.54-5.44A4.59,4.59,0,0,1,171.66,375.06Z" transform="translate(-132.68 -360.43)"/><path class="cls-2" d="M136.55,400.16a3.17,3.17,0,0,1,.14-1,1.63,1.63,0,0,1,.37-.66,1.44,1.44,0,0,1,.58-.35,2.66,2.66,0,0,1,.77-.1,2.17,2.17,0,0,1,.74.11,1.37,1.37,0,0,1,.58.35,1.75,1.75,0,0,1,.37.66,3.5,3.5,0,0,1,.13,1,3.59,3.59,0,0,1-.13,1,1.63,1.63,0,0,1-.37.65,1.28,1.28,0,0,1-.58.35,2.45,2.45,0,0,1-.74.11,2.65,2.65,0,0,1-.77-.11,1.33,1.33,0,0,1-.58-.35,1.52,1.52,0,0,1-.37-.65A3.24,3.24,0,0,1,136.55,400.16Zm6.48-2h1.49v.34l-5.79,7.86h-1.5v-.34Zm-5,1.94c0,.23,0,.41,0,.54a1.07,1.07,0,0,0,.06.32.22.22,0,0,0,.1.14.48.48,0,0,0,.18,0,.26.26,0,0,0,.29-.2.83.83,0,0,0,.05-.31c0-.14,0-.31,0-.52s0-.38,0-.51a.89.89,0,0,0-.05-.32.34.34,0,0,0-.47-.16.28.28,0,0,0-.1.16,1.14,1.14,0,0,0-.06.32C138,399.75,138,399.92,138,400.13Zm3.5,4.29a3.24,3.24,0,0,1,.14-1,1.52,1.52,0,0,1,.37-.65,1.33,1.33,0,0,1,.58-.35,2.35,2.35,0,0,1,.77-.11,2.56,2.56,0,0,1,.75.11,1.32,1.32,0,0,1,.57.36,1.63,1.63,0,0,1,.37.65,3.91,3.91,0,0,1,0,2,1.75,1.75,0,0,1-.37.66,1.4,1.4,0,0,1-.57.35,2.57,2.57,0,0,1-.75.1,2.66,2.66,0,0,1-.77-.1,1.44,1.44,0,0,1-.58-.35,1.63,1.63,0,0,1-.37-.66A3.17,3.17,0,0,1,141.53,404.42Zm1.48,0c0,.23,0,.41,0,.55a1.06,1.06,0,0,0,.06.31.25.25,0,0,0,.1.15.48.48,0,0,0,.18,0,.48.48,0,0,0,.18,0,.41.41,0,0,0,.11-.16,2,2,0,0,0,0-.32c0-.13,0-.3,0-.52s0-.38,0-.51a.93.93,0,0,0,0-.32c0-.07-.06-.13-.11-.15a.35.35,0,0,0-.36,0,.25.25,0,0,0-.1.15,1.22,1.22,0,0,0-.06.32C143,404,143,404.17,143,404.38Z" transform="translate(-132.68 -360.43)"/><path class="cls-1" d="M146.27,370.82c-3.78-.8-5-2.19-5.31-3.36a2,2,0,1,0-2-2.4c-.64,3,.57,6.92,7.81,8.45s20.43,2.22,20.43,2.22l1-4.49S153.13,372.27,146.27,370.82Z" transform="translate(-132.68 -360.43)"/><path class="cls-1" d="M195.77,375.05a2,2,0,0,0-1.29,3.73c-.78.93-2.42,1.73-6.21.93-6.86-1.46-20.15-8.47-20.15-8.47l-1,4.49s12.35,4.71,19.59,6.24,9.91-1.52,10.55-4.56A2,2,0,0,0,195.77,375.05Z" transform="translate(-132.68 -360.43)"/><path class="cls-1" d="M142.6,376.63a1.72,1.72,0,1,1-1.72-1.72A1.73,1.73,0,0,1,142.6,376.63Z" transform="translate(-132.68 -360.43)"/><rect class="cls-1" x="7.75" y="5.04" width="0.9" height="11.16"/><path class="cls-1" d="M167.37,374.11s.08.75.21,2.07.29,3.21.46,5.47.32,4.91.5,7.74.36,5.85.6,8.87l.33,4.5c.12,1.49.17,2.95.26,4.36.12,2.83.12,5.47.07,7.74,0,1.13-.06,2.17-.12,3.09a6.23,6.23,0,0,1-.75,2.38,6.53,6.53,0,0,1-1.15,1.53,4.65,4.65,0,0,1-.61.54,5.6,5.6,0,0,1-.61-.54,6.82,6.82,0,0,1-1.15-1.53,6.23,6.23,0,0,1-.75-2.38c0-.92-.09-2-.11-3.09-.06-2.27-.05-4.91.07-7.74.08-1.41.13-2.87.26-4.36s.22-3,.33-4.5c.23-3,.42-6,.59-8.87s.31-5.47.5-7.74.33-4.15.46-5.47.21-2.07.21-2.07a.21.21,0,0,1,.22-.19A.2.2,0,0,1,167.37,374.11Z" transform="translate(-132.68 -360.43)"/><path class="cls-3" d="M194.69,418v-1.26a8.23,8.23,0,0,1-1.6-.23,10.35,10.35,0,0,1-1-.32v-2.08h2.31a.75.75,0,0,0,.13.47.68.68,0,0,0,.53.15.79.79,0,0,0,.49-.11.35.35,0,0,0,.15-.31.34.34,0,0,0-.12-.26,2,2,0,0,0-.49-.26c-.52-.19-1-.38-1.36-.56a4,4,0,0,1-1-.6,2,2,0,0,1-.58-.76,2.75,2.75,0,0,1-.19-1.06,2.85,2.85,0,0,1,.15-.94,1.93,1.93,0,0,1,.45-.75,2.36,2.36,0,0,1,.83-.52,4.68,4.68,0,0,1,1.28-.28v-1.21h1.38v1.19a6.54,6.54,0,0,1,.87.1,5.68,5.68,0,0,1,.7.15l.58.19a2.88,2.88,0,0,1,.43.21v1.88h-2.21a.46.46,0,0,0-.17-.41.68.68,0,0,0-.41-.11,1,1,0,0,0-.5.09.33.33,0,0,0-.15.31.27.27,0,0,0,.16.26,3,3,0,0,0,.49.19c.41.13.79.27,1.15.42a3.82,3.82,0,0,1,1,.55,2.36,2.36,0,0,1,.65.79,2.84,2.84,0,0,1-.47,3,3.38,3.38,0,0,1-2.07.79V418Z" transform="translate(-132.68 -360.43)"/><path class="cls-1" d="M132.68,407.62v.4a2.43,2.43,0,0,0,2.43,2.43h.19a2.62,2.62,0,0,0,2.36,1.32h6.44a2.6,2.6,0,0,0,2.36-1.32h.19a2.43,2.43,0,0,0,2.43-2.43v-.4Z" transform="translate(-132.68 -360.43)"/><path class="cls-1" d="M197.09,388.16a1.73,1.73,0,1,1-1.73-1.73A1.73,1.73,0,0,1,197.09,388.16Z" transform="translate(-132.68 -360.43)"/><rect class="cls-1" x="62.23" y="16.57" width="0.9" height="11.16"/><path class="cls-1" d="M187.16,419.14v.41a2.43,2.43,0,0,0,2.43,2.43h.2a2.58,2.58,0,0,0,2.35,1.31h6.44a2.59,2.59,0,0,0,2.36-1.31h.19a2.43,2.43,0,0,0,2.43-2.43v-.41Z" transform="translate(-132.68 -360.43)"/><path class="cls-1" d="M175.28,426.91a3.86,3.86,0,0,1-.21,1.22h-15.8a3.85,3.85,0,0,1-.2-1.22,3.79,3.79,0,0,1,.2-1.21c.82-2.44,4-4.25,7.91-4.25s7.07,1.81,7.89,4.25A3.8,3.8,0,0,1,175.28,426.91Z" transform="translate(-132.68 -360.43)"/><path class="cls-1" d="M169.7,365.68a2.54,2.54,0,1,1-5.06,0c0-1.56,2.53-5.25,2.53-5.25S169.7,364.12,169.7,365.68Z" transform="translate(-132.68 -360.43)"/><rect class="cls-1" x="33.68" y="4.03" width="1.62" height="7.3"/><path class="cls-1" d="M168.12,369.62a4.38,4.38,0,0,0-1-.1v9.18a4.59,4.59,0,0,0,1-9.08Z" transform="translate(-132.68 -360.43)"/><path class="cls-1" d="M198.58,423.29a2.59,2.59,0,0,0,2.36-1.31h.19a2.43,2.43,0,0,0,2.43-2.43v-.41h-8.2v4.15Z" transform="translate(-132.68 -360.43)"/><path class="cls-1" d="M140.88,411.77h3.22a2.6,2.6,0,0,0,2.36-1.32h.19a2.43,2.43,0,0,0,2.43-2.43v-.4h-8.2Z" transform="translate(-132.68 -360.43)"/><path class="cls-1" d="M169.7,365.68c0-1.56-2.53-5.25-2.53-5.25v8.06A2.68,2.68,0,0,0,169.7,365.68Z" transform="translate(-132.68 -360.43)"/><path class="cls-1" d="M169.47,402.76l-.33-4.5c-.24-3-.43-6-.6-8.87s-.31-5.47-.5-7.74-.32-4.15-.46-5.47-.21-2.07-.21-2.07a.2.2,0,0,0-.18-.19h0V422.4h0a4.65,4.65,0,0,0,.61-.54,6.53,6.53,0,0,0,1.15-1.53,6.23,6.23,0,0,0,.75-2.38c.06-.92.09-2,.12-3.09,0-2.27,0-4.91-.07-7.74C169.64,405.71,169.59,404.25,169.47,402.76Z" transform="translate(-132.68 -360.43)"/><path class="cls-1" d="M167.18,421.45h0v6.68h7.9a3.86,3.86,0,0,0,.21-1.22,3.8,3.8,0,0,0-.21-1.21C174.25,423.26,171,421.45,167.18,421.45Z" transform="translate(-132.68 -360.43)"/><rect class="cls-1" x="23.96" y="65.27" width="21.07" height="2.43"/></svg>