<svg id="Layer_1" data-name="Layer 1" xmlns="http://www.w3.org/2000/svg" viewBox="0 0 78.2 59.53"><defs><style>.cls-1{fill:#f47373;}.cls-2{fill:#e5d755;}.cls-3{fill:#6cef8b;}.cls-4{fill:#64c3f9;}.cls-5{fill:#fa7564;}.cls-6{fill:#025a82;}.cls-7{fill:#55d6d2;}.cls-8{fill:#fff;}.cls-9{fill:#fdb813;}</style></defs><title>конвент</title><rect class="cls-1" x="46.46" y="35.48" width="13.13" height="24.05"/><rect class="cls-2" x="63.1" y="20.12" width="13.13" height="39.4"/><rect class="cls-3" x="13.16" y="42.57" width="13.13" height="16.8"/><rect class="cls-4" x="29.81" y="29.06" width="13.13" height="30.46"/><polygon class="cls-5" points="9.24 44.67 6.35 41.78 33.16 14.97 52.66 22.82 68.49 6.88 71.39 9.76 53.65 27.62 34.14 19.77 9.24 44.67"/><polygon class="cls-5" points="74.04 15.75 78.2 0 62.48 4.27 74.04 15.75"/><path class="cls-6" d="M366,268.08a1.67,1.67,0,0,1-1.53-1.79h0a1.68,1.68,0,0,1,1.8-1.54l4.64.37a1.66,1.66,0,0,1,1.53,1.79h0a1.68,1.68,0,0,1-1.8,1.54Z" transform="translate(-351.52 -251.58)"/><path class="cls-6" d="M354.7,269.16a3.65,3.65,0,0,1-3.17-4.05h0a3.64,3.64,0,0,1,3.76-3.51l8.32.66a3.65,3.65,0,0,1,3.17,4.05h0a3.64,3.64,0,0,1-3.76,3.5Z" transform="translate(-351.52 -251.58)"/><path class="cls-7" d="M388.44,274.8a9.62,9.62,0,1,1,1.39-13.54A9.63,9.63,0,0,1,388.44,274.8Z" transform="translate(-351.52 -251.58)"/><path class="cls-5" d="M393,270.06v-1.87l-12.09-4.87-8.22,8.23c1,1.34,2.11,2.66,3.11,4l6.32-6.33,9.15,3.69C391.8,272,392.41,271,393,270.06Z" transform="translate(-351.52 -251.58)"/><path class="cls-8" d="M388.65,266.92a6.58,6.58,0,1,0-6.58,6.57A6.58,6.58,0,0,0,388.65,266.92Z" transform="translate(-351.52 -251.58)"/><path class="cls-9" d="M392.16,259.36a12.63,12.63,0,1,0-1.82,17.77A12.62,12.62,0,0,0,392.16,259.36Zm-3.72,15.44a9.62,9.62,0,1,1,1.39-13.54A9.63,9.63,0,0,1,388.44,274.8Z" transform="translate(-351.52 -251.58)"/></svg>