<svg xmlns="http://www.w3.org/2000/svg" viewBox="0 0 512 512" width="16" height="16"><g fill="#FFF"><path d="M245.328 213.333c-17.643 0-32 14.357-32 32s14.357 32 32 32 32-14.357 32-32c0-17.642-14.357-32-32-32z"/><path d="M474.405 451.371l-72-125.995-71.723-125.547V64h10.667c17.643 0 32-14.357 32-32s-14.357-32-32-32H170.683c-17.643 0-32 14.357-32 32s14.357 32 32 32h10.667v135.829l-71.744 125.547-72 125.995c-7.253 12.693-7.189 27.819.128 40.448C45.072 504.469 58.171 512 72.784 512h366.421c14.613 0 27.712-7.552 35.051-20.181 7.339-12.651 7.381-27.776.149-40.448zM170.661 42.667c-5.888 0-10.667-4.779-10.667-10.667s4.779-10.667 10.667-10.667h170.667c5.888 0 10.667 4.779 10.667 10.667s-4.779 10.667-10.667 10.667H170.661zm32 405.333c-17.643 0-32-14.357-32-32s14.357-32 32-32 32 14.357 32 32-14.357 32-32 32zm106.667-42.667c-17.643 0-32-14.357-32-32s14.357-32 32-32 32 14.357 32 32-14.357 32-32 32zM137.232 320l64.021-112.043a10.734 10.734 0 0 0 1.408-5.291V64h106.667v138.667c0 1.856.469 3.669 1.408 5.291L374.757 320H137.232z"/></g></svg>