<svg id="Layer_1" data-name="Layer 1" xmlns="http://www.w3.org/2000/svg" viewBox="0 0 96.15 61.79"><defs><style>.cls-1{fill:#fff8e6;}.cls-2{fill:#18627d;}.cls-3{fill:#fdb813;}.cls-4{fill:#f85b30;}.cls-5{fill:#55d6d2;}</style></defs><title>бизнес</title><polygon class="cls-1" points="83.06 40.42 74.49 28.23 67.39 44.15 70.77 47.72 74.55 49.09 75.22 49.82 78.08 52.7 85.98 43.21 83.06 40.42"/><polygon class="cls-2" points="86.61 41.39 76.93 53.09 76.39 53.79 85.96 61.79 96.15 48.89 86.61 41.39"/><polygon class="cls-1" points="29.43 28.06 19.66 34.72 14.38 37.66 20.25 49.23 25.28 46.76 29.67 46.71 34.46 44.26 29.43 28.06"/><polygon class="cls-2" points="16.68 35.76 16.58 35.46 0 42.06 9.03 56.41 23.44 49.84 16.68 35.76"/><rect class="cls-3" x="26.08" width="48.59" height="55.75" rx="0.96" ry="0.96"/><path class="cls-1" d="M52.09,368.52h1.13L55,371.44v-2.92h1.12v5H55l-1.74-2.87v2.87H52.09Z" transform="translate(-10.55 -361.56)"/><path class="cls-1" d="M56.68,369.61a1,1,0,0,1,1.17-1.09s1.61,0,2.21.11v.93h-1.9c-.36,0-.36.2-.36.38v.57l1.94.07v.93l-1.94.06v.57c0,.36.23.35.43.35h1.83v.93c-.52.07-2.14.11-2.14.11-.45,0-1.24-.08-1.24-1Z" transform="translate(-10.55 -361.56)"/><path class="cls-1" d="M61.6,368.52l1,3.55.77-3.55h1.19l-.3,1.17.75,2.39.78-3.56H67l-1.3,5H64.32l-.57-1.86-.51,1.86H61.91l-1.49-5Z" transform="translate(-10.55 -361.56)"/><path class="cls-1" d="M67.29,369.79c0-1,.59-1.3,1.35-1.31a6.45,6.45,0,0,1,2,.21v.87c-.44,0-1.32-.07-1.66-.07s-.59,0-.59.41v.17c0,.31.1.41.48.41h.73a1.22,1.22,0,0,1,1.22,1.38v.28c0,1.2-.71,1.43-1.38,1.43a5.63,5.63,0,0,1-2-.22v-.87c.27,0,1.12.07,1.75.07.29,0,.52-.06.52-.36V372c0-.25-.07-.39-.41-.39h-.7a1.23,1.23,0,0,1-1.32-1.38Z" transform="translate(-10.55 -361.56)"/><rect class="cls-2" x="28.79" y="13.95" width="42.32" height="2"/><rect class="cls-4" x="51.68" y="43.21" width="3.24" height="4.23"/><rect class="cls-4" x="55.71" y="41.42" width="3.24" height="6.02"/><rect class="cls-4" x="59.74" y="39.61" width="3.24" height="7.81"/><rect class="cls-4" x="63.77" y="37.51" width="3.24" height="9.91"/><rect class="cls-4" x="67.79" y="36.04" width="3.24" height="11.38"/><path class="cls-4" d="M73,397l-1.83.92.67.44a7.09,7.09,0,0,1-5.64,2.44A.21.21,0,0,0,66,401a.2.2,0,0,0,.18.22h.3a7.58,7.58,0,0,0,5.73-2.63l.69.46Z" transform="translate(-10.55 -361.56)"/><rect class="cls-2" x="51.68" y="25.5" width="19.43" height="1.7"/><rect class="cls-2" x="51.68" y="22.18" width="19.43" height="1.7"/><rect class="cls-2" x="51.68" y="18.86" width="19.43" height="1.7"/><rect class="cls-2" x="51.68" y="28.82" width="19.43" height="1.7"/><rect class="cls-2" x="51.68" y="32.15" width="19.43" height="1.7"/><rect class="cls-2" x="28.79" y="38.35" width="19.43" height="1.7"/><rect class="cls-2" x="28.79" y="42.04" width="19.43" height="1.7"/><rect class="cls-2" x="28.79" y="45.73" width="19.43" height="1.7"/><path class="cls-2" d="M55.32,383.06a8.72,8.72,0,0,0-6.26-2.64v8.9h0l7.79,3.85a8.77,8.77,0,0,0,1-3.85v-.14A8.74,8.74,0,0,0,55.32,383.06Z" transform="translate(-10.55 -361.56)"/><path class="cls-4" d="M49.06,389.32h0l-6.12,6.12a8.76,8.76,0,0,0,13.91-2.27Z" transform="translate(-10.55 -361.56)"/><path class="cls-5" d="M41.15,385.41a8.79,8.79,0,0,0-.85,3.77v.14a8.72,8.72,0,0,0,2.64,6.12l6.12-6.12v-8.9A8.76,8.76,0,0,0,41.15,385.41Z" transform="translate(-10.55 -361.56)"/><path class="cls-1" d="M32.58,385.45l6.88-4.85s1-.89,1.45-.13a3.7,3.7,0,0,1-1.41,4.7c-.73.54-2.91,2.48-2.91,2.48l0,6.91-7.32,2.28.89-4.75S32.28,386.26,32.58,385.45Z" transform="translate(-10.55 -361.56)"/><path class="cls-1" d="M87.86,388.14l-6.24-4.51s-.88-.82-1.33-.13a3.22,3.22,0,0,0,1,4.28c.66.5,3.81,4.43,3.81,4.43l1.41,5.91,7.75,4.66-3.59-8.94S88.14,388.88,87.86,388.14Z" transform="translate(-10.55 -361.56)"/></svg>