<svg id="Layer_1" data-name="Layer 1" xmlns="http://www.w3.org/2000/svg" xmlns:xlink="http://www.w3.org/1999/xlink" viewBox="0 0 95.43 75.99"><defs><style>.cls-1{fill:none;}.cls-2{clip-path:url(#clip-path);}.cls-3{fill:#fff8e6;}.cls-4{fill:#f85b30;}.cls-5{fill:#18627d;}.cls-6{fill:#fdb813;}.cls-7{fill:#55d6d2;}</style><clipPath id="clip-path" transform="translate(-7.18 -142.31)"><circle class="cls-1" cx="60.71" cy="171.04" r="48.99"/></clipPath></defs><title>бух</title><g class="cls-2"><polygon class="cls-3" points="72.48 40.03 73.61 39.69 72.48 39.32 72.48 40.03"/><polygon class="cls-3" points="56.46 34.08 37.57 27.9 25.87 28.82 18.35 35.69 30.58 52.68 38.3 47.05 45.5 48.16 56.46 44.85 56.46 34.08"/><polygon class="cls-4" points="34.34 53.3 18.2 33.7 0 49.01 13.51 69.39 34.34 53.3"/><polygon class="cls-3" points="56.92 27.94 56.92 27.95 56.93 27.95 56.92 27.94"/><path class="cls-5" d="M83.49,179.74l-9-33.86h0l-.38-1.4a2.92,2.92,0,0,0-3.59-2.07L41,150.29a2.93,2.93,0,0,0-2.07,3.59l9,33.86h0l.38,1.4a2.92,2.92,0,0,0,3.59,2.07l29.48-7.88A2.93,2.93,0,0,0,83.49,179.74Z" transform="translate(-7.18 -142.31)"/><path class="cls-5" d="M77.05,155.66l-3-11.18a2.92,2.92,0,0,0-3.59-2.07L41,150.29a2.93,2.93,0,0,0-2.07,3.59l3,11.18Z" transform="translate(-7.18 -142.31)"/><rect class="cls-6" x="45.81" y="165.39" width="9.85" height="9.85" rx="2.67" ry="2.67" transform="translate(-49.45 -123.42) rotate(-14.97)"/><rect class="cls-6" x="56.38" y="162.56" width="9.85" height="9.85" rx="2.67" ry="2.67" transform="translate(-48.37 -120.78) rotate(-14.97)"/><rect class="cls-4" x="68.33" y="159.55" width="9.85" height="20.54" rx="2.67" ry="2.67" transform="translate(-48.56 -117.62) rotate(-14.97)"/><rect class="cls-6" x="48.57" y="175.72" width="9.85" height="9.85" rx="2.67" ry="2.67" transform="translate(-52.03 -122.36) rotate(-14.97)"/><rect class="cls-6" x="59.14" y="172.89" width="9.85" height="9.85" rx="2.67" ry="2.67" transform="translate(-50.94 -119.72) rotate(-14.97)"/><rect class="cls-7" x="42.13" y="149.44" width="31.01" height="8.63" rx="2.92" ry="2.92" transform="translate(-44.94 -122.2) rotate(-14.97)"/><path class="cls-4" d="M48,170.18l1.67-.45-.45-1.68,1.6-.43.45,1.68,1.7-.45.43,1.6-1.7.45.45,1.69-1.6.43-.45-1.69-1.67.45Z" transform="translate(-7.18 -142.31)"/><path class="cls-4" d="M51.49,182.45l.87-1.5-1.51-.87.83-1.43,1.51.87.88-1.52,1.43.83-.88,1.52,1.51.87-.83,1.43-1.51-.87-.86,1.5Z" transform="translate(-7.18 -142.31)"/><path class="cls-4" d="M58.68,167.33,63.5,166l.43,1.6-4.82,1.29Z" transform="translate(-7.18 -142.31)"/><path class="cls-4" d="M62,179.67l2.63-4.54,1.44.83-2.63,4.54Z" transform="translate(-7.18 -142.31)"/><path class="cls-3" d="M38.6,157.82l11.95-6s1.74-1.16,2.31.15c.34.76,1,4.81-3.34,7-1.28.66-5.17,3.18-5.17,3.18s-.21,7.73-2.41,11.55c0,0-3.32,5.88-6.36,4.05-3.9-2.36-3.37-5.91-3.37-5.91l1.5-4.91S37.93,159,38.6,157.82Z" transform="translate(-7.18 -142.31)"/><path class="cls-3" d="M93.63,193.15l-6.38-14.73-1.44-2.64A2.43,2.43,0,0,0,81.22,177l-.2-.42a2.59,2.59,0,0,0-4.88,1.36l-.19-.39A2.6,2.6,0,1,0,71.39,180h0l0,0h0l0,0-6.17-10.55a2.7,2.7,0,0,0-4.65,2.75s6.86,12,10,17.45h0l-2.56,4.77L71.39,201l9.38,3.71.79.51L85,211.07l11.88-7.89-3.2-5.8Z" transform="translate(-7.18 -142.31)"/><polygon class="cls-4" points="90.68 56.61 88.62 57.77 74.53 65.66 73.19 66.41 79.07 75.99 95.43 63.93 90.68 56.61"/></g></svg>