<?xml version="1.0" encoding="utf-8"?>
<!-- Generator: Adobe Illustrator 22.1.0, SVG Export Plug-In . SVG Version: 6.00 Build 0)  -->
<svg version="1.1" id="Layer_1" xmlns="http://www.w3.org/2000/svg" xmlns:xlink="http://www.w3.org/1999/xlink" x="0px" y="0px"
	 viewBox="0 0 294 289" style="enable-background:new 0 0 294 289;" xml:space="preserve">
<style type="text/css">
	.st0{fill:#D3D3D3;}
	.st1{fill:#795F4A;}
	.st2{fill:#BCBCBC;}
	.st3{fill:#C47C80;}
	.st4{fill:#EAE7E5;}
	.st5{fill:#E4A1A1;}
	.st6{fill:#916B6B;}
	.st7{fill:#231F20;}
	.st8{fill:#99918A;}
	.st9{fill:#B0A8A1;}
	.st10{clip-path:url(#SVGID_2_);}
	.st11{fill:#F4D9C3;}
	.st12{fill:#FDB813;}
	.st13{fill:#F85B30;}
	.st14{fill:#888989;}
</style>
<g>
	<g>
		<g>
			<path class="st0" d="M199.2,202.6c0,0-0.3,6.8,1,9.1c1.2,2.3,2.3,10.4,1.7,15.4c-0.6,5-0.6,10.4-1.5,12c-0.9,1.7-2.4,3.7-3.1,4.4
				c-0.7,0.7-3.6,2.9-3,3.8c0.6,1,10.9,0.7,11.8-0.8c0.9-1.5-0.2-4.4,0.8-5.4s3.7-2.4,2.8-4.7s-0.5-12.9,0.3-17.9
				c0.8-5,0.4-14.5,0.4-14.5l-1.9-8.1l-8.4,3.5L199.2,202.6z"/>
			<path class="st1" d="M206.4,243.9c-2-0.9-5.1-1.7-7.5-2.3c-0.6,0.9-1.2,1.7-1.6,2c-0.7,0.7-3.6,2.9-3,3.8
				c0.6,1,10.9,0.7,11.8-0.8C206.4,245.9,206.4,244.9,206.4,243.9z"/>
			<path class="st2" d="M208.3,196l-8.4,3.5l-0.7,3.1c0,0-0.1,1.9,0,4c3.9-0.3,7.6-2,8.1,0.2c0.7,2.5,0.4,10.7,0.8,15.8
				c0.2,2.4,0.5,4.6,0.9,6.4c0.1-3.7,0.4-7.7,0.8-10.3c0.8-5,0.4-14.5,0.4-14.5L208.3,196z"/>
			<path class="st3" d="M174.2,193.8c0,0,3.3,7.7,17.8,10.1c14.4,2.3,19.1-6,19.1-6l-6.6-17.6l-18.5-1.7l-7.7,7.3L174.2,193.8z"/>
			<path class="st4" d="M231.7,132.9c-1.8-10.7-19.9-19.9-39.8-19.9s-31.5,4.5-53.6,3.3c-22.1-1.2-23.7-4.5-40.8-5.7
				s-26.4-0.8-26.4-0.8s7.3-6.7,6-13.4c0,0-11.8-2.4-15.7,5.4c0,0-1.2-11.6-15.7-11.6c-9.7,0-12.1,4.4-13.1,7.4c-0.9,3-2,4.4-2,4.4
				s-3.4-5.4-7.3-5.9c-3.9-0.5-8.4,2-8.4,2s-0.9,9.1,13.2,9.7c0,0,1,1.6,1.4,6.6s-0.3,8.4-0.3,8.4s-2.6,1-3.1,4.9
				c-0.5,3.9-0.5,8.1,1,8.4c0,0,0.8,4,11.4,3.5c0,0,0.5,3.4,6.7,5.2c1.8,0.5,6.6,10.4,8.7,16.5c2.1,6.1,3.7,12.8,4.2,21.4
				c0.5,8.6,10.7,20.6,23.2,19.1c0,0,1.2,14.1,2.1,18.5c0.9,4.4,1.9,12.9,1.4,16.2c-0.5,3.3-1.9,9.6-3.8,11.1
				c-1.9,1.6-7.1,6.3-6.7,7.7c0.4,1.4,8.1,1,8.1,1s-3.9,4,0.8,5.5c4.7,1.4,12.7-2.5,12.7-2.5s-0.7-4,0.3-5.7s1.8-6.5,0.9-9
				s-0.1-17.8,1.8-22.2c2-4.4,3-5,4.7-13.2c1.7-8.2,4.3-13.4,4.3-13.4s14.1-1,25.2,1.8s16.4,4.4,26.1,3.5c9.7-0.9,15.7-5,15.7-5
				s13.7-12.7,21.5-12.7s11.9,18.4,11.9,18.4s3.5,14.6,5.2,19.2s1.4,16.5,1.2,19.5c-0.2,3-1.4,5.6-2.1,6.8c-0.7,1.2-4.2,5.2-2.2,6.7
				s9.4,1.2,11.2-1.7c0.8-1.2-0.5-4.4-0.3-5.6s1.9-3.3,0.7-8.3c-1.2-5-2.1-15-0.7-21.2c1.4-6.2,3.4-12.5,2.4-16.4
				c-1-3.8,3.7-25.3,4.5-31.2C229.3,163.5,234.7,150.8,231.7,132.9z"/>
			<path class="st0" d="M90.9,200.1l-0.5-12.8c0,0-17.6,6.8-24.2-0.7c-4.3-4.9-7.2-11.1-9.8-17.2c0.9,3.9,1.5,8.1,1.8,13
				c0.5,8.6,10.7,20.6,23.2,19.1c0,0,0,0.1,0,0.3c0,0,1.5,15.4,2.1,18.2c0.9,4.4,1.9,12.9,1.4,16.2c-0.5,3.3-1.9,9.6-3.8,11.1
				c-1.9,1.6-7.1,6.3-6.7,7.7s8.1,1,8.1,1s5.4-5.1,6.8-10.2c1.4-5.1,1-22.1,0-24.5c-1-2.5,0.3-8.7,1-10.7
				C91.2,208.8,90.9,200.1,90.9,200.1z"/>
			<path class="st0" d="M194,178.8c-9.7-3-21.1,4.2-47.2,7.1c-26.1,3-36.9-4.5-36.9-4.5l-4.4,15.5c0,0,0.3,0.9,0.9,2.5
				c0.9-2.4,1.6-3.8,1.6-3.8s14.1-1,25.2,1.8c11.1,2.8,16.4,4.4,26.1,3.5c9.7-0.9,15.7-5,15.7-5s13.7-12.7,21.5-12.7
				c6,0,9.8,10.8,11.2,15.8C206,190.8,203.2,181.6,194,178.8z"/>
			<path class="st0" d="M95,219.8c-2.9,3.1-7.5-0.2-7.5-0.2s1,10.4,3.3,12.7s3.7,13.1,1.8,20c-1.1,4.1-3.1,7.4-4.5,9.4
				c4-0.7,7.9-2.6,7.9-2.6s-0.7-4,0.3-5.7s1.8-6.5,0.9-9s-0.1-17.8,1.8-22.2c2-4.4,3-5,4.7-13.2c1.7-8.2,4.3-13.4,4.3-13.4
				c2.3-8.6,5.9-27.4,5.9-27.4s-8.4,22.3-12,29.9C98.2,205.8,97.9,216.6,95,219.8z"/>
			<path class="st0" d="M217.5,254.3c1.9-0.4,3.6-1.1,4.3-2.3c0.8-1.2-0.5-4.4-0.3-5.6s1.9-3.3,0.7-8.3c-1.2-5-2.1-15-0.7-21.2
				c1.4-6.2,3.4-12.5,2.4-16.4c-1-3.8,3.7-25.3,4.5-31.2c0.7-4.4,3.8-12.6,4.1-24c-1.9,2.3-4.4,5.4-5.3,7.6
				c-1.7,3.9-4.3,13.1-7,21.5c-2.7,8.5-2.1,23-2.2,29c-0.1,5.3-5.5,8.3-6.8,8.9c0.9,3.3,1.8,6.6,2.5,8.4c0.7,1.8,1,4.7,1.2,7.8
				c1,1.7,2.1,4.2,3.1,7.4c2,6.4,1,12.1-0.3,15.1L217.5,254.3z"/>
			<path class="st5" d="M29.2,123.6c2.3-0.8,9.7-0.5,11.4,0.6c1.6,1.1,2.1,4.7,1.3,6.6c-0.8,1.9-1.6,4.1-2.7,4.1
				c-1.2,0-3.8-0.8-5.2-0.5s-3.9,1.2-4.7,0.1c-0.8-1.1-2.4-5.6-2.5-7.5S27.7,124.2,29.2,123.6z"/>
			<g>
				<path class="st6" d="M37.4,131c0,0,0.9-5.6,3-4.4S37.6,129.3,37.4,131z"/>
				<path class="st6" d="M30.5,131.3c0,0-0.4-5.6-2.6-4.6C25.6,127.7,30.3,129.6,30.5,131.3z"/>
			</g>
			<path class="st7" d="M33.5,117.1c0.2-1.1-0.7-9.3-0.3-11.6s0.7-8.2,0.7-10.5c0,0,0,0,0,0c-0.5,0.9-0.9,1.7-1.1,2.5
				c-0.9,3-2,4.4-2,4.4s-3.4-5.4-7.3-5.9c-3.9-0.5-8.4,2-8.4,2s-0.9,9.1,13.2,9.7c0,0,0.2,0.4,0.5,1.3c0.2-1.1,0.9-1.9,1.7-1.9
				c0.9,0,1.7,1.1,1.7,2.5s-0.8,2.5-1.7,2.5c-0.4,0-0.8-0.2-1.1-0.6c0.1,0.8,0.2,1.7,0.3,2.8c0.3,5-0.3,8.4-0.3,8.4
				C31.7,121.2,33.3,118.2,33.5,117.1z"/>
			<path class="st7" d="M196.8,118.9c-4.4-1.9-13.8-3-13.9,1.9c-0.2,4.9-12.4,12.5-14.4,9.1s-4.4-10.6-10.1-11s-8.7-3.5-14.8-0.3
				c-6.1,3.1-8.2-2.6-12.9,1.9s-7.1,6.4-4.5,13.2c2.6,6.8,0.9,1.6-1.9,10.3s-3.3,9.1-0.2,12c3.1,3,11,5.9,12-0.5
				c1-6.4-3.8-13.6,3.7-11.5c7.5,2.1,5.6,8.2,13.1,7s10.8-2.8,13.6-6.4c2.8-3.7,7.1-4.4,14.3-2.3c7.1,2.1,10.1-0.2,11.5-5.4
				c1.4-5.2,11.8,12.5,10.4,17.8c-1.4,5.2,5,9.6,6.1,5.2c1-4.4-3-17.1-3.7-22.8c-0.7-5.7-1.6-7.5,0.5-11.7
				C207.6,121.2,196.8,118.9,196.8,118.9z"/>
			<path class="st7" d="M157,160.8c-4.7-3.5-17.2,5.5-4.2,11.2c13.1,5.7,7.3,12.5,13.3,14.1c6,1.6,7.3-1.8,5-8.4
				c-2.4-6.5,0.8-4.2,0.8-9.9s-5-9.1-6.3-5.5c-1.3,3.7-6,8.4-8.1,5.7C155.4,165.5,159.1,162.4,157,160.8z"/>
			<path class="st8" d="M60.6,124.8l-7.6,5.8c0,0-1,5.8-6.7,6.6l-8.1,1.2l-0.7,0.9c0.4,0,0.8,0,1.2,0c0,0,0.5,3.4,6.7,5.2
				c1.1,0.3,3.4,4.2,5.4,8.5c1.4-4.1,4.2-11.6,6.3-14.7c2.8-4.2,7.3-4.8,7.3-4.8L60.6,124.8z"/>
			<path class="st7" d="M114.2,131.3c-3.9-5.7-16.4-4.7-14.9-11.2c1.6-6.5-8.6-9.4-8.1-4.7c0.5,4.7-7.6,12.3-9.9,5.5
				s-8.6-10.4-10.2-11.1c0,0,7.3-6.7,6-13.4c0,0-11.8-2.4-15.7,5.4c0,0-0.5-4.4-4.2-7.8c-1.1,0.5-10.4,5.1-12.7,11.2
				c-2.5,6.5-4.2,12.1-3.3,14.5s2.2,4.4,3,7.4c0.8,3,2.4,8.5,5.9,8.2s9.9-7.3,9.9-7.3s1,8.7-1.2,12.8c-2.2,4-5,12.1-3.1,15.3
				s14.2,1.4,14.5,5.4c0.3,3.9-4.7,7.6-2.9,11.2c1.8,3.7,10.4,5.5,11-0.5s1.8-8.1,7.6-8.1s8.6-1.8,11.2-3.9c2.6-2.1,1.6,0.5,6,5.7
				c4.4,5.2,15.4,12,9.9-2.6c-5.5-14.6-14.4-12.8-9.7-19.8C108.2,136.3,118.1,137.1,114.2,131.3z M52.2,113.8c-1.7,0-3-1.3-3-3
				c0-1.7,1.3-3,3-3s3,1.3,3,3C55.2,112.5,53.8,113.8,52.2,113.8z"/>
			<path class="st9" d="M46.3,137.2c0,0-4.6-1-10.6-1.8c-6-0.8-8.4,0.5-8.4,0.5s0.8,4,11.4,3.5C43.8,139.6,46.3,137.2,46.3,137.2z"
				/>
			<path class="st2" d="M71.3,199.1c-1.3-0.3-2.5-0.8-3.7-1.4c3.9,2.8,8.7,4.5,13.9,3.9c4.7-0.2,7.7-0.3,9.4-0.4c0-0.6,0-1,0-1
				l-0.1-2.6C86.8,198.6,77.5,200.7,71.3,199.1z"/>
			<path class="st1" d="M82.6,256.1c0,0,2.3-2.2,4.3-5.2c0,0,0,0,0,0c-3-1.1-5.6-1.6-7.7-1.9c-2.2,2.1-5,5-4.7,6
				C74.9,256.5,82.6,256.1,82.6,256.1z"/>
			<path class="st1" d="M84.1,254.8l-1.5,1.4c0,0-3.9,4,0.8,5.5c4.7,1.4,12.7-2.5,12.7-2.5C90.7,253.2,84.1,254.8,84.1,254.8z"/>
			<path class="st2" d="M124.6,193.5c-6.9-1.7-15.7-1.4-17.7-1.3l-1.3,4.7c0,0,0.3,0.9,0.9,2.5c0.9-2.4,1.6-3.8,1.6-3.8
				s14.1-1,25.2,1.8c11.1,2.8,16.4,4.4,26.1,3.5c9.7-0.9,15.7-5,15.7-5s0.8-0.7,2-1.8c-5.4,2.9-10,4.7-21,5.3
				C144.9,200,132.4,195.4,124.6,193.5z"/>
			<path class="st7" d="M54.5,110.9c0,1.6-1.3,2.9-2.9,2.9s-2.9-1.3-2.9-2.9s1.3-2.9,2.9-2.9C53.2,108,54.5,109.3,54.5,110.9z"/>
			<path class="st7" d="M32.5,110.1c-0.1,1.3-1,2.2-2,2.2s-1.7-1.2-1.6-2.4c0.1-1.3,1-2.2,2-2.2C31.8,107.8,32.5,108.8,32.5,110.1z"
				/>
			<path class="st1" d="M221.8,252c0.1-0.2,0.2-0.4,0.2-0.7c-3-2.3-6.6-3.6-9.2-4.4c0,0,0,0.1-0.1,0.1c-0.7,1.2-4.2,5.2-2.2,6.7
				C212.6,255.2,220,254.9,221.8,252z"/>
			<path class="st3" d="M181.4,204.3L181.4,204.3c-0.9,0-1.7-0.7-1.7-1.7v-4.4c0-0.9,0.7-1.7,1.7-1.7l0,0c0.9,0,1.7,0.7,1.7,1.7v4.4
				C183,203.6,182.3,204.3,181.4,204.3z"/>
			<path class="st3" d="M189,206.6L189,206.6c-0.9,0-1.7-0.7-1.7-1.7v-4.4c0-0.9,0.7-1.7,1.7-1.7l0,0c0.9,0,1.7,0.7,1.7,1.7v4.4
				C190.7,205.9,189.9,206.6,189,206.6z"/>
			<path class="st3" d="M192.2,208.2L192.2,208.2c-0.9,0-1.7-0.7-1.7-1.7v-4.4c0-0.9,0.7-1.7,1.7-1.7l0,0c0.9,0,1.7,0.7,1.7,1.7v4.4
				C193.8,207.4,193.1,208.2,192.2,208.2z"/>
			<path class="st3" d="M198.1,208.1L198.1,208.1c-0.9,0-1.7-0.7-1.7-1.7v-4.4c0-0.9,0.7-1.7,1.7-1.7l0,0c0.9,0,1.7,0.7,1.7,1.7v4.4
				C199.7,207.4,199,208.1,198.1,208.1z"/>
			<path class="st4" d="M227.5,126.6c0,0,8.4,4.3,10.7,15.1c2.4,10.8,0.4,24.3,1,29.4c0.7,5.1,0.5,11.4,2.6,15.4s9.8,12.8,10.8,20.8
				c1,8-4,12.3-4,12.3s2.2-6.7,0.1-11.6c-2.1-5-9.7-5.9-10.6-13.2s-1.6-17.1-1.6-29.2c0-12.1,1.2-24-6.1-26.2
				C223.2,137.1,227.5,126.6,227.5,126.6z"/>
			<path class="st1" d="M241.9,186.6c-0.6-1.1-0.9-2.3-1.2-3.6l-3.4,0.6c0.3,4.2,0.6,8,1,11.2c0.9,7.3,8.5,8.2,10.6,13.2
				s-0.1,11.6-0.1,11.6s5.1-4.3,4-12.3C251.6,199.4,243.9,190.6,241.9,186.6z"/>
			<path class="st7" d="M231.7,132.9c-0.7-4.1-3.8-8-8.6-11.3l-0.1,0.1c-1.6,3.1-5.5,5.2-1.3,8.4c4.2,3.1,2.7,3-0.4,11.6
				c-3.1,8.6,4,5.9,1.7,12.7s-7.3,7-2.6,13.1c4,5.1,4.8,7.4,7,7.6c0.4-2.4,0.8-4.4,1-5.6C229.3,163.5,234.7,150.8,231.7,132.9z"/>
			<path class="st2" d="M87.6,200.8c0.8,1.6,1,4,0.8,8.4c-0.2,4.4-1.4,8.4-1,11.5c0.4,2.7,2.4,11.5,2.8,13.7c0-5.8-0.4-11.6-0.9-13
				c-1-2.5,0.3-8.7,1-10.7c0.8-2,0.5-10.6,0.5-10.6l0-0.8l-1.4,0.3L87.6,200.8z"/>
		</g>
	</g>
</g>
<g>
	<g>
		<g>
			<defs>
				<circle id="SVGID_1_" cx="183" cy="153.1" r="146.4"/>
			</defs>
			<clipPath id="SVGID_2_">
				<use xlink:href="#SVGID_1_"  style="overflow:visible;"/>
			</clipPath>
			<g class="st10">
				<g>
					<g>
						<polygon class="st11" points="179.8,105.6 156.6,78 226.8,18.3 264.9,43 243.9,65.6 240.7,77.7 230.1,95.6 189.6,96.9 						
							"/>
						<path class="st11" d="M179.8,105.6L156.6,78l53.5-38.8c0.6,3.3,2.7,5.6,4.5,8.6c3.4,5.6,6.7,11.1,10.9,16.2
							c4.7,5.6,9,11.3,13.1,17.1l-8.6,14.4l-40.5,1.4L179.8,105.6z"/>
						<path class="st11" d="M153.9,83.7c-0.1,1.2-14.8,40.1-14.8,40.1l3.7,27.5c0,0,8.7,14.5,12.6,18.1c1.9,1.9,8.6,1.9,9.1-7.1
							c0.3-5.5-7.4-15.4-7.4-15.4l0.7-15.3l7.9-17.3l14.3-8.7l-13.4-31.2C166.4,74.4,154.8,74.4,153.9,83.7z"/>
						<path class="st11" d="M220.8,133.2c0,0-12,21-14.3,24.8c-4.8,8.1-12.6,5.5-13.3-1.8c-0.3-3.4,8.2-22.1,8.2-22.1l2.3-19.2
							c0,0-9.6-12.4-16.1-11c-1.9,0.4-7.8,1.7-7.8,1.7l11.4-39l35.8-5.5l13.7,16.6L220.8,133.2z"/>
					</g>
					<g>
						<ellipse class="st12" cx="179.3" cy="164.4" rx="14.7" ry="14.7"/>
						<path class="st13" d="M185.9,154c-5.7-3.6-13.3-1.9-16.9,3.8c-3.6,5.7-1.9,13.3,3.8,16.9c5.7,3.6,13.3,1.9,16.9-3.8
							C193.3,165.2,191.6,157.7,185.9,154z M188.5,170.2c-3.2,5.1-10,6.6-15.1,3.4c-5.1-3.2-6.6-10-3.4-15.1
							c3.2-5.1,10-6.6,15.1-3.4C190.3,158.4,191.8,165.1,188.5,170.2z"/>
						<g>
							<path class="st13" d="M173.8,166.6c-2.4-1.5-2.2-3.5-1.1-5.3l-1.4-0.9l1-1.6l1.4,0.9c0.8-1.1,1.5-1.9,2.3-2.6l2.1,1.3
								c-0.7,0.9-1.9,2.7-2.4,3.5c-0.6,1-0.8,1.5,0.1,2.1l0.4,0.3c0.7,0.5,1.2,0.3,1.7-0.5l0.8-1.3c1.6-2.5,3.9-1.7,5.2-0.8l0.7,0.4
								c2.8,1.8,2.4,3.9,1.3,5.5l1.4,0.9l-1,1.6l-1.4-0.9c-0.9,1.3-1.3,1.7-2.3,2.6l-2.1-1.3c0.5-0.6,1.6-2.2,2.6-3.7
								c0.4-0.7,0.6-1.4-0.1-1.8l-0.5-0.3c-0.6-0.4-1.1-0.4-1.6,0.4l-0.8,1.3c-1.9,3-4.5,1.6-5.4,1.1L173.8,166.6z"/>
						</g>
					</g>
				</g>
				
					<rect x="229.1" y="-11.2" transform="matrix(0.6467 -0.7628 0.7628 0.6467 68.0088 201.4507)" class="st14" width="44.7" height="77.1"/>
				<g>
					<path class="st13" d="M200.4,257.9v3.3c0,6.6,10.1,11.9,22.5,11.9c12.4,0,22.5-5.3,22.5-11.9v-3.3H200.4z"/>
					<path class="st13" d="M200.4,257.9v3.3c0,0.7,0.1,1.4,0.3,2v-3.7h1.5v6.4c0.4,0.5,0.9,1,1.4,1.4v-6.2h1.5v7.4
						c0.7,0.5,1.4,0.9,2.2,1.3v-6.1h1.5v6.8c0.8,0.4,1.7,0.7,2.7,1v-6.1h1.5v6.6c1.2,0.3,2.4,0.5,3.7,0.7v-5.9h1.5v6.1
						c1.2,0.1,2.5,0.2,3.7,0.2v-6.3h1.5v6.3c1.2,0,2.4-0.1,3.6-0.2v-6.1h1.5v5.9c1.3-0.2,2.5-0.4,3.7-0.7v-6.6h1.5v6.2
						c0.9-0.3,1.8-0.6,2.7-1v-6.8h1.5v6.2c0.8-0.4,1.5-0.8,2.2-1.3v-7.5h1.5v6.3c0.5-0.4,1-0.9,1.4-1.4v-6.6h1.5v4.1
						c0.3-0.8,0.5-1.6,0.5-2.4v-3.3L200.4,257.9L200.4,257.9z"/>
					<path class="st12" d="M245.4,257.9c0,6.6-10.1,11.9-22.5,11.9c-12.4,0-22.5-5.3-22.5-11.9c0-6.6,10.1-11.9,22.5-11.9
						C235.3,246,245.4,251.3,245.4,257.9z"/>
					<path class="st13" d="M222.9,267.1c-11.4,0-20.3-4.3-20.3-9.8c0-5.5,8.9-9.8,20.3-9.8c11.4,0,20.3,4.3,20.3,9.8
						C243.2,262.8,234.3,267.1,222.9,267.1z M222.9,249c-10.9,0-18.1,4.7-18.1,8.4c0,3.7,7.3,7.6,18.1,7.6c10.9,0,18.1-3.9,18.1-7.6
						C241.1,253.7,233.8,249,222.9,249z"/>
					<g>
						<path class="st13" d="M222.3,251.4l0,1.6h-5.1l-0.3,1.4h3.5l1.9,1.7l-0.1,2.9l-2.3,2.1h-4.6l-2.4-0.9l1.3-2.2l2,0.7h2.8
							l0.7-0.6l0.1-1.1l-0.6-0.6h-5.1l1.2-4.9L222.3,251.4L222.3,251.4z"/>
						<path class="st13" d="M229.1,251.4l2.2,1.4l1.6,6.1L231,261h-4.9l-2.5-2.1l-0.1-6.1l1.9-1.4H229.1z M225.6,253.3l0.3,3.6
							l2.5-4.1h-2.2L225.6,253.3z M230.4,258.1l-0.7-3.8l-2.5,4.5h2.6L230.4,258.1z"/>
					</g>
				</g>
				<g>
					<path class="st13" d="M200.4,252.9v3.3c0,6.6,10.1,11.9,22.5,11.9c12.4,0,22.5-5.3,22.5-11.9v-3.3H200.4z"/>
					<path class="st13" d="M200.4,252.9v3.3c0,0.7,0.1,1.4,0.3,2v-3.7h1.5v6.4c0.4,0.5,0.9,1,1.4,1.4v-6.2h1.5v7.4
						c0.7,0.5,1.4,0.9,2.2,1.3v-6.1h1.5v6.8c0.8,0.4,1.7,0.7,2.7,1v-6.1h1.5v6.6c1.2,0.3,2.4,0.5,3.7,0.7v-5.9h1.5v6.1
						c1.2,0.1,2.5,0.2,3.7,0.2v-6.3h1.5v6.3c1.2,0,2.4-0.1,3.6-0.2v-6.1h1.5v5.9c1.3-0.2,2.5-0.4,3.7-0.7v-6.6h1.5v6.2
						c0.9-0.3,1.8-0.6,2.7-0.9v-6.9h1.5v6.2c0.8-0.4,1.5-0.8,2.2-1.3v-7.5h1.5v6.3c0.5-0.4,1-0.9,1.4-1.4v-6.6h1.5v4.1
						c0.3-0.8,0.5-1.6,0.5-2.4v-3.3L200.4,252.9L200.4,252.9z"/>
					<path class="st12" d="M245.4,252.9c0,6.6-10.1,11.9-22.5,11.9c-12.4,0-22.5-5.3-22.5-11.9c0-6.6,10.1-11.9,22.5-11.9
						C235.3,241,245.4,246.3,245.4,252.9z"/>
					<path class="st13" d="M222.9,262.1c-11.4,0-20.3-4.3-20.3-9.8c0-5.5,8.9-9.8,20.3-9.8c11.4,0,20.3,4.3,20.3,9.8
						C243.2,257.8,234.3,262.1,222.9,262.1z M222.9,244c-10.9,0-18.1,4.7-18.1,8.4s7.3,7.6,18.1,7.6c10.9,0,18.1-3.9,18.1-7.6
						S233.8,244,222.9,244z"/>
					<g>
						<path class="st13" d="M222.3,246.4l0,1.6h-5.1l-0.3,1.4h3.5l1.9,1.7l-0.1,2.9l-2.3,2.1h-4.6l-2.4-0.9l1.3-2.2l2,0.7h2.8
							l0.7-0.6l0.1-1.2l-0.6-0.6h-5.1l1.2-4.9L222.3,246.4L222.3,246.4z"/>
						<path class="st13" d="M229.1,246.4l2.2,1.4l1.6,6.1L231,256h-4.9l-2.5-2.1l-0.1-6.1l1.9-1.4H229.1z M225.6,248.3l0.3,3.6
							l2.5-4.1h-2.2L225.6,248.3z M230.4,253.1l-0.7-3.8l-2.5,4.5h2.6L230.4,253.1z"/>
					</g>
				</g>
				<g>
					<path class="st13" d="M200.4,248v3.3c0,6.6,10.1,11.9,22.5,11.9c12.4,0,22.5-5.3,22.5-11.9V248L200.4,248L200.4,248z"/>
					<path class="st13" d="M200.4,248v3.3c0,0.7,0.1,1.4,0.3,2v-3.7h1.5v6.4c0.4,0.5,0.9,1,1.4,1.4v-6.2h1.5v7.4
						c0.7,0.5,1.4,0.9,2.2,1.3v-6.1h1.5v6.8c0.8,0.4,1.7,0.7,2.7,1v-6.1h1.5v6.6c1.2,0.3,2.4,0.5,3.7,0.7v-5.9h1.5v6.1
						c1.2,0.1,2.5,0.2,3.7,0.2v-6.3h1.5v6.3c1.2,0,2.4-0.1,3.6-0.2v-6.1h1.5v5.9c1.3-0.2,2.5-0.4,3.7-0.7v-6.6h1.5v6.2
						c0.9-0.3,1.8-0.6,2.7-0.9v-6.8h1.5v6.2c0.8-0.4,1.5-0.8,2.2-1.3v-7.5h1.5v6.3c0.5-0.4,1-0.9,1.4-1.4v-6.6h1.5v4.1
						c0.3-0.8,0.5-1.6,0.5-2.4v-3.3L200.4,248L200.4,248z"/>
					<path class="st12" d="M245.4,248c0,6.6-10.1,11.9-22.5,11.9c-12.4,0-22.5-5.3-22.5-11.9c0-6.6,10.1-11.9,22.5-11.9
						C235.3,236,245.4,241.4,245.4,248z"/>
					<path class="st13" d="M222.9,257.1c-11.4,0-20.3-4.3-20.3-9.8c0-5.5,8.9-9.8,20.3-9.8c11.4,0,20.3,4.3,20.3,9.8
						C243.2,252.9,234.3,257.1,222.9,257.1z M222.9,239c-10.9,0-18.1,4.7-18.1,8.4c0,3.7,7.3,7.6,18.1,7.6c10.9,0,18.1-3.9,18.1-7.6
						C241.1,243.7,233.8,239,222.9,239z"/>
					<g>
						<path class="st13" d="M222.3,241.4l0,1.6h-5.1l-0.3,1.4h3.5l1.9,1.7l-0.1,2.9l-2.3,2.1h-4.6l-2.4-0.9l1.3-2.2l2,0.7h2.8
							l0.7-0.6l0.1-1.2l-0.6-0.6h-5.1l1.2-4.9H222.3z"/>
						<path class="st13" d="M229.1,241.4l2.2,1.4l1.6,6.1L231,251h-4.9l-2.5-2.1l-0.1-6.1l1.9-1.4H229.1z M225.6,243.3l0.3,3.6
							l2.5-4.1h-2.2L225.6,243.3z M230.4,248.1l-0.7-3.8l-2.5,4.5h2.6L230.4,248.1z"/>
					</g>
				</g>
				<g>
					<path class="st13" d="M200.4,243v3.3c0,6.6,10.1,11.9,22.5,11.9c12.4,0,22.5-5.3,22.5-11.9V243H200.4z"/>
					<path class="st13" d="M200.4,243v3.3c0,0.7,0.1,1.4,0.3,2v-3.7h1.5v6.4c0.4,0.5,0.9,1,1.4,1.4v-6.2h1.5v7.4
						c0.7,0.5,1.4,0.9,2.2,1.3v-6.1h1.5v6.8c0.8,0.4,1.7,0.7,2.7,1v-6.1h1.5v6.6c1.2,0.3,2.4,0.5,3.7,0.7v-5.9h1.5v6.1
						c1.2,0.1,2.5,0.2,3.7,0.2v-6.3h1.5v6.3c1.2,0,2.4-0.1,3.6-0.2v-6.1h1.5v5.9c1.3-0.2,2.5-0.4,3.7-0.7v-6.6h1.5v6.2
						c0.9-0.3,1.8-0.6,2.7-0.9v-6.9h1.5v6.2c0.8-0.4,1.5-0.8,2.2-1.3v-7.5h1.5v6.3c0.5-0.4,1-0.9,1.4-1.4v-6.6h1.5v4.1
						c0.3-0.8,0.5-1.6,0.5-2.4V243L200.4,243L200.4,243z"/>
					<path class="st12" d="M245.4,243c0,6.6-10.1,11.9-22.5,11.9c-12.4,0-22.5-5.3-22.5-11.9c0-6.6,10.1-11.9,22.5-11.9
						C235.3,231,245.4,236.4,245.4,243z"/>
					<path class="st13" d="M222.9,252.2c-11.4,0-20.3-4.3-20.3-9.8c0-5.5,8.9-9.8,20.3-9.8c11.4,0,20.3,4.3,20.3,9.8
						C243.2,247.9,234.3,252.2,222.9,252.2z M222.9,234c-10.9,0-18.1,4.7-18.1,8.4s7.3,7.6,18.1,7.6c10.9,0,18.1-3.9,18.1-7.6
						S233.8,234,222.9,234z"/>
					<g>
						<path class="st13" d="M222.3,236.4l0,1.6h-5.1l-0.3,1.4h3.5l1.9,1.7l-0.1,2.9l-2.3,2.1h-4.6l-2.4-0.9l1.3-2.2l2,0.7h2.8
							l0.7-0.6l0.1-1.2l-0.6-0.6h-5.1l1.2-4.9H222.3z"/>
						<path class="st13" d="M229.1,236.4l2.2,1.4l1.6,6.1L231,246h-4.9l-2.5-2.1l-0.1-6.1l1.9-1.4H229.1z M225.6,238.3l0.3,3.6
							l2.5-4.1h-2.2L225.6,238.3z M230.4,243.1l-0.7-3.8l-2.5,4.5h2.6L230.4,243.1z"/>
					</g>
				</g>
				<g>
					<path class="st13" d="M200.4,238v3.3c0,6.6,10.1,11.9,22.5,11.9c12.4,0,22.5-5.3,22.5-11.9V238H200.4z"/>
					<path class="st13" d="M200.4,238v3.3c0,0.7,0.1,1.4,0.3,2v-3.7h1.5v6.4c0.4,0.5,0.9,1,1.4,1.4v-6.2h1.5v7.4
						c0.7,0.5,1.4,0.9,2.2,1.3v-6.1h1.5v6.8c0.8,0.4,1.7,0.7,2.7,1v-6.1h1.5v6.6c1.2,0.3,2.4,0.5,3.7,0.7v-5.9h1.5v6.1
						c1.2,0.1,2.5,0.2,3.7,0.2v-6.3h1.5v6.3c1.2,0,2.4-0.1,3.6-0.2v-6.1h1.5v5.9c1.3-0.2,2.5-0.4,3.7-0.7v-6.6h1.5v6.2
						c0.9-0.3,1.8-0.6,2.7-1v-6.8h1.5v6.2c0.8-0.4,1.5-0.8,2.2-1.3v-7.5h1.5v6.3c0.5-0.4,1-0.9,1.4-1.4v-6.6h1.5v4.1
						c0.3-0.8,0.5-1.6,0.5-2.4V238L200.4,238L200.4,238z"/>
					<path class="st12" d="M245.4,238c0,6.6-10.1,11.9-22.5,11.9c-12.4,0-22.5-5.3-22.5-11.9c0-6.6,10.1-11.9,22.5-11.9
						C235.3,226,245.4,231.4,245.4,238z"/>
					<path class="st13" d="M222.9,247.2c-11.4,0-20.3-4.3-20.3-9.8c0-5.5,8.9-9.8,20.3-9.8c11.4,0,20.3,4.3,20.3,9.8
						C243.2,242.9,234.3,247.2,222.9,247.2z M222.9,229c-10.9,0-18.1,4.7-18.1,8.4c0,3.7,7.3,7.6,18.1,7.6c10.9,0,18.1-3.9,18.1-7.6
						C241.1,233.7,233.8,229,222.9,229z"/>
					<g>
						<path class="st13" d="M222.3,231.4l0,1.6h-5.1l-0.3,1.4h3.5l1.9,1.7l-0.1,2.9l-2.3,2.1h-4.6l-2.4-0.9l1.3-2.2l2,0.7h2.8
							l0.7-0.6l0.1-1.1l-0.6-0.6h-5.1l1.2-4.9L222.3,231.4L222.3,231.4z"/>
						<path class="st13" d="M229.1,231.4l2.2,1.4l1.6,6.1L231,241h-4.9l-2.5-2.1l-0.1-6.1l1.9-1.4H229.1z M225.6,233.3l0.3,3.6
							l2.5-4.1h-2.2L225.6,233.3z M230.4,238.1l-0.7-3.8l-2.5,4.5h2.6L230.4,238.1z"/>
					</g>
				</g>
				<g>
					<path class="st13" d="M200.4,233v3.3c0,6.6,10.1,11.9,22.5,11.9c12.4,0,22.5-5.3,22.5-11.9V233H200.4z"/>
					<path class="st13" d="M200.4,233v3.3c0,0.7,0.1,1.4,0.3,2v-3.7h1.5v6.4c0.4,0.5,0.9,1,1.4,1.4v-6.2h1.5v7.4
						c0.7,0.5,1.4,0.9,2.2,1.3v-6.1h1.5v6.8c0.8,0.4,1.7,0.7,2.7,1v-6.1h1.5v6.6c1.2,0.3,2.4,0.5,3.7,0.7v-5.9h1.5v6.1
						c1.2,0.1,2.5,0.2,3.7,0.2v-6.3h1.5v6.3c1.2,0,2.4-0.1,3.6-0.2v-6.1h1.5v5.9c1.3-0.2,2.5-0.4,3.7-0.7v-6.6h1.5v6.2
						c0.9-0.3,1.8-0.6,2.7-0.9v-6.9h1.5v6.2c0.8-0.4,1.5-0.8,2.2-1.3v-7.5h1.5v6.3c0.5-0.4,1-0.9,1.4-1.4v-6.6h1.5v4.1
						c0.3-0.8,0.5-1.6,0.5-2.4V233L200.4,233L200.4,233z"/>
					<path class="st12" d="M245.4,233c0,6.6-10.1,11.9-22.5,11.9c-12.4,0-22.5-5.3-22.5-11.9c0-6.6,10.1-11.9,22.5-11.9
						C235.3,221,245.4,226.4,245.4,233z"/>
					<path class="st13" d="M222.9,242.2c-11.4,0-20.3-4.3-20.3-9.8c0-5.5,8.9-9.8,20.3-9.8c11.4,0,20.3,4.3,20.3,9.8
						C243.2,237.9,234.3,242.2,222.9,242.2z M222.9,224c-10.9,0-18.1,4.7-18.1,8.4c0,3.7,7.3,7.6,18.1,7.6c10.9,0,18.1-3.9,18.1-7.6
						C241.1,228.7,233.8,224,222.9,224z"/>
					<g>
						<path class="st13" d="M222.3,226.4l0,1.6h-5.1l-0.3,1.4h3.5l1.9,1.7l-0.1,2.9l-2.3,2.1h-4.6l-2.4-0.9l1.3-2.2l2,0.7h2.8
							l0.7-0.6l0.1-1.2l-0.6-0.6h-5.1l1.2-4.9L222.3,226.4L222.3,226.4z"/>
						<path class="st13" d="M229.1,226.4l2.2,1.4l1.6,6.1L231,236h-4.9l-2.5-2.1l-0.1-6.1l1.9-1.4H229.1z M225.6,228.4l0.3,3.6
							l2.5-4.1h-2.2L225.6,228.4z M230.4,233.1l-0.7-3.8l-2.5,4.5h2.6L230.4,233.1z"/>
					</g>
				</g>
				<g>
					<path class="st13" d="M200.4,228v3.3c0,6.6,10.1,11.9,22.5,11.9c12.4,0,22.5-5.3,22.5-11.9V228H200.4z"/>
					<path class="st13" d="M200.4,228v3.3c0,0.7,0.1,1.4,0.3,2v-3.7h1.5v6.4c0.4,0.5,0.9,1,1.4,1.4v-6.2h1.5v7.4
						c0.7,0.5,1.4,0.9,2.2,1.3v-6.1h1.5v6.8c0.8,0.4,1.7,0.7,2.7,1v-6.1h1.5v6.6c1.2,0.3,2.4,0.5,3.7,0.7v-5.9h1.5v6.1
						c1.2,0.1,2.5,0.2,3.7,0.2v-6.3h1.5v6.3c1.2,0,2.4-0.1,3.6-0.2v-6.1h1.5v5.9c1.3-0.2,2.5-0.4,3.7-0.7v-6.6h1.5v6.2
						c0.9-0.3,1.8-0.6,2.7-0.9v-6.8h1.5v6.2c0.8-0.4,1.5-0.8,2.2-1.3v-7.5h1.5v6.3c0.5-0.4,1-0.9,1.4-1.4v-6.6h1.5v4.1
						c0.3-0.8,0.5-1.6,0.5-2.4V228L200.4,228L200.4,228z"/>
					<path class="st12" d="M245.4,228c0,6.6-10.1,11.9-22.5,11.9c-12.4,0-22.5-5.3-22.5-11.9c0-6.6,10.1-11.9,22.5-11.9
						C235.3,216,245.4,221.4,245.4,228z"/>
					<path class="st13" d="M222.9,237.2c-11.4,0-20.3-4.3-20.3-9.8c0-5.5,8.9-9.8,20.3-9.8c11.4,0,20.3,4.3,20.3,9.8
						C243.2,232.9,234.3,237.2,222.9,237.2z M222.9,219.1c-10.9,0-18.1,4.7-18.1,8.4c0,3.7,7.3,7.6,18.1,7.6
						c10.9,0,18.1-3.9,18.1-7.6C241.1,223.8,233.8,219.1,222.9,219.1z"/>
				</g>
				<g>
					<path class="st13" d="M113.6,257.9v3.3c0,6.6,10.1,11.9,22.5,11.9c12.4,0,22.5-5.3,22.5-11.9v-3.3L113.6,257.9L113.6,257.9z"/>
					<path class="st13" d="M113.6,257.9v3.3c0,0.7,0.1,1.4,0.3,2v-3.7h1.5v6.4c0.4,0.5,0.9,1,1.4,1.4v-6.2h1.5v7.4
						c0.7,0.5,1.4,0.9,2.2,1.3v-6.1h1.5v6.8c0.8,0.4,1.7,0.7,2.7,1v-6.1h1.5v6.6c1.2,0.3,2.4,0.5,3.7,0.7v-5.9h1.5v6.1
						c1.2,0.1,2.5,0.2,3.7,0.2v-6.3h1.5v6.3c1.2,0,2.4-0.1,3.6-0.2v-6.1h1.5v5.9c1.3-0.2,2.5-0.4,3.7-0.7v-6.6h1.5v6.2
						c0.9-0.3,1.8-0.6,2.7-0.9v-6.8h1.5v6.2c0.8-0.4,1.5-0.8,2.2-1.3v-7.5h1.5v6.3c0.5-0.4,1-0.9,1.4-1.4v-6.6h1.5v4.1
						c0.3-0.8,0.5-1.6,0.5-2.4v-3.3L113.6,257.9L113.6,257.9z"/>
					<path class="st12" d="M158.6,257.9c0,6.6-10.1,11.9-22.5,11.9c-12.4,0-22.5-5.3-22.5-11.9c0-6.6,10.1-11.9,22.5-11.9
						C148.5,246,158.6,251.3,158.6,257.9z"/>
					<path class="st13" d="M136.1,267.1c-11.4,0-20.3-4.3-20.3-9.8c0-5.5,8.9-9.8,20.3-9.8c11.4,0,20.3,4.3,20.3,9.8
						C156.4,262.8,147.5,267.1,136.1,267.1z M136.1,249c-10.9,0-18.1,4.7-18.1,8.4c0,3.7,7.3,7.6,18.1,7.6c10.9,0,18.1-3.9,18.1-7.6
						C154.3,253.7,147,249,136.1,249z"/>
					<g>
						<path class="st13" d="M135.5,251.4l0,1.6h-5.1l-0.3,1.4h3.5l1.9,1.7l-0.1,2.9l-2.3,2.1h-4.6l-2.4-0.9l1.3-2.2l2,0.7h2.8
							l0.7-0.6l0.1-1.2l-0.6-0.6h-5.1l1.2-4.9L135.5,251.4L135.5,251.4z"/>
						<path class="st13" d="M142.4,251.4l2.2,1.4l1.6,6.1l-1.9,2.1h-4.9l-2.5-2.1l-0.1-6.1l1.9-1.4H142.4z M138.8,253.3l0.3,3.6
							l2.5-4.1h-2.2L138.8,253.3z M143.6,258.1l-0.7-3.8l-2.5,4.5h2.6L143.6,258.1z"/>
					</g>
				</g>
				<g>
					<path class="st13" d="M113.6,252.9v3.3c0,6.6,10.1,11.9,22.5,11.9c12.4,0,22.5-5.3,22.5-11.9v-3.3H113.6z"/>
					<path class="st13" d="M113.6,252.9v3.3c0,0.7,0.1,1.4,0.3,2v-3.7h1.5v6.4c0.4,0.5,0.9,1,1.4,1.4v-6.2h1.5v7.4
						c0.7,0.5,1.4,0.9,2.2,1.3v-6.1h1.5v6.8c0.8,0.4,1.7,0.7,2.7,1v-6.1h1.5v6.6c1.2,0.3,2.4,0.5,3.7,0.7v-5.9h1.5v6.1
						c1.2,0.1,2.5,0.2,3.7,0.2v-6.3h1.5v6.3c1.2,0,2.4-0.1,3.6-0.2v-6.1h1.5v5.9c1.3-0.2,2.5-0.4,3.7-0.7v-6.6h1.5v6.2
						c0.9-0.3,1.8-0.6,2.7-0.9v-6.9h1.5v6.2c0.8-0.4,1.5-0.8,2.2-1.3v-7.5h1.5v6.3c0.5-0.4,1-0.9,1.4-1.4v-6.6h1.5v4.1
						c0.3-0.8,0.5-1.6,0.5-2.4v-3.3L113.6,252.9L113.6,252.9z"/>
					<path class="st12" d="M158.6,252.9c0,6.6-10.1,11.9-22.5,11.9c-12.4,0-22.5-5.3-22.5-11.9c0-6.6,10.1-11.9,22.5-11.9
						C148.5,241,158.6,246.3,158.6,252.9z"/>
					<path class="st13" d="M136.1,262.1c-11.4,0-20.3-4.3-20.3-9.8c0-5.5,8.9-9.8,20.3-9.8c11.4,0,20.3,4.3,20.3,9.8
						C156.4,257.8,147.5,262.1,136.1,262.1z M136.1,244c-10.9,0-18.1,4.7-18.1,8.4s7.3,7.6,18.1,7.6c10.9,0,18.1-3.9,18.1-7.6
						S147,244,136.1,244z"/>
					<g>
						<path class="st13" d="M135.5,246.4l0,1.6h-5.1l-0.3,1.4h3.5l1.9,1.7l-0.1,2.9l-2.3,2.1h-4.6l-2.4-0.9l1.3-2.2l2,0.7h2.8
							l0.7-0.6l0.1-1.2l-0.6-0.6h-5.1l1.2-4.9H135.5z"/>
						<path class="st13" d="M142.4,246.4l2.2,1.4l1.6,6.1l-1.9,2.1h-4.9l-2.5-2.1l-0.1-6.1l1.9-1.4H142.4z M138.8,248.3l0.3,3.6
							l2.5-4.1h-2.2L138.8,248.3z M143.6,253.1l-0.7-3.8l-2.5,4.5h2.6L143.6,253.1z"/>
					</g>
				</g>
				<g>
					<path class="st13" d="M113.6,248v3.3c0,6.6,10.1,11.9,22.5,11.9c12.4,0,22.5-5.3,22.5-11.9V248H113.6z"/>
					<path class="st13" d="M113.6,248v3.3c0,0.7,0.1,1.4,0.3,2v-3.7h1.5v6.4c0.4,0.5,0.9,1,1.4,1.4v-6.2h1.5v7.4
						c0.7,0.5,1.4,0.9,2.2,1.3v-6.1h1.5v6.8c0.8,0.4,1.7,0.7,2.7,1v-6.1h1.5v6.6c1.2,0.3,2.4,0.5,3.7,0.7v-5.9h1.5v6.1
						c1.2,0.1,2.5,0.2,3.7,0.2v-6.3h1.5v6.3c1.2,0,2.4-0.1,3.6-0.2v-6.1h1.5v5.9c1.3-0.2,2.5-0.4,3.7-0.7v-6.6h1.5v6.2
						c0.9-0.3,1.8-0.6,2.7-1v-6.8h1.5v6.2c0.8-0.4,1.5-0.8,2.2-1.3v-7.5h1.5v6.3c0.5-0.4,1-0.9,1.4-1.4v-6.6h1.5v4.1
						c0.3-0.8,0.5-1.6,0.5-2.4v-3.3L113.6,248L113.6,248z"/>
					<path class="st12" d="M158.6,248c0,6.6-10.1,11.9-22.5,11.9c-12.4,0-22.5-5.3-22.5-11.9c0-6.6,10.1-11.9,22.5-11.9
						C148.5,236,158.6,241.4,158.6,248z"/>
					<path class="st13" d="M136.1,257.1c-11.4,0-20.3-4.3-20.3-9.8c0-5.5,8.9-9.8,20.3-9.8c11.4,0,20.3,4.3,20.3,9.8
						C156.4,252.9,147.5,257.1,136.1,257.1z M136.1,239c-10.9,0-18.1,4.7-18.1,8.4c0,3.7,7.3,7.6,18.1,7.6c10.9,0,18.1-3.9,18.1-7.6
						C154.3,243.7,147,239,136.1,239z"/>
					<g>
						<path class="st13" d="M135.5,241.4l0,1.6h-5.1l-0.3,1.4h3.5l1.9,1.7l-0.1,2.9l-2.3,2.1h-4.6l-2.4-0.9l1.3-2.2l2,0.7h2.8
							l0.7-0.6l0.1-1.1l-0.6-0.6h-5.1l1.2-4.9L135.5,241.4L135.5,241.4z"/>
						<path class="st13" d="M142.4,241.4l2.2,1.4l1.6,6.1l-1.9,2.1h-4.9l-2.5-2.1l-0.1-6.1l1.9-1.4H142.4z M138.8,243.3l0.3,3.6
							l2.5-4.1h-2.2L138.8,243.3z M143.6,248.1l-0.7-3.8l-2.5,4.5h2.6L143.6,248.1z"/>
					</g>
				</g>
				<g>
					<path class="st13" d="M113.6,243v3.3c0,6.6,10.1,11.9,22.5,11.9c12.4,0,22.5-5.3,22.5-11.9V243H113.6z"/>
					<path class="st13" d="M113.6,243v3.3c0,0.7,0.1,1.4,0.3,2v-3.7h1.5v6.4c0.4,0.5,0.9,1,1.4,1.4v-6.2h1.5v7.4
						c0.7,0.5,1.4,0.9,2.2,1.3v-6.1h1.5v6.8c0.8,0.4,1.7,0.7,2.7,1v-6.1h1.5v6.6c1.2,0.3,2.4,0.5,3.7,0.7v-5.9h1.5v6.1
						c1.2,0.1,2.5,0.2,3.7,0.2v-6.3h1.5v6.3c1.2,0,2.4-0.1,3.6-0.2v-6.1h1.5v5.9c1.3-0.2,2.5-0.4,3.7-0.7v-6.6h1.5v6.2
						c0.9-0.3,1.8-0.6,2.7-0.9v-6.9h1.5v6.2c0.8-0.4,1.5-0.8,2.2-1.3v-7.5h1.5v6.3c0.5-0.4,1-0.9,1.4-1.4v-6.6h1.5v4.1
						c0.3-0.8,0.5-1.6,0.5-2.4V243L113.6,243L113.6,243z"/>
					<path class="st12" d="M158.6,243c0,6.6-10.1,11.9-22.5,11.9c-12.4,0-22.5-5.3-22.5-11.9c0-6.6,10.1-11.9,22.5-11.9
						C148.5,231,158.6,236.4,158.6,243z"/>
					<path class="st13" d="M136.1,252.2c-11.4,0-20.3-4.3-20.3-9.8c0-5.5,8.9-9.8,20.3-9.8c11.4,0,20.3,4.3,20.3,9.8
						C156.4,247.9,147.5,252.2,136.1,252.2z M136.1,234c-10.9,0-18.1,4.7-18.1,8.4c0,3.7,7.3,7.6,18.1,7.6c10.9,0,18.1-3.9,18.1-7.6
						C154.3,238.7,147,234,136.1,234z"/>
					<g>
						<path class="st13" d="M135.5,236.4l0,1.6h-5.1l-0.3,1.4h3.5l1.9,1.7l-0.1,2.9l-2.3,2.1h-4.6l-2.4-0.9l1.3-2.2l2,0.7h2.8
							l0.7-0.6l0.1-1.2l-0.6-0.6h-5.1l1.2-4.9L135.5,236.4L135.5,236.4z"/>
						<path class="st13" d="M142.4,236.4l2.2,1.4l1.6,6.1l-1.9,2.1h-4.9l-2.5-2.1l-0.1-6.1l1.9-1.4H142.4z M138.8,238.3l0.3,3.6
							l2.5-4.1h-2.2L138.8,238.3z M143.6,243.1l-0.7-3.8l-2.5,4.5h2.6L143.6,243.1z"/>
					</g>
				</g>
				<g>
					<path class="st13" d="M113.6,238v3.3c0,6.6,10.1,11.9,22.5,11.9c12.4,0,22.5-5.3,22.5-11.9V238H113.6z"/>
					<path class="st13" d="M113.6,238v3.3c0,0.7,0.1,1.4,0.3,2v-3.7h1.5v6.4c0.4,0.5,0.9,1,1.4,1.4v-6.2h1.5v7.4
						c0.7,0.5,1.4,0.9,2.2,1.3v-6.1h1.5v6.8c0.8,0.4,1.7,0.7,2.7,1v-6.1h1.5v6.6c1.2,0.3,2.4,0.5,3.7,0.7v-5.9h1.5v6.1
						c1.2,0.1,2.5,0.2,3.7,0.2v-6.3h1.5v6.3c1.2,0,2.4-0.1,3.6-0.2v-6.1h1.5v5.9c1.3-0.2,2.5-0.4,3.7-0.7v-6.6h1.5v6.2
						c0.9-0.3,1.8-0.6,2.7-0.9v-6.8h1.5v6.2c0.8-0.4,1.5-0.8,2.2-1.3v-7.5h1.5v6.3c0.5-0.4,1-0.9,1.4-1.4v-6.6h1.5v4.1
						c0.3-0.8,0.5-1.6,0.5-2.4V238L113.6,238L113.6,238z"/>
					<path class="st12" d="M158.6,238c0,6.6-10.1,11.9-22.5,11.9c-12.4,0-22.5-5.3-22.5-11.9c0-6.6,10.1-11.9,22.5-11.9
						C148.5,226,158.6,231.4,158.6,238z"/>
					<path class="st13" d="M136.1,247.2c-11.4,0-20.3-4.3-20.3-9.8c0-5.5,8.9-9.8,20.3-9.8c11.4,0,20.3,4.3,20.3,9.8
						C156.4,242.9,147.5,247.2,136.1,247.2z M136.1,229c-10.9,0-18.1,4.7-18.1,8.4c0,3.7,7.3,7.6,18.1,7.6c10.9,0,18.1-3.9,18.1-7.6
						C154.3,233.7,147,229,136.1,229z"/>
				</g>
				<g>
					<path class="st13" d="M113.6,232.7v3.3c0,6.6,10.1,11.9,22.5,11.9c12.4,0,22.5-5.3,22.5-11.9v-3.3H113.6z"/>
					<path class="st13" d="M113.6,232.7v3.3c0,0.7,0.1,1.4,0.3,2v-3.7h1.5v6.4c0.4,0.5,0.9,1,1.4,1.4v-6.2h1.5v7.4
						c0.7,0.5,1.4,0.9,2.2,1.3v-6.1h1.5v6.8c0.8,0.4,1.7,0.7,2.7,1v-6.1h1.5v6.6c1.2,0.3,2.4,0.5,3.7,0.7v-5.9h1.5v6.1
						c1.2,0.1,2.5,0.2,3.7,0.2v-6.3h1.5v6.3c1.2,0,2.4-0.1,3.6-0.2v-6.1h1.5v5.9c1.3-0.2,2.5-0.4,3.7-0.7v-6.6h1.5v6.2
						c0.9-0.3,1.8-0.6,2.7-0.9v-6.9h1.5v6.2c0.8-0.4,1.5-0.8,2.2-1.3v-7.5h1.5v6.3c0.5-0.4,1-0.9,1.4-1.4v-6.6h1.5v4.1
						c0.3-0.8,0.5-1.6,0.5-2.4v-3.3H113.6z"/>
					<path class="st12" d="M158.6,232.7c0,6.6-10.1,11.9-22.5,11.9c-12.4,0-22.5-5.3-22.5-11.9c0-6.6,10.1-11.9,22.5-11.9
						C148.5,220.7,158.6,226.1,158.6,232.7z"/>
					<path class="st13" d="M136.1,241.9c-11.4,0-20.3-4.3-20.3-9.8c0-5.5,8.9-9.8,20.3-9.8c11.4,0,20.3,4.3,20.3,9.8
						C156.4,237.6,147.5,241.9,136.1,241.9z M136.1,223.7c-10.9,0-18.1,4.7-18.1,8.4c0,3.7,7.3,7.6,18.1,7.6
						c10.9,0,18.1-3.9,18.1-7.6C154.3,228.4,147,223.7,136.1,223.7z"/>
					<g>
						<path class="st13" d="M135.5,226.1l0,1.6h-5.1l-0.3,1.4h3.5l1.9,1.7l-0.1,2.9l-2.3,2.1h-4.6l-2.4-0.9l1.3-2.2l2,0.7h2.8
							l0.7-0.6l0.1-1.2l-0.6-0.6h-5.1l1.2-4.9L135.5,226.1L135.5,226.1z"/>
						<path class="st13" d="M142.4,226.1l2.2,1.4l1.6,6.1l-1.9,2.1h-4.9l-2.5-2.1l-0.1-6.1l1.9-1.4H142.4z M138.8,228.1l0.3,3.6
							l2.5-4.1h-2.2L138.8,228.1z M143.6,232.8l-0.7-3.8l-2.5,4.5h2.6L143.6,232.8z"/>
					</g>
				</g>
				<g>
					<path class="st13" d="M113.6,227.7v3.3c0,6.6,10.1,11.9,22.5,11.9c12.4,0,22.5-5.3,22.5-11.9v-3.3H113.6z"/>
					<path class="st13" d="M113.6,227.7v3.3c0,0.7,0.1,1.4,0.3,2v-3.7h1.5v6.4c0.4,0.5,0.9,1,1.4,1.4V231h1.5v7.4
						c0.7,0.5,1.4,0.9,2.2,1.3v-6.1h1.5v6.8c0.8,0.4,1.7,0.7,2.7,1v-6.1h1.5v6.6c1.2,0.3,2.4,0.5,3.7,0.7v-5.9h1.5v6.1
						c1.2,0.1,2.5,0.2,3.7,0.2v-6.3h1.5v6.3c1.2,0,2.4-0.1,3.6-0.2v-6.1h1.5v5.9c1.3-0.2,2.5-0.4,3.7-0.7v-6.6h1.5v6.2
						c0.9-0.3,1.8-0.6,2.7-0.9v-6.8h1.5v6.2c0.8-0.4,1.5-0.8,2.2-1.3V231h1.5v6.3c0.5-0.4,1-0.9,1.4-1.4v-6.6h1.5v4.1
						c0.3-0.8,0.5-1.6,0.5-2.4v-3.3L113.6,227.7L113.6,227.7z"/>
					<path class="st12" d="M158.6,227.7c0,6.6-10.1,11.9-22.5,11.9c-12.4,0-22.5-5.3-22.5-11.9c0-6.6,10.1-11.9,22.5-11.9
						C148.5,215.8,158.6,221.1,158.6,227.7z"/>
					<path class="st13" d="M136.1,236.9c-11.4,0-20.3-4.3-20.3-9.8c0-5.5,8.9-9.8,20.3-9.8c11.4,0,20.3,4.3,20.3,9.8
						C156.4,232.6,147.5,236.9,136.1,236.9z M136.1,218.8c-10.9,0-18.1,4.7-18.1,8.4c0,3.7,7.3,7.6,18.1,7.6
						c10.9,0,18.1-3.9,18.1-7.6C154.3,223.5,147,218.8,136.1,218.8z"/>
				</g>
				<g>
					<path class="st13" d="M113.6,222.3v3.3c0,6.6,10.1,11.9,22.5,11.9c12.4,0,22.5-5.3,22.5-11.9v-3.3H113.6z"/>
					<path class="st13" d="M113.6,222.3v3.3c0,0.7,0.1,1.4,0.3,2v-3.7h1.5v6.4c0.4,0.5,0.9,1,1.4,1.4v-6.2h1.5v7.4
						c0.7,0.5,1.4,0.9,2.2,1.3v-6.1h1.5v6.8c0.8,0.4,1.7,0.7,2.7,1v-6.1h1.5v6.6c1.2,0.3,2.4,0.5,3.7,0.7v-5.9h1.5v6.1
						c1.2,0.1,2.5,0.2,3.7,0.2v-6.3h1.5v6.3c1.2,0,2.4-0.1,3.6-0.2v-6.1h1.5v5.9c1.3-0.2,2.5-0.4,3.7-0.7v-6.6h1.5v6.2
						c0.9-0.3,1.8-0.6,2.7-0.9v-6.9h1.5v6.2c0.8-0.4,1.5-0.8,2.2-1.3v-7.5h1.5v6.3c0.5-0.4,1-0.9,1.4-1.4v-6.6h1.5v4.1
						c0.3-0.8,0.5-1.6,0.5-2.4v-3.3L113.6,222.3L113.6,222.3z"/>
					<path class="st12" d="M158.6,222.3c0,6.6-10.1,11.9-22.5,11.9c-12.4,0-22.5-5.3-22.5-11.9c0-6.6,10.1-11.9,22.5-11.9
						C148.5,210.3,158.6,215.7,158.6,222.3z"/>
					<path class="st13" d="M136.1,231.5c-11.4,0-20.3-4.3-20.3-9.8c0-5.5,8.9-9.8,20.3-9.8c11.4,0,20.3,4.3,20.3,9.8
						C156.4,227.2,147.5,231.5,136.1,231.5z M136.1,213.3c-10.9,0-18.1,4.7-18.1,8.4c0,3.7,7.3,7.6,18.1,7.6
						c10.9,0,18.1-3.9,18.1-7.6C154.3,218,147,213.3,136.1,213.3z"/>
					<g>
						<path class="st13" d="M135.5,215.7l0,1.6h-5.1l-0.3,1.4h3.5l1.9,1.7l-0.1,2.9l-2.3,2.1h-4.6l-2.4-0.9l1.3-2.2l2,0.7h2.8
							l0.7-0.6l0.1-1.2l-0.6-0.6h-5.1l1.2-4.9L135.5,215.7L135.5,215.7z"/>
						<path class="st13" d="M142.4,215.7l2.2,1.4l1.6,6.1l-1.9,2.1h-4.9l-2.5-2.1l-0.1-6.1l1.9-1.4H142.4z M138.8,217.7l0.3,3.6
							l2.5-4.1h-2.2L138.8,217.7z M143.6,222.4l-0.7-3.8l-2.5,4.5h2.6L143.6,222.4z"/>
					</g>
				</g>
				<g>
					<path class="st13" d="M113.6,217.3v3.3c0,6.6,10.1,11.9,22.5,11.9c12.4,0,22.5-5.3,22.5-11.9v-3.3H113.6z"/>
					<path class="st13" d="M113.6,217.3v3.3c0,0.7,0.1,1.4,0.3,2v-3.7h1.5v6.4c0.4,0.5,0.9,1,1.4,1.4v-6.2h1.5v7.4
						c0.7,0.5,1.4,0.9,2.2,1.3v-6.1h1.5v6.8c0.8,0.4,1.7,0.7,2.7,1v-6.1h1.5v6.6c1.2,0.3,2.4,0.5,3.7,0.7v-5.9h1.5v6.1
						c1.2,0.1,2.5,0.2,3.7,0.2v-6.3h1.5v6.3c1.2,0,2.4-0.1,3.6-0.2v-6.1h1.5v5.9c1.3-0.2,2.5-0.4,3.7-0.7v-6.6h1.5v6.2
						c0.9-0.3,1.8-0.6,2.7-0.9v-6.8h1.5v6.2c0.8-0.4,1.5-0.8,2.2-1.3v-7.5h1.5v6.3c0.5-0.4,1-0.9,1.4-1.4v-6.6h1.5v4.1
						c0.3-0.8,0.5-1.6,0.5-2.4v-3.3L113.6,217.3L113.6,217.3z"/>
					<path class="st12" d="M158.6,217.3c0,6.6-10.1,11.9-22.5,11.9c-12.4,0-22.5-5.3-22.5-11.9c0-6.6,10.1-11.9,22.5-11.9
						C148.5,205.3,158.6,210.7,158.6,217.3z"/>
					<path class="st13" d="M136.1,226.5c-11.4,0-20.3-4.3-20.3-9.8c0-5.5,8.9-9.8,20.3-9.8c11.4,0,20.3,4.3,20.3,9.8
						C156.4,222.2,147.5,226.5,136.1,226.5z M136.1,208.4c-10.9,0-18.1,4.7-18.1,8.4c0,3.7,7.3,7.6,18.1,7.6
						c10.9,0,18.1-3.9,18.1-7.6C154.3,213.1,147,208.4,136.1,208.4z"/>
				</g>
				<g>
					<path class="st13" d="M156.4,257.9v3.3c0,6.6,10.1,11.9,22.5,11.9c12.4,0,22.5-5.3,22.5-11.9v-3.3L156.4,257.9L156.4,257.9z"/>
					<path class="st13" d="M156.4,257.9v3.3c0,0.7,0.1,1.4,0.3,2v-3.7h1.5v6.4c0.4,0.5,0.9,1,1.4,1.4v-6.2h1.5v7.4
						c0.7,0.5,1.4,0.9,2.2,1.3v-6.1h1.5v6.8c0.8,0.4,1.7,0.7,2.7,1v-6.1h1.5v6.6c1.2,0.3,2.4,0.5,3.7,0.7v-5.9h1.5v6.1
						c1.2,0.1,2.5,0.2,3.8,0.2v-6.3h1.5v6.3c1.2,0,2.4-0.1,3.6-0.2v-6.1h1.5v5.9c1.3-0.2,2.5-0.4,3.7-0.7v-6.6h1.5v6.2
						c0.9-0.3,1.8-0.6,2.7-0.9v-6.9h1.5v6.2c0.8-0.4,1.5-0.8,2.2-1.3v-7.5h1.5v6.3c0.5-0.4,1-0.9,1.4-1.4v-6.6h1.5v4.1
						c0.3-0.8,0.5-1.6,0.5-2.4v-3.3L156.4,257.9L156.4,257.9z"/>
					<path class="st12" d="M201.4,257.9c0,6.6-10.1,11.9-22.5,11.9c-12.4,0-22.5-5.3-22.5-11.9c0-6.6,10.1-11.9,22.5-11.9
						C191.3,246,201.4,251.3,201.4,257.9z"/>
					<path class="st13" d="M178.9,267.1c-11.4,0-20.3-4.3-20.3-9.8c0-5.5,8.9-9.8,20.3-9.8c11.4,0,20.3,4.3,20.3,9.8
						C199.2,262.8,190.3,267.1,178.9,267.1z M178.9,249c-10.9,0-18.1,4.7-18.1,8.4s7.3,7.6,18.1,7.6c10.8,0,18.1-3.9,18.1-7.6
						C197,253.7,189.7,249,178.9,249z"/>
					<g>
						<path class="st13" d="M178.2,251.4l0,1.6h-5.1l-0.2,1.4h3.5l1.9,1.7l-0.1,2.9l-2.3,2.1h-4.6l-2.4-0.9l1.3-2.2l2,0.7h2.8
							l0.7-0.6l0.1-1.1l-0.6-0.6h-5.1l1.2-4.9L178.2,251.4L178.2,251.4z"/>
						<path class="st13" d="M185.1,251.4l2.2,1.4l1.6,6.1L187,261h-4.9l-2.5-2.1l-0.1-6.1l1.9-1.4H185.1z M181.6,253.3l0.3,3.6
							l2.5-4.1h-2.2L181.6,253.3z M186.3,258.1l-0.7-3.8l-2.5,4.5h2.6L186.3,258.1z"/>
					</g>
				</g>
				<g>
					<path class="st13" d="M156.4,252.9v3.3c0,6.6,10.1,11.9,22.5,11.9c12.4,0,22.5-5.3,22.5-11.9v-3.3H156.4z"/>
					<path class="st13" d="M156.4,252.9v3.3c0,0.7,0.1,1.4,0.3,2v-3.7h1.5v6.4c0.4,0.5,0.9,1,1.4,1.4v-6.2h1.5v7.4
						c0.7,0.5,1.4,0.9,2.2,1.3v-6.1h1.5v6.8c0.8,0.4,1.7,0.7,2.7,1v-6.1h1.5v6.6c1.2,0.3,2.4,0.5,3.7,0.7v-5.9h1.5v6.1
						c1.2,0.1,2.5,0.2,3.8,0.2v-6.3h1.5v6.3c1.2,0,2.4-0.1,3.6-0.2v-6.1h1.5v5.9c1.3-0.2,2.5-0.4,3.7-0.7v-6.6h1.5v6.2
						c0.9-0.3,1.8-0.6,2.7-1v-6.8h1.5v6.2c0.8-0.4,1.5-0.8,2.2-1.3v-7.5h1.5v6.3c0.5-0.4,1-0.9,1.4-1.4v-6.6h1.5v4.1
						c0.3-0.8,0.5-1.6,0.5-2.4v-3.3L156.4,252.9L156.4,252.9z"/>
					<path class="st12" d="M201.4,252.9c0,6.6-10.1,11.9-22.5,11.9c-12.4,0-22.5-5.3-22.5-11.9c0-6.6,10.1-11.9,22.5-11.9
						C191.3,241,201.4,246.3,201.4,252.9z"/>
					<path class="st13" d="M178.9,262.1c-11.4,0-20.3-4.3-20.3-9.8c0-5.5,8.9-9.8,20.3-9.8c11.4,0,20.3,4.3,20.3,9.8
						C199.2,257.8,190.3,262.1,178.9,262.1z M178.9,244c-10.9,0-18.1,4.7-18.1,8.4c0,3.7,7.3,7.6,18.1,7.6c10.8,0,18.1-3.9,18.1-7.6
						C197,248.7,189.7,244,178.9,244z"/>
					<g>
						<path class="st13" d="M178.2,246.4l0,1.6h-5.1l-0.2,1.4h3.5l1.9,1.7l-0.1,2.9l-2.3,2.1h-4.6l-2.4-0.9l1.3-2.2l2,0.7h2.8
							l0.7-0.6l0.1-1.2l-0.6-0.6h-5.1l1.2-4.9L178.2,246.4L178.2,246.4z"/>
						<path class="st13" d="M185.1,246.4l2.2,1.4l1.6,6.1L187,256h-4.9l-2.5-2.1l-0.1-6.1l1.9-1.4H185.1z M181.6,248.3l0.3,3.6
							l2.5-4.1h-2.2L181.6,248.3z M186.3,253.1l-0.7-3.8l-2.5,4.5h2.6L186.3,253.1z"/>
					</g>
				</g>
				<g>
					<path class="st13" d="M156.4,248v3.3c0,6.6,10.1,11.9,22.5,11.9c12.4,0,22.5-5.3,22.5-11.9V248H156.4z"/>
					<path class="st13" d="M156.4,248v3.3c0,0.7,0.1,1.4,0.3,2v-3.7h1.5v6.4c0.4,0.5,0.9,1,1.4,1.4v-6.2h1.5v7.4
						c0.7,0.5,1.4,0.9,2.2,1.3v-6.1h1.5v6.8c0.8,0.4,1.7,0.7,2.7,1v-6.1h1.5v6.6c1.2,0.3,2.4,0.5,3.7,0.7v-5.9h1.5v6.1
						c1.2,0.1,2.5,0.2,3.8,0.2v-6.3h1.5v6.3c1.2,0,2.4-0.1,3.6-0.2v-6.1h1.5v5.9c1.3-0.2,2.5-0.4,3.7-0.7v-6.6h1.5v6.2
						c0.9-0.3,1.8-0.6,2.7-0.9v-6.9h1.5v6.2c0.8-0.4,1.5-0.8,2.2-1.3v-7.5h1.5v6.3c0.5-0.4,1-0.9,1.4-1.4v-6.6h1.5v4.1
						c0.3-0.8,0.5-1.6,0.5-2.4V248L156.4,248L156.4,248z"/>
					<path class="st12" d="M201.4,248c0,6.6-10.1,11.9-22.5,11.9c-12.4,0-22.5-5.3-22.5-11.9c0-6.6,10.1-11.9,22.5-11.9
						C191.3,236,201.4,241.4,201.4,248z"/>
					<path class="st13" d="M178.9,257.1c-11.4,0-20.3-4.3-20.3-9.8c0-5.5,8.9-9.8,20.3-9.8c11.4,0,20.3,4.3,20.3,9.8
						C199.2,252.9,190.3,257.1,178.9,257.1z M178.9,239c-10.9,0-18.1,4.7-18.1,8.4s7.3,7.6,18.1,7.6c10.8,0,18.1-3.9,18.1-7.6
						C197,243.7,189.7,239,178.9,239z"/>
					<g>
						<path class="st13" d="M178.2,241.4l0,1.6h-5.1l-0.2,1.4h3.5l1.9,1.7l-0.1,2.9l-2.3,2.1h-4.6l-2.4-0.9l1.3-2.2l2,0.7h2.8
							l0.7-0.6l0.1-1.2l-0.6-0.6h-5.1l1.2-4.9L178.2,241.4L178.2,241.4z"/>
						<path class="st13" d="M185.1,241.4l2.2,1.4l1.6,6.1L187,251h-4.9l-2.5-2.1l-0.1-6.1l1.9-1.4H185.1z M181.6,243.3l0.3,3.6
							l2.5-4.1h-2.2L181.6,243.3z M186.3,248.1l-0.7-3.8l-2.5,4.5h2.6L186.3,248.1z"/>
					</g>
				</g>
				<g>
					<path class="st13" d="M156.4,243v3.3c0,6.6,10.1,11.9,22.5,11.9c12.4,0,22.5-5.3,22.5-11.9V243H156.4z"/>
					<path class="st13" d="M156.4,243v3.3c0,0.7,0.1,1.4,0.3,2v-3.7h1.5v6.4c0.4,0.5,0.9,1,1.4,1.4v-6.2h1.5v7.4
						c0.7,0.5,1.4,0.9,2.2,1.3v-6.1h1.5v6.8c0.8,0.4,1.7,0.7,2.7,1v-6.1h1.5v6.6c1.2,0.3,2.4,0.5,3.7,0.7v-5.9h1.5v6.1
						c1.2,0.1,2.5,0.2,3.8,0.2v-6.3h1.5v6.3c1.2,0,2.4-0.1,3.6-0.2v-6.1h1.5v5.9c1.3-0.2,2.5-0.4,3.7-0.7v-6.6h1.5v6.2
						c0.9-0.3,1.8-0.6,2.7-0.9v-6.8h1.5v6.2c0.8-0.4,1.5-0.8,2.2-1.3v-7.5h1.5v6.3c0.5-0.4,1-0.9,1.4-1.4v-6.6h1.5v4.1
						c0.3-0.8,0.5-1.6,0.5-2.4V243L156.4,243L156.4,243z"/>
					<path class="st12" d="M201.4,243c0,6.6-10.1,11.9-22.5,11.9c-12.4,0-22.5-5.3-22.5-11.9c0-6.6,10.1-11.9,22.5-11.9
						C191.3,231,201.4,236.4,201.4,243z"/>
					<path class="st13" d="M178.9,252.2c-11.4,0-20.3-4.3-20.3-9.8c0-5.5,8.9-9.8,20.3-9.8c11.4,0,20.3,4.3,20.3,9.8
						C199.2,247.9,190.3,252.2,178.9,252.2z M178.9,234c-10.9,0-18.1,4.7-18.1,8.4s7.3,7.6,18.1,7.6c10.8,0,18.1-3.9,18.1-7.6
						S189.7,234,178.9,234z"/>
					<g>
						<path class="st13" d="M178.2,236.4l0,1.6h-5.1l-0.2,1.4h3.5l1.9,1.7l-0.1,2.9l-2.3,2.1h-4.6l-2.4-0.9l1.3-2.2l2,0.7h2.8
							l0.7-0.6l0.1-1.2l-0.6-0.6h-5.1l1.2-4.9L178.2,236.4L178.2,236.4z"/>
						<path class="st13" d="M185.1,236.4l2.2,1.4l1.6,6.1L187,246h-4.9l-2.5-2.1l-0.1-6.1l1.9-1.4H185.1z M181.6,238.3l0.3,3.6
							l2.5-4.1h-2.2L181.6,238.3z M186.3,243.1l-0.7-3.8l-2.5,4.5h2.6L186.3,243.1z"/>
					</g>
				</g>
				<g>
					<path class="st13" d="M156.4,238v3.3c0,6.6,10.1,11.9,22.5,11.9c12.4,0,22.5-5.3,22.5-11.9V238L156.4,238L156.4,238z"/>
					<path class="st13" d="M156.4,238v3.3c0,0.7,0.1,1.4,0.3,2v-3.7h1.5v6.4c0.4,0.5,0.9,1,1.4,1.4v-6.2h1.5v7.4
						c0.7,0.5,1.4,0.9,2.2,1.3v-6.1h1.5v6.8c0.8,0.4,1.7,0.7,2.7,1v-6.1h1.5v6.6c1.2,0.3,2.4,0.5,3.7,0.7v-5.9h1.5v6.1
						c1.2,0.1,2.5,0.2,3.8,0.2v-6.3h1.5v6.3c1.2,0,2.4-0.1,3.6-0.2v-6.1h1.5v5.9c1.3-0.2,2.5-0.4,3.7-0.7v-6.6h1.5v6.2
						c0.9-0.3,1.8-0.6,2.7-0.9v-6.9h1.5v6.2c0.8-0.4,1.5-0.8,2.2-1.3v-7.5h1.5v6.3c0.5-0.4,1-0.9,1.4-1.4v-6.6h1.5v4.1
						c0.3-0.8,0.5-1.6,0.5-2.4V238L156.4,238L156.4,238z"/>
					<path class="st12" d="M201.4,238c0,6.6-10.1,11.9-22.5,11.9c-12.4,0-22.5-5.3-22.5-11.9c0-6.6,10.1-11.9,22.5-11.9
						C191.3,226,201.4,231.4,201.4,238z"/>
					<path class="st13" d="M178.9,247.2c-11.4,0-20.3-4.3-20.3-9.8c0-5.5,8.9-9.8,20.3-9.8c11.4,0,20.3,4.3,20.3,9.8
						C199.2,242.9,190.3,247.2,178.9,247.2z M178.9,229c-10.9,0-18.1,4.7-18.1,8.4s7.3,7.6,18.1,7.6c10.8,0,18.1-3.9,18.1-7.6
						C197,233.7,189.7,229,178.9,229z"/>
					<g>
						<path class="st13" d="M178.2,231.4l0,1.6h-5.1l-0.2,1.4h3.5l1.9,1.7l-0.1,2.9l-2.3,2.1h-4.6l-2.4-0.9l1.3-2.2l2,0.7h2.8
							l0.7-0.6l0.1-1.1l-0.6-0.6h-5.1l1.2-4.9L178.2,231.4L178.2,231.4z"/>
						<path class="st13" d="M185.1,231.4l2.2,1.4l1.6,6.1L187,241h-4.9l-2.5-2.1l-0.1-6.1l1.9-1.4H185.1z M181.6,233.3l0.3,3.6
							l2.5-4.1h-2.2L181.6,233.3z M186.3,238.1l-0.7-3.8l-2.5,4.5h2.6L186.3,238.1z"/>
					</g>
				</g>
				<g>
					<path class="st13" d="M156.4,233v3.3c0,6.6,10.1,11.9,22.5,11.9c12.4,0,22.5-5.3,22.5-11.9V233H156.4z"/>
					<path class="st13" d="M156.4,233v3.3c0,0.7,0.1,1.4,0.3,2v-3.7h1.5v6.4c0.4,0.5,0.9,1,1.4,1.4v-6.2h1.5v7.4
						c0.7,0.5,1.4,0.9,2.2,1.3v-6.1h1.5v6.8c0.8,0.4,1.7,0.7,2.7,1v-6.1h1.5v6.6c1.2,0.3,2.4,0.5,3.7,0.7v-5.9h1.5v6.1
						c1.2,0.1,2.5,0.2,3.8,0.2v-6.3h1.5v6.3c1.2,0,2.4-0.1,3.6-0.2v-6.1h1.5v5.9c1.3-0.2,2.5-0.4,3.7-0.7v-6.6h1.5v6.2
						c0.9-0.3,1.8-0.6,2.7-1v-6.8h1.5v6.2c0.8-0.4,1.5-0.8,2.2-1.3v-7.5h1.5v6.3c0.5-0.4,1-0.9,1.4-1.4v-6.6h1.5v4.1
						c0.3-0.8,0.5-1.6,0.5-2.4V233L156.4,233L156.4,233z"/>
					<path class="st12" d="M201.4,233c0,6.6-10.1,11.9-22.5,11.9c-12.4,0-22.5-5.3-22.5-11.9c0-6.6,10.1-11.9,22.5-11.9
						C191.3,221,201.4,226.4,201.4,233z"/>
					<path class="st13" d="M178.9,242.2c-11.4,0-20.3-4.3-20.3-9.8c0-5.5,8.9-9.8,20.3-9.8c11.4,0,20.3,4.3,20.3,9.8
						C199.2,237.9,190.3,242.2,178.9,242.2z M178.9,224c-10.9,0-18.1,4.7-18.1,8.4c0,3.7,7.3,7.6,18.1,7.6c10.8,0,18.1-3.9,18.1-7.6
						C197,228.7,189.7,224,178.9,224z"/>
					<g>
						<path class="st13" d="M178.2,226.4l0,1.6h-5.1l-0.2,1.4h3.5l1.9,1.7l-0.1,2.9l-2.3,2.1h-4.6l-2.4-0.9l1.3-2.2l2,0.7h2.8
							l0.7-0.6l0.1-1.2l-0.6-0.6h-5.1l1.2-4.9H178.2z"/>
						<path class="st13" d="M185.1,226.4l2.2,1.4l1.6,6.1L187,236h-4.9l-2.5-2.1l-0.1-6.1l1.9-1.4H185.1z M181.6,228.3l0.3,3.6
							l2.5-4.1h-2.2L181.6,228.3z M186.3,233.1l-0.7-3.8l-2.5,4.5h2.6L186.3,233.1z"/>
					</g>
				</g>
				<g>
					<path class="st13" d="M156.4,228v3.3c0,6.6,10.1,11.9,22.5,11.9c12.4,0,22.5-5.3,22.5-11.9V228L156.4,228L156.4,228z"/>
					<path class="st13" d="M156.4,228v3.3c0,0.7,0.1,1.4,0.3,2v-3.7h1.5v6.4c0.4,0.5,0.9,1,1.4,1.4v-6.2h1.5v7.4
						c0.7,0.5,1.4,0.9,2.2,1.3v-6.1h1.5v6.8c0.8,0.4,1.7,0.7,2.7,1v-6.1h1.5v6.6c1.2,0.3,2.4,0.5,3.7,0.7v-5.9h1.5v6.1
						c1.2,0.1,2.5,0.2,3.8,0.2v-6.3h1.5v6.3c1.2,0,2.4-0.1,3.6-0.2v-6.1h1.5v5.9c1.3-0.2,2.5-0.4,3.7-0.7v-6.6h1.5v6.2
						c0.9-0.3,1.8-0.6,2.7-0.9v-6.9h1.5v6.2c0.8-0.4,1.5-0.8,2.2-1.3v-7.5h1.5v6.3c0.5-0.4,1-0.9,1.4-1.4v-6.6h1.5v4.1
						c0.3-0.8,0.5-1.6,0.5-2.4V228L156.4,228L156.4,228z"/>
					<path class="st12" d="M201.4,228c0,6.6-10.1,11.9-22.5,11.9c-12.4,0-22.5-5.3-22.5-11.9s10.1-11.9,22.5-11.9
						C191.3,216,201.4,221.4,201.4,228z"/>
					<path class="st13" d="M178.9,237.2c-11.4,0-20.3-4.3-20.3-9.8c0-5.5,8.9-9.8,20.3-9.8c11.4,0,20.3,4.3,20.3,9.8
						C199.2,232.9,190.3,237.2,178.9,237.2z M178.9,219.1c-10.9,0-18.1,4.7-18.1,8.4c0,3.7,7.3,7.6,18.1,7.6
						c10.8,0,18.1-3.9,18.1-7.6C197,223.8,189.7,219.1,178.9,219.1z"/>
					<g>
						<path class="st13" d="M178.2,221.4l0,1.6h-5.1l-0.2,1.4h3.5l1.9,1.6l-0.1,2.9l-2.3,2.1h-4.6l-2.4-0.9l1.3-2.2l2,0.7h2.8
							l0.7-0.6l0.1-1.2l-0.6-0.6h-5.1l1.2-4.9L178.2,221.4L178.2,221.4z"/>
						<path class="st13" d="M185.1,221.4l2.2,1.4l1.6,6.1L187,231h-4.9l-2.5-2.1l-0.1-6.1l1.9-1.4H185.1z M181.6,223.4l0.3,3.6
							l2.5-4.1h-2.2L181.6,223.4z M186.3,228.1l-0.7-3.8l-2.5,4.5h2.6L186.3,228.1z"/>
					</g>
				</g>
				<g>
					<path class="st13" d="M156.4,223v3.3c0,6.6,10.1,11.9,22.5,11.9c12.4,0,22.5-5.3,22.5-11.9V223H156.4z"/>
					<path class="st13" d="M156.4,223v3.3c0,0.7,0.1,1.4,0.3,2v-3.7h1.5v6.4c0.4,0.5,0.9,1,1.4,1.4v-6.2h1.5v7.4
						c0.7,0.5,1.4,0.9,2.2,1.3v-6.1h1.5v6.8c0.8,0.4,1.7,0.7,2.7,1v-6.1h1.5v6.6c1.2,0.3,2.4,0.5,3.7,0.7v-5.9h1.5v6.1
						c1.2,0.1,2.5,0.2,3.8,0.2v-6.3h1.5v6.3c1.2,0,2.4-0.1,3.6-0.2v-6.1h1.5v5.9c1.3-0.2,2.5-0.4,3.7-0.7v-6.6h1.5v6.2
						c0.9-0.3,1.8-0.6,2.7-1v-6.8h1.5v6.2c0.8-0.4,1.5-0.8,2.2-1.3v-7.5h1.5v6.3c0.5-0.4,1-0.9,1.4-1.4v-6.6h1.5v4.1
						c0.3-0.8,0.5-1.6,0.5-2.4V223L156.4,223L156.4,223z"/>
					<path class="st12" d="M201.4,223c0,6.6-10.1,11.9-22.5,11.9c-12.4,0-22.5-5.3-22.5-11.9c0-6.6,10.1-11.9,22.5-11.9
						C191.3,211.1,201.4,216.4,201.4,223z"/>
					<path class="st13" d="M178.9,232.2c-11.4,0-20.3-4.3-20.3-9.8c0-5.5,8.9-9.8,20.3-9.8c11.4,0,20.3,4.3,20.3,9.8
						C199.2,227.9,190.3,232.2,178.9,232.2z M178.9,214.1c-10.9,0-18.1,4.7-18.1,8.4c0,3.7,7.3,7.6,18.1,7.6
						c10.8,0,18.1-3.9,18.1-7.6C197,218.8,189.7,214.1,178.9,214.1z"/>
					<g>
						<path class="st13" d="M178.2,216.4l0,1.6h-5.1l-0.2,1.4h3.5l1.9,1.7l-0.1,2.9l-2.3,2.1h-4.6l-2.4-0.9l1.3-2.2l2,0.7h2.8
							l0.7-0.6l0.1-1.2l-0.6-0.6h-5.1l1.2-4.9L178.2,216.4L178.2,216.4z"/>
						<path class="st13" d="M185.1,216.4l2.2,1.4l1.6,6.1L187,226h-4.9l-2.5-2.1l-0.1-6.1l1.9-1.4H185.1z M181.6,218.4l0.3,3.6
							l2.5-4.1h-2.2L181.6,218.4z M186.3,223.1l-0.7-3.8l-2.5,4.5h2.6L186.3,223.1z"/>
					</g>
				</g>
				<g>
					<path class="st13" d="M156.4,218v3.3c0,6.6,10.1,11.9,22.5,11.9c12.4,0,22.5-5.3,22.5-11.9V218H156.4z"/>
					<path class="st13" d="M156.4,218v3.3c0,0.7,0.1,1.4,0.3,2v-3.7h1.5v6.4c0.4,0.5,0.9,1,1.4,1.4v-6.2h1.5v7.4
						c0.7,0.5,1.4,0.9,2.2,1.3v-6.1h1.5v6.8c0.8,0.4,1.7,0.7,2.7,1v-6.1h1.5v6.6c1.2,0.3,2.4,0.5,3.7,0.7v-5.9h1.5v6.1
						c1.2,0.1,2.5,0.2,3.8,0.2v-6.3h1.5v6.3c1.2,0,2.4-0.1,3.6-0.2v-6.1h1.5v5.9c1.3-0.2,2.5-0.4,3.7-0.7v-6.6h1.5v6.2
						c0.9-0.3,1.8-0.6,2.7-0.9v-6.9h1.5v6.2c0.8-0.4,1.5-0.8,2.2-1.3v-7.5h1.5v6.3c0.5-0.4,1-0.9,1.4-1.4v-6.6h1.5v4.1
						c0.3-0.8,0.5-1.6,0.5-2.4V218L156.4,218L156.4,218z"/>
					<path class="st12" d="M201.4,218c0,6.6-10.1,11.9-22.5,11.9c-12.4,0-22.5-5.3-22.5-11.9c0-6.6,10.1-11.9,22.5-11.9
						C191.3,206.1,201.4,211.4,201.4,218z"/>
					<path class="st13" d="M178.9,227.2c-11.4,0-20.3-4.3-20.3-9.8c0-5.5,8.9-9.8,20.3-9.8c11.4,0,20.3,4.3,20.3,9.8
						C199.2,222.9,190.3,227.2,178.9,227.2z M178.9,209.1c-10.9,0-18.1,4.7-18.1,8.4c0,3.7,7.3,7.6,18.1,7.6
						c10.8,0,18.1-3.9,18.1-7.6C197,213.8,189.7,209.1,178.9,209.1z"/>
					<g>
						<path class="st13" d="M178.2,211.4l0,1.6h-5.1l-0.2,1.4h3.5l1.9,1.7l-0.1,2.9l-2.3,2.1h-4.6l-2.4-0.9l1.3-2.2l2,0.7h2.8
							l0.7-0.6l0.1-1.2l-0.6-0.6h-5.1l1.2-4.9L178.2,211.4L178.2,211.4z"/>
						<path class="st13" d="M185.1,211.4l2.2,1.4l1.6,6.1l-1.9,2.1h-4.9l-2.5-2.1l-0.1-6.1l1.9-1.4H185.1z M181.6,213.4l0.3,3.6
							l2.5-4.1h-2.2L181.6,213.4z M186.3,218.1l-0.7-3.8l-2.5,4.5h2.6L186.3,218.1z"/>
					</g>
				</g>
				<g>
					<path class="st13" d="M156.4,213v3.3c0,6.6,10.1,11.9,22.5,11.9c12.4,0,22.5-5.3,22.5-11.9V213L156.4,213L156.4,213z"/>
					<path class="st13" d="M156.4,213v3.3c0,0.7,0.1,1.4,0.3,2v-3.7h1.5v6.4c0.4,0.5,0.9,1,1.4,1.4v-6.2h1.5v7.4
						c0.7,0.5,1.4,0.9,2.2,1.3v-6.1h1.5v6.8c0.8,0.4,1.7,0.7,2.7,1v-6.1h1.5v6.6c1.2,0.3,2.4,0.5,3.7,0.7v-5.9h1.5v6.1
						c1.2,0.1,2.5,0.2,3.8,0.2v-6.3h1.5v6.3c1.2,0,2.4-0.1,3.6-0.2v-6.1h1.5v5.9c1.3-0.2,2.5-0.4,3.7-0.7v-6.6h1.5v6.2
						c0.9-0.3,1.8-0.6,2.7-0.9v-6.8h1.5v6.2c0.8-0.4,1.5-0.8,2.2-1.3v-7.5h1.5v6.3c0.5-0.4,1-0.9,1.4-1.4v-6.6h1.5v4.1
						c0.3-0.8,0.5-1.6,0.5-2.4V213H156.4z"/>
					<path class="st12" d="M201.4,213c0,6.6-10.1,11.9-22.5,11.9c-12.4,0-22.5-5.3-22.5-11.9c0-6.6,10.1-11.9,22.5-11.9
						C191.3,201.1,201.4,206.4,201.4,213z"/>
					<path class="st13" d="M178.9,222.2c-11.4,0-20.3-4.3-20.3-9.8c0-5.5,8.9-9.8,20.3-9.8c11.4,0,20.3,4.3,20.3,9.8
						C199.2,217.9,190.3,222.2,178.9,222.2z M178.9,204.1c-10.9,0-18.1,4.7-18.1,8.4s7.3,7.6,18.1,7.6c10.8,0,18.1-3.9,18.1-7.6
						C197,208.8,189.7,204.1,178.9,204.1z"/>
					<g>
						<path class="st13" d="M178.2,206.5l0,1.6h-5.1l-0.2,1.4h3.5l1.9,1.7l-0.1,2.9l-2.3,2.1h-4.6l-2.4-0.9l1.3-2.2l2,0.7h2.8
							l0.7-0.6l0.1-1.2l-0.6-0.6h-5.1l1.2-4.9H178.2z"/>
						<path class="st13" d="M185.1,206.5l2.2,1.4l1.6,6.1l-1.9,2.1h-4.9l-2.5-2.1l-0.1-6.1l1.9-1.4H185.1z M181.6,208.4l0.3,3.6
							l2.5-4.1h-2.2L181.6,208.4z M186.3,213.1l-0.7-3.8l-2.5,4.5h2.6L186.3,213.1z"/>
					</g>
				</g>
				<g>
					<path class="st13" d="M156.4,208v3.3c0,6.6,10.1,11.9,22.5,11.9c12.4,0,22.5-5.3,22.5-11.9V208H156.4z"/>
					<path class="st13" d="M156.4,208v3.3c0,0.7,0.1,1.4,0.3,2v-3.7h1.5v6.4c0.4,0.5,0.9,1,1.4,1.4v-6.2h1.5v7.4
						c0.7,0.5,1.4,0.9,2.2,1.3v-6.1h1.5v6.8c0.8,0.4,1.7,0.7,2.7,1v-6.1h1.5v6.6c1.2,0.3,2.4,0.5,3.7,0.7v-5.9h1.5v6.1
						c1.2,0.1,2.5,0.2,3.8,0.2v-6.3h1.5v6.3c1.2,0,2.4-0.1,3.6-0.2v-6.1h1.5v5.9c1.3-0.2,2.5-0.4,3.7-0.7v-6.6h1.5v6.2
						c0.9-0.3,1.8-0.6,2.7-0.9v-6.9h1.5v6.2c0.8-0.4,1.5-0.8,2.2-1.3v-7.5h1.5v6.3c0.5-0.4,1-0.9,1.4-1.4v-6.6h1.5v4.1
						c0.3-0.8,0.5-1.6,0.5-2.4V208L156.4,208L156.4,208z"/>
					<path class="st12" d="M201.4,208c0,6.6-10.1,11.9-22.5,11.9c-12.4,0-22.5-5.3-22.5-11.9c0-6.6,10.1-11.9,22.5-11.9
						C191.3,196.1,201.4,201.4,201.4,208z"/>
					<path class="st13" d="M178.9,217.2c-11.4,0-20.3-4.3-20.3-9.8c0-5.5,8.9-9.8,20.3-9.8c11.4,0,20.3,4.3,20.3,9.8
						C199.2,212.9,190.3,217.2,178.9,217.2z M178.9,199.1c-10.9,0-18.1,4.7-18.1,8.4s7.3,7.6,18.1,7.6c10.8,0,18.1-3.9,18.1-7.6
						S189.7,199.1,178.9,199.1z"/>
					<g>
						<path class="st13" d="M178.2,201.5l0,1.6h-5.1l-0.2,1.4h3.5l1.9,1.7l-0.1,2.9l-2.3,2.1h-4.6l-2.4-0.9l1.3-2.2l2,0.7h2.8
							l0.7-0.6l0.1-1.2l-0.6-0.6h-5.1l1.2-4.9L178.2,201.5L178.2,201.5z"/>
						<path class="st13" d="M185.1,201.5l2.2,1.4l1.6,6.1l-1.9,2.1h-4.9l-2.5-2.1l-0.1-6.1l1.9-1.4H185.1z M181.6,203.4l0.3,3.6
							l2.5-4.1h-2.2L181.6,203.4z M186.3,208.2l-0.7-3.8l-2.5,4.5h2.6L186.3,208.2z"/>
					</g>
				</g>
				<g>
					<path class="st13" d="M156.4,203v3.3c0,6.6,10.1,11.9,22.5,11.9c12.4,0,22.5-5.3,22.5-11.9V203H156.4z"/>
					<path class="st13" d="M156.4,203v3.3c0,0.7,0.1,1.4,0.3,2v-3.7h1.5v6.4c0.4,0.5,0.9,1,1.4,1.4v-6.2h1.5v7.4
						c0.7,0.5,1.4,0.9,2.2,1.3v-6.1h1.5v6.8c0.8,0.4,1.7,0.7,2.7,1v-6.1h1.5v6.6c1.2,0.3,2.4,0.5,3.7,0.7v-5.9h1.5v6.1
						c1.2,0.1,2.5,0.2,3.8,0.2v-6.3h1.5v6.3c1.2,0,2.4-0.1,3.6-0.2v-6.1h1.5v5.9c1.3-0.2,2.5-0.4,3.7-0.7v-6.6h1.5v6.2
						c0.9-0.3,1.8-0.6,2.7-0.9v-6.8h1.5v6.2c0.8-0.4,1.5-0.8,2.2-1.3v-7.5h1.5v6.3c0.5-0.4,1-0.9,1.4-1.4v-6.6h1.5v4.1
						c0.3-0.8,0.5-1.6,0.5-2.4V203L156.4,203L156.4,203z"/>
					<path class="st12" d="M201.4,203c0,6.6-10.1,11.9-22.5,11.9c-12.4,0-22.5-5.3-22.5-11.9c0-6.6,10.1-11.9,22.5-11.9
						C191.3,191.1,201.4,196.4,201.4,203z"/>
					<path class="st13" d="M178.9,212.2c-11.4,0-20.3-4.3-20.3-9.8c0-5.5,8.9-9.8,20.3-9.8c11.4,0,20.3,4.3,20.3,9.8
						C199.2,208,190.3,212.2,178.9,212.2z M178.9,194.1c-10.9,0-18.1,4.7-18.1,8.4c0,3.7,7.3,7.6,18.1,7.6c10.8,0,18.1-3.9,18.1-7.6
						C197,198.8,189.7,194.1,178.9,194.1z"/>
				</g>
			</g>
		</g>
	</g>
</g>
</svg>
