<svg id="Layer_1" data-name="Layer 1" xmlns="http://www.w3.org/2000/svg" viewBox="0 0 73.72 69.26"><defs><style>.cls-1{fill:#a0a0a0;}.cls-2{fill:#009632;}.cls-3{fill:#aadc78;}.cls-4{fill:#b4e682;}.cls-5{fill:#b4b4b4;}</style></defs><title>оптимизация</title><path class="cls-1" d="M373.49,70.42s1.39-11.48-11.87-5.64c-8.89,3.91-7,15.3.39,13.27,5-1.38,12.29-6.22,16.06-7.7,5.72-2.24,12.49-4.16,20.83-9.69,8-5.28,13.67-16.71,13.67-16.71Zm-6.73,3.7c-3.45,1.82-7.08,1.68-8.12-.29s.91-5,4.35-6.86,7.08-1.68,8.12.29S370.2,72.31,366.76,74.12Z" transform="translate(-355.67 -21.87)"/><rect class="cls-2" x="384.68" y="24.73" width="30.24" height="53.46" transform="translate(-274.96 275.91) rotate(-45)"/><path class="cls-3" d="M421.92,54.49,396.77,29.35a9.09,9.09,0,0,1-10.36,0l-8.73,8.72a9.11,9.11,0,0,1,0,10.37l25.15,25.14a9.09,9.09,0,0,1,10.36,0l8.73-8.72A9.11,9.11,0,0,1,421.92,54.49Z" transform="translate(-355.67 -21.87)"/><path class="cls-2" d="M408.1,59.77c-3.43,3.42-9.92,2.48-14.51-2.1s-5.52-11.08-2.09-14.51,9.92-2.49,14.5,2.1S411.53,56.34,408.1,59.77Z" transform="translate(-355.67 -21.87)"/><path class="cls-2" d="M389.46,41.13a2.46,2.46,0,1,1,0-3.48A2.46,2.46,0,0,1,389.46,41.13Z" transform="translate(-355.67 -21.87)"/><path class="cls-2" d="M413.62,65.28a2.46,2.46,0,1,1,0-3.48A2.46,2.46,0,0,1,413.62,65.28Z" transform="translate(-355.67 -21.87)"/><path class="cls-4" d="M393.67,56.31l1.24-1.23a11.77,11.77,0,0,1-1.34-1.8c-.29-.51-.51-.94-.68-1.3l2-2,2.27,2.27a1,1,0,0,0-.33.58c0,.19.1.41.36.67a1.2,1.2,0,0,0,.59.38.49.49,0,0,0,.45-.17.48.48,0,0,0,.14-.37,2.45,2.45,0,0,0-.23-.73q-.48-1.05-.78-1.89a5.65,5.65,0,0,1-.37-1.53,2.76,2.76,0,0,1,.19-1.31,3.71,3.71,0,0,1,.85-1.22,4,4,0,0,1,1.06-.78,2.53,2.53,0,0,1,1.18-.28,3.24,3.24,0,0,1,1.33.29,6.65,6.65,0,0,1,1.52,1l1.19-1.19L405.7,47l-1.17,1.17a10.5,10.5,0,0,1,.76,1,9.23,9.23,0,0,1,.52.84q.22.39.39.75a4.32,4.32,0,0,1,.22.62l-1.85,1.85L402.41,51a.63.63,0,0,0,.24-.57,1.1,1.1,0,0,0-.29-.51,1.4,1.4,0,0,0-.58-.4.46.46,0,0,0-.45.15.39.39,0,0,0-.1.42,5.6,5.6,0,0,0,.29.67c.27.53.51,1,.72,1.54a5.18,5.18,0,0,1,.39,1.47,3.3,3.3,0,0,1-.13,1.4,3.48,3.48,0,0,1-.89,1.35,3.42,3.42,0,0,1-2.53,1.15,4.69,4.69,0,0,1-2.81-1.25L395,57.66Z" transform="translate(-355.67 -21.87)"/><path class="cls-5" d="M376.38,73.31l26.48-39.08s-11.44,5.69-16.73,13.67c-5.52,8.34-7.44,15.1-9.68,20.83-1.48,3.77-6.32,11-7.7,16.06-2,7.43,9.36,9.28,13.27.4C387.86,71.92,376.38,73.31,376.38,73.31Zm3.45,10.5C378,87.25,375,89.2,373,88.16s-2.1-4.67-.29-8.12,4.88-5.39,6.86-4.35S381.64,80.36,379.83,83.81Z" transform="translate(-355.67 -21.87)"/><path class="cls-1" d="M378.37,69.46a.75.75,0,1,1,0-1.07A.77.77,0,0,1,378.37,69.46Z" transform="translate(-355.67 -21.87)"/></svg>