<svg id="Layer_1" data-name="Layer 1" xmlns="http://www.w3.org/2000/svg" viewBox="0 0 519.37 511.39"><defs><style>.cls-1{fill:#fff;}.cls-2{fill:#8b8589;}.cls-3{fill:#eca9a1;}.cls-4{fill:#85d1f1;}.cls-5{fill:#c9dc56;}.cls-6{fill:#f6bf5a;}.cls-7{fill:#c2c2c2;}.cls-8{fill:#fed6b7;}</style></defs><title>отчет</title><rect class="cls-1" x="73.13" width="391.96" height="458.98"/><rect class="cls-2" x="95.59" y="320" width="168.43" height="9.96"/><rect class="cls-2" x="95.59" y="335.45" width="168.43" height="9.96"/><rect class="cls-2" x="95.59" y="350.91" width="168.43" height="9.96"/><rect class="cls-2" x="95.59" y="366.36" width="168.43" height="9.96"/><rect class="cls-2" x="95.59" y="381.81" width="168.43" height="9.96"/><rect class="cls-2" x="95.59" y="397.27" width="168.43" height="9.96"/><rect class="cls-2" x="95.59" y="412.72" width="168.43" height="9.96"/><rect class="cls-2" x="95.59" y="428.17" width="168.43" height="9.96"/><rect class="cls-2" x="282.34" y="320" width="168.44" height="9.96"/><rect class="cls-2" x="282.34" y="335.45" width="168.44" height="9.96"/><rect class="cls-2" x="282.34" y="350.91" width="168.44" height="9.96"/><rect class="cls-2" x="282.34" y="366.36" width="168.44" height="9.96"/><rect class="cls-2" x="282.34" y="381.81" width="168.44" height="9.96"/><rect class="cls-2" x="282.34" y="397.27" width="168.44" height="9.96"/><rect class="cls-2" x="282.34" y="412.72" width="168.44" height="9.96"/><rect class="cls-2" x="282.34" y="428.17" width="168.44" height="9.96"/><rect class="cls-3" x="95.59" y="255.24" width="31.01" height="22.77"/><rect class="cls-4" x="95.59" y="288.37" width="31.01" height="22.77"/><rect class="cls-5" x="277.01" y="255.24" width="31" height="22.77"/><rect class="cls-6" x="277.01" y="288.37" width="31" height="22.77"/><rect class="cls-7" x="143.35" y="262.36" width="36.45" height="9.25"/><rect class="cls-7" x="143.35" y="296.51" width="36.45" height="8.54"/><rect class="cls-7" x="321.05" y="262.36" width="36.45" height="9.25"/><rect class="cls-7" x="321.05" y="296.51" width="36.45" height="8.54"/><path class="cls-2" d="M3702.83,3488.5a68.77,68.77,0,0,1,8.77-.51c5.45,0,9,.84,11.75,2.61a10.24,10.24,0,0,1,4.86,9.19,11.6,11.6,0,0,1-4.77,9.87c-3,2.14-7.63,3.15-13.25,3.15a63.36,63.36,0,0,1-7.36-.37Zm6.51,19.89a13.92,13.92,0,0,0,2.26.11c5.88,0,9.71-2.71,9.71-8.54,0-5.06-3.45-7.74-9-7.74a15.75,15.75,0,0,0-2.94.22Z" transform="translate(-3479.57 -3456.23)"/><path class="cls-2" d="M3738.48,3506.3l-2.05,6.25h-6.73l8.78-24.37H3747l8.9,24.37h-7l-2.22-6.25Zm7.27-4.13L3744,3497c-.51-1.44-1-3.25-1.45-4.71h-.09c-.42,1.46-.84,3.3-1.32,4.71l-1.7,5.17Z" transform="translate(-3479.57 -3456.23)"/><path class="cls-2" d="M3761.73,3492.8H3754v-4.62h22.06v4.62h-7.84v19.75h-6.51Z" transform="translate(-3479.57 -3456.23)"/><path class="cls-2" d="M3783.16,3506.3l-2,6.25h-6.73l8.78-24.37h8.51l8.9,24.37h-7l-2.22-6.25Zm7.27-4.13-1.78-5.17c-.51-1.44-1-3.25-1.45-4.71h-.08c-.43,1.46-.86,3.3-1.33,4.71l-1.71,5.17Z" transform="translate(-3479.57 -3456.23)"/><path class="cls-2" d="M3570.85,3532.85V3698h359.49v-165.1Zm221.82,7.63h56v31.05h-56Zm-137.63,0h56v31.05h-56Zm-12.94,149.75H3583v-29.12h40l-.24.13h18.87l.23-.13h.18Zm0-39.84-1.42.81v2.24H3583l0-33.26h1.72v-.08h56v.08h1.42Zm0-37.91H3583v-33.29h59.11Zm0-40.95H3583v-31.05h59.11Zm68.86,118.7h-56v-29.12h56Zm.14-36.79h-56V3643l-.14.08v-22.9h.14v-.08h56Zm0-41h-2.27l-.08.05H3655v-33.26H3711v2.16h.16Zm68.7,77.8h-56v-29.12h56Zm0-36.79h-56v-32.75h0v-.59h56v13.73h0Zm0-41h-55.67l-.32,0v-33.25h56Zm0-40.95h-56v-31.05h56Zm68.82,118.7h-56v-29.12h56Zm.3-39h-.3v2.22h-56v-16.6l.34.08v-8.24l-.34-.08v-8.42H3849Zm-.3-38.74h-56v-33.29h56v33.29Zm68.8,77.75h-55.93v-29.12h55.93Zm0-36.79h-55.93v-33.26h55.93Zm.91-43.07,0,2.15-.93,0h-55.93v-33.29h10.84l-.12.13h15.08l.12-.13h30v.13h.91Zm0-38.84h-.91v0h-22.22l0,0h-33.73v-31.05h56.84Z" transform="translate(-3479.57 -3456.23)"/><polygon class="cls-3" points="103 232.07 98.33 226.92 167.75 181.55 206.56 197.61 273.72 156.75 307.17 181.67 356.71 114.96 445.41 184.23 440.23 189.01 358.29 125.02 308.86 191.57 273.24 165.04 207.32 205.15 168.66 189.16 103 232.07"/><polygon class="cls-4" points="341.26 179.87 266.61 136.75 217.94 154.53 189.19 151.58 138.17 171.57 99.2 179.25 97.47 172.91 135.67 165.4 187.95 144.91 216.81 147.86 267.44 129.37 341.77 172.29 443.63 126.81 447.19 132.56 341.26 179.87"/><polygon class="cls-5" points="202.34 219.4 135.81 186.94 97.31 203.44 93.86 197.63 136.04 179.55 202.6 212.03 272.37 182.55 328.49 207.36 402.09 170.49 444.41 160.71 446.42 166.98 405.09 176.54 328.72 214.79 272.29 189.84 202.34 219.4"/><polygon class="cls-6" points="99.13 214.43 95.81 208.57 197.82 167.06 219.74 174.06 321.41 103.74 358.07 137.24 443.26 88.21 447.55 93.58 356.94 145.75 320.68 112.63 221.16 181.47 198.18 174.12 99.13 214.43"/><rect class="cls-2" x="91.29" y="89.15" width="12.17" height="146.96"/><rect class="cls-2" x="437.67" y="76.62" width="13.11" height="165.1"/><path class="cls-8" d="M3632.08,3638.84c-23.51-5.78-29.69,20.37-29.69,20.37l-24.92,93.93s-13.83,7.9-24.7,4.44c-2.08-.66-1.53-4.71.71-10.78v-66.45c-20.74,17.73-50,42.94-54.39,55-3.52,9.67-4.78,29.52-5.5,55.5-.55,19.61-.79,42.72-1.46,67.6-.28,10.82-5,24-12.56,38.2l68.32,63.89a26.37,26.37,0,0,0,26.46,5.71c35.64-25.91,26.93-37.19,37.25-56.35,10.8-20.05,30-70.89,26.17-120.23-3.76-48.09.45-36.06,8.51-89.68.22-1.39.43-2.79.64-4.27C3655.41,3637.11,3632.08,3638.84,3632.08,3638.84Z" transform="translate(-3479.57 -3456.23)"/><path class="cls-8" d="M3998.75,3908.62h0c-.86-6.65-1.6-14.51-2.07-23.74-2.08-41.24,6.26-57.5-.41-86.65s-18.75-15.41-31.66-27.91-19.58-4.58-37.5-9.17-12.91-16.25-28.73-28.32-29.57,1.65-29.57,1.65-21.24-62.06-32.91-94.14-27.06-31.67-33.29-15,26.3,103.73,29.21,127.89,3.43,80.4,3.43,80.4c-8.54-12.49-12.29-23.35-18.12-45.85s-31.66-39.19-47.49-29.19,1.66,6.59,5,34.91c2.8,23.79,5,19.91,14,44.13,1.73,4.65,3.7,10.32,6,17.42.46,1.42.91,2.79,1.36,4.11,12.91,38,23.72,37.1,53.43,70.61l19.69,26a8.86,8.86,0,0,0,8.48,2.79l100.44-21.71a26.39,26.39,0,0,0,20.68-28.27Z" transform="translate(-3479.57 -3456.23)"/></svg>