<?xml version="1.0" encoding="utf-8"?>
<!-- Generator: Adobe Illustrator 22.1.0, SVG Export Plug-In . SVG Version: 6.00 Build 0)  -->
<svg version="1.1" id="_x39_" xmlns="http://www.w3.org/2000/svg" xmlns:xlink="http://www.w3.org/1999/xlink" x="0px" y="0px"
	 viewBox="0 0 320.8 292" style="enable-background:new 0 0 320.8 292;" xml:space="preserve">
<style type="text/css">
	.st0{fill:#3387E2;}
	.st1{fill:#FFA300;}
	.st2{fill:#573608;}
	.st3{clip-path:url(#SVGID_2_);}
	.st4{fill:#3D1600;}
	.st5{fill:#F8B400;}
	.st6{fill:#FBD900;}
	.st7{fill:#30ABD6;}
	.st8{fill:#606060;}
	.st9{fill:#492C14;}
	.st10{fill:#B5B5B5;}
</style>
<g>
	<polygon class="st0" points="27.5,134.8 27.5,126.4 37.1,134.8 	"/>
	<path class="st0" d="M92.1,126.4c0,4.7-3.8,8.5-8.5,8.5H36c-4.7,0-8.5-3.8-8.5-8.5l0,0c0-4.7,3.8-8.5,8.5-8.5h47.6
		C88.3,117.9,92.1,121.7,92.1,126.4L92.1,126.4z"/>
	<path class="st1" d="M92.1,178.6c0,4.7-3.8,8.5-8.5,8.5H36c-4.7,0-8.5-3.8-8.5-8.5c0-2.3,1-4.4,2.5-6c1.5-1.5,3.6-2.5,6-2.5h47.6
		C88.3,170.1,92.1,173.9,92.1,178.6z"/>
	<g id="XMLID_6037_">
		<g id="XMLID_6050_">
			<g>
				<path id="XMLID_6051_" class="st2" d="M165.6,211.5c36.1,0,65.5-29.4,65.5-65.5c0-36.1-29.4-65.5-65.5-65.5
					c-36.1,0-65.5,29.4-65.5,65.5C100.1,182.1,129.6,211.5,165.6,211.5z"/>
			</g>
			<g>
				<g>
					<defs>
						<path id="SVGID_1_" d="M165.6,211.5c36.1,0,65.5-29.4,65.5-65.5c0-36.1-29.4-65.5-65.5-65.5c-36.1,0-65.5,29.4-65.5,65.5
							C100.1,182.1,129.6,211.5,165.6,211.5z"/>
					</defs>
					<clipPath id="SVGID_2_">
						<use xlink:href="#SVGID_1_"  style="overflow:visible;"/>
					</clipPath>
					<g id="XMLID_6052_" class="st3">
						<path id="XMLID_6053_" class="st4" d="M104.6,86.4c2,0,3.5,1.6,3.5,3.5c0,2-1.6,3.5-3.5,3.5s-3.5-1.6-3.5-3.5
							C101,88,102.6,86.4,104.6,86.4L104.6,86.4z M225.1,193.7c2,0,3.5,1.6,3.5,3.5s-1.6,3.5-3.5,3.5s-3.5-1.6-3.5-3.5
							S223.2,193.7,225.1,193.7L225.1,193.7z M207.9,193.7c2,0,3.5,1.6,3.5,3.5s-1.6,3.5-3.5,3.5s-3.5-1.6-3.5-3.5
							S205.9,193.7,207.9,193.7L207.9,193.7z M190.7,193.7c2,0,3.5,1.6,3.5,3.5s-1.6,3.5-3.5,3.5s-3.5-1.6-3.5-3.5
							S188.7,193.7,190.7,193.7L190.7,193.7z M173.5,193.7c2,0,3.5,1.6,3.5,3.5s-1.6,3.5-3.5,3.5c-2,0-3.5-1.6-3.5-3.5
							C169.9,195.3,171.5,193.7,173.5,193.7L173.5,193.7z M156.2,193.7c2,0,3.5,1.6,3.5,3.5s-1.6,3.5-3.5,3.5c-2,0-3.5-1.6-3.5-3.5
							S154.3,193.7,156.2,193.7L156.2,193.7z M139,193.7c2,0,3.5,1.6,3.5,3.5s-1.6,3.5-3.5,3.5c-2,0-3.5-1.6-3.5-3.5
							C135.5,195.3,137.1,193.7,139,193.7L139,193.7z M121.8,193.7c2,0,3.5,1.6,3.5,3.5s-1.6,3.5-3.5,3.5s-3.5-1.6-3.5-3.5
							S119.8,193.7,121.8,193.7L121.8,193.7z M104.6,193.7c2,0,3.5,1.6,3.5,3.5s-1.6,3.5-3.5,3.5s-3.5-1.6-3.5-3.5
							S102.6,193.7,104.6,193.7L104.6,193.7z M225.1,178.4c2,0,3.5,1.6,3.5,3.5c0,2-1.6,3.5-3.5,3.5s-3.5-1.6-3.5-3.5
							S223.2,178.4,225.1,178.4L225.1,178.4z M207.9,178.4c2,0,3.5,1.6,3.5,3.5c0,2-1.6,3.5-3.5,3.5s-3.5-1.6-3.5-3.5
							S205.9,178.4,207.9,178.4L207.9,178.4z M190.7,178.4c2,0,3.5,1.6,3.5,3.5c0,2-1.6,3.5-3.5,3.5s-3.5-1.6-3.5-3.5
							S188.7,178.4,190.7,178.4L190.7,178.4z M173.5,178.4c2,0,3.5,1.6,3.5,3.5c0,2-1.6,3.5-3.5,3.5c-2,0-3.5-1.6-3.5-3.5
							C169.9,180,171.5,178.4,173.5,178.4L173.5,178.4z M156.2,178.4c2,0,3.5,1.6,3.5,3.5c0,2-1.6,3.5-3.5,3.5c-2,0-3.5-1.6-3.5-3.5
							S154.3,178.4,156.2,178.4L156.2,178.4z M139,178.4c2,0,3.5,1.6,3.5,3.5c0,2-1.6,3.5-3.5,3.5c-2,0-3.5-1.6-3.5-3.5
							C135.5,180,137.1,178.4,139,178.4L139,178.4z M121.8,178.4c2,0,3.5,1.6,3.5,3.5c0,2-1.6,3.5-3.5,3.5s-3.5-1.6-3.5-3.5
							S119.8,178.4,121.8,178.4L121.8,178.4z M104.6,178.4c2,0,3.5,1.6,3.5,3.5c0,2-1.6,3.5-3.5,3.5s-3.5-1.6-3.5-3.5
							S102.6,178.4,104.6,178.4L104.6,178.4z M225.1,163.1c2,0,3.5,1.6,3.5,3.5s-1.6,3.5-3.5,3.5s-3.5-1.6-3.5-3.5
							C221.6,164.7,223.2,163.1,225.1,163.1L225.1,163.1z M207.9,163.1c2,0,3.5,1.6,3.5,3.5s-1.6,3.5-3.5,3.5s-3.5-1.6-3.5-3.5
							S205.9,163.1,207.9,163.1L207.9,163.1z M190.7,163.1c2,0,3.5,1.6,3.5,3.5s-1.6,3.5-3.5,3.5s-3.5-1.6-3.5-3.5
							S188.7,163.1,190.7,163.1L190.7,163.1z M173.5,163.1c2,0,3.5,1.6,3.5,3.5s-1.6,3.5-3.5,3.5c-2,0-3.5-1.6-3.5-3.5
							C169.9,164.7,171.5,163.1,173.5,163.1L173.5,163.1z M156.2,163.1c2,0,3.5,1.6,3.5,3.5s-1.6,3.5-3.5,3.5c-2,0-3.5-1.6-3.5-3.5
							S154.3,163.1,156.2,163.1L156.2,163.1z M139,163.1c2,0,3.5,1.6,3.5,3.5s-1.6,3.5-3.5,3.5c-2,0-3.5-1.6-3.5-3.5
							C135.5,164.7,137.1,163.1,139,163.1L139,163.1z M121.8,163.1c2,0,3.5,1.6,3.5,3.5s-1.6,3.5-3.5,3.5s-3.5-1.6-3.5-3.5
							S119.8,163.1,121.8,163.1L121.8,163.1z M104.6,163.1c2,0,3.5,1.6,3.5,3.5s-1.6,3.5-3.5,3.5s-3.5-1.6-3.5-3.5
							S102.6,163.1,104.6,163.1L104.6,163.1z M225.1,147.7c2,0,3.5,1.6,3.5,3.5s-1.6,3.5-3.5,3.5s-3.5-1.6-3.5-3.5
							S223.2,147.7,225.1,147.7L225.1,147.7z M207.9,147.7c2,0,3.5,1.6,3.5,3.5s-1.6,3.5-3.5,3.5s-3.5-1.6-3.5-3.5
							S205.9,147.7,207.9,147.7L207.9,147.7z M190.7,147.7c2,0,3.5,1.6,3.5,3.5s-1.6,3.5-3.5,3.5s-3.5-1.6-3.5-3.5
							S188.7,147.7,190.7,147.7L190.7,147.7z M173.5,147.7c2,0,3.5,1.6,3.5,3.5s-1.6,3.5-3.5,3.5c-2,0-3.5-1.6-3.5-3.5
							C169.9,149.3,171.5,147.7,173.5,147.7L173.5,147.7z M156.2,147.7c2,0,3.5,1.6,3.5,3.5s-1.6,3.5-3.5,3.5c-2,0-3.5-1.6-3.5-3.5
							S154.3,147.7,156.2,147.7L156.2,147.7z M139,147.7c2,0,3.5,1.6,3.5,3.5s-1.6,3.5-3.5,3.5c-2,0-3.5-1.6-3.5-3.5
							C135.5,149.3,137.1,147.7,139,147.7L139,147.7z M121.8,147.7c2,0,3.5,1.6,3.5,3.5s-1.6,3.5-3.5,3.5s-3.5-1.6-3.5-3.5
							S119.8,147.7,121.8,147.7L121.8,147.7z M104.6,147.7c2,0,3.5,1.6,3.5,3.5s-1.6,3.5-3.5,3.5s-3.5-1.6-3.5-3.5
							S102.6,147.7,104.6,147.7L104.6,147.7z M225.1,132.4c2,0,3.5,1.6,3.5,3.5c0,2-1.6,3.5-3.5,3.5s-3.5-1.6-3.5-3.5
							C221.6,134,223.2,132.4,225.1,132.4L225.1,132.4z M207.9,132.4c2,0,3.5,1.6,3.5,3.5c0,2-1.6,3.5-3.5,3.5s-3.5-1.6-3.5-3.5
							C204.4,134,205.9,132.4,207.9,132.4L207.9,132.4z M190.7,132.4c2,0,3.5,1.6,3.5,3.5c0,2-1.6,3.5-3.5,3.5s-3.5-1.6-3.5-3.5
							C187.1,134,188.7,132.4,190.7,132.4L190.7,132.4z M173.5,132.4c2,0,3.5,1.6,3.5,3.5c0,2-1.6,3.5-3.5,3.5c-2,0-3.5-1.6-3.5-3.5
							C169.9,134,171.5,132.4,173.5,132.4L173.5,132.4z M156.2,132.4c2,0,3.5,1.6,3.5,3.5c0,2-1.6,3.5-3.5,3.5c-2,0-3.5-1.6-3.5-3.5
							C152.7,134,154.3,132.4,156.2,132.4L156.2,132.4z M139,132.4c2,0,3.5,1.6,3.5,3.5c0,2-1.6,3.5-3.5,3.5c-2,0-3.5-1.6-3.5-3.5
							C135.5,134,137.1,132.4,139,132.4L139,132.4z M121.8,132.4c2,0,3.5,1.6,3.5,3.5c0,2-1.6,3.5-3.5,3.5s-3.5-1.6-3.5-3.5
							C118.3,134,119.8,132.4,121.8,132.4L121.8,132.4z M104.6,132.4c2,0,3.5,1.6,3.5,3.5c0,2-1.6,3.5-3.5,3.5s-3.5-1.6-3.5-3.5
							C101,134,102.6,132.4,104.6,132.4L104.6,132.4z M225.1,117.1c2,0,3.5,1.6,3.5,3.5c0,2-1.6,3.5-3.5,3.5s-3.5-1.6-3.5-3.5
							C221.6,118.7,223.2,117.1,225.1,117.1L225.1,117.1z M207.9,117.1c2,0,3.5,1.6,3.5,3.5c0,2-1.6,3.5-3.5,3.5s-3.5-1.6-3.5-3.5
							C204.4,118.7,205.9,117.1,207.9,117.1L207.9,117.1z M190.7,117.1c2,0,3.5,1.6,3.5,3.5c0,2-1.6,3.5-3.5,3.5s-3.5-1.6-3.5-3.5
							C187.1,118.7,188.7,117.1,190.7,117.1L190.7,117.1z M173.5,117.1c2,0,3.5,1.6,3.5,3.5c0,2-1.6,3.5-3.5,3.5
							c-2,0-3.5-1.6-3.5-3.5C169.9,118.7,171.5,117.1,173.5,117.1L173.5,117.1z M156.2,117.1c2,0,3.5,1.6,3.5,3.5
							c0,2-1.6,3.5-3.5,3.5c-2,0-3.5-1.6-3.5-3.5C152.7,118.7,154.3,117.1,156.2,117.1L156.2,117.1z M139,117.1c2,0,3.5,1.6,3.5,3.5
							c0,2-1.6,3.5-3.5,3.5c-2,0-3.5-1.6-3.5-3.5C135.5,118.7,137.1,117.1,139,117.1L139,117.1z M121.8,117.1c2,0,3.5,1.6,3.5,3.5
							c0,2-1.6,3.5-3.5,3.5s-3.5-1.6-3.5-3.5C118.3,118.7,119.8,117.1,121.8,117.1L121.8,117.1z M104.6,117.1c2,0,3.5,1.6,3.5,3.5
							c0,2-1.6,3.5-3.5,3.5s-3.5-1.6-3.5-3.5C101,118.7,102.6,117.1,104.6,117.1L104.6,117.1z M225.1,101.7c2,0,3.5,1.6,3.5,3.5
							c0,2-1.6,3.5-3.5,3.5s-3.5-1.6-3.5-3.5C221.6,103.3,223.2,101.7,225.1,101.7L225.1,101.7z M207.9,101.7c2,0,3.5,1.6,3.5,3.5
							c0,2-1.6,3.5-3.5,3.5s-3.5-1.6-3.5-3.5C204.4,103.3,205.9,101.7,207.9,101.7L207.9,101.7z M190.7,101.7c2,0,3.5,1.6,3.5,3.5
							c0,2-1.6,3.5-3.5,3.5s-3.5-1.6-3.5-3.5C187.1,103.3,188.7,101.7,190.7,101.7L190.7,101.7z M173.5,101.7c2,0,3.5,1.6,3.5,3.5
							c0,2-1.6,3.5-3.5,3.5c-2,0-3.5-1.6-3.5-3.5C169.9,103.3,171.5,101.7,173.5,101.7L173.5,101.7z M156.2,101.7
							c2,0,3.5,1.6,3.5,3.5c0,2-1.6,3.5-3.5,3.5c-2,0-3.5-1.6-3.5-3.5C152.7,103.3,154.3,101.7,156.2,101.7L156.2,101.7z M139,101.7
							c2,0,3.5,1.6,3.5,3.5c0,2-1.6,3.5-3.5,3.5c-2,0-3.5-1.6-3.5-3.5C135.5,103.3,137.1,101.7,139,101.7L139,101.7z M121.8,101.7
							c2,0,3.5,1.6,3.5,3.5c0,2-1.6,3.5-3.5,3.5s-3.5-1.6-3.5-3.5C118.3,103.3,119.8,101.7,121.8,101.7L121.8,101.7z M104.6,101.7
							c2,0,3.5,1.6,3.5,3.5c0,2-1.6,3.5-3.5,3.5s-3.5-1.6-3.5-3.5C101,103.3,102.6,101.7,104.6,101.7L104.6,101.7z M225.1,86.4
							c2,0,3.5,1.6,3.5,3.5c0,2-1.6,3.5-3.5,3.5s-3.5-1.6-3.5-3.5C221.6,88,223.2,86.4,225.1,86.4L225.1,86.4z M207.9,86.4
							c2,0,3.5,1.6,3.5,3.5c0,2-1.6,3.5-3.5,3.5s-3.5-1.6-3.5-3.5C204.4,88,205.9,86.4,207.9,86.4L207.9,86.4z M190.7,86.4
							c2,0,3.5,1.6,3.5,3.5c0,2-1.6,3.5-3.5,3.5s-3.5-1.6-3.5-3.5C187.1,88,188.7,86.4,190.7,86.4L190.7,86.4z M173.5,86.4
							c2,0,3.5,1.6,3.5,3.5c0,2-1.6,3.5-3.5,3.5c-2,0-3.5-1.6-3.5-3.5C169.9,88,171.5,86.4,173.5,86.4L173.5,86.4z M156.2,86.4
							c2,0,3.5,1.6,3.5,3.5c0,2-1.6,3.5-3.5,3.5c-2,0-3.5-1.6-3.5-3.5C152.7,88,154.3,86.4,156.2,86.4L156.2,86.4z M139,86.4
							c2,0,3.5,1.6,3.5,3.5c0,2-1.6,3.5-3.5,3.5c-2,0-3.5-1.6-3.5-3.5C135.5,88,137.1,86.4,139,86.4L139,86.4z M121.8,86.4
							c2,0,3.5,1.6,3.5,3.5c0,2-1.6,3.5-3.5,3.5s-3.5-1.6-3.5-3.5C118.3,88,119.8,86.4,121.8,86.4z"/>
					</g>
				</g>
			</g>
		</g>
		<path id="XMLID_6049_" class="st5" d="M165.6,89.5c18.6,0,33.7-15.1,33.7-33.7c0-18.6-17.9-40.5-33.7-47.3
			C150.9,15.8,132,37.3,132,55.8C132,74.4,147.1,89.5,165.6,89.5z"/>
		<path id="XMLID_6048_" class="st6" d="M193.9,97.1c16.1,9.3,36.7,3.7,46-12.3c9.3-16.1,4.8-44-5.5-57.8
			c-16.4-1.1-43.5,8-52.8,24.1C172.3,67.1,177.8,87.8,193.9,97.1z"/>
		<path id="XMLID_6047_" class="st5" d="M214.6,117.7c9.3,16.1,29.9,21.6,46,12.3c16.1-9.3,26.1-35.7,24.1-52.8
			c-13.6-9.1-41.7-14.8-57.8-5.5C210.8,81,205.3,101.7,214.6,117.7z"/>
		<path id="XMLID_6046_" class="st6" d="M222.1,146c0,18.6,15.1,33.7,33.7,33.7c18.6,0,40.5-17.8,47.3-33.7
			c-7.2-14.7-28.7-33.7-47.3-33.7C237.3,112.3,222.1,127.4,222.1,146z"/>
		<path id="XMLID_6045_" class="st5" d="M214.6,174.3c-9.3,16.1-3.7,36.7,12.3,46c16.1,9.3,44,4.8,57.8-5.5
			c1.1-16.4-8-43.5-24.1-52.8C244.5,152.6,223.9,158.2,214.6,174.3z"/>
		<path id="XMLID_6044_" class="st6" d="M193.9,194.9c-16.1,9.3-21.6,29.9-12.3,46c9.3,16.1,35.7,26.1,52.8,24.1
			c9.1-13.6,14.8-41.7,5.5-57.8C230.6,191.2,210,185.7,193.9,194.9z"/>
		<path id="XMLID_6043_" class="st5" d="M165.6,202.5c-18.6,0-33.7,15.1-33.7,33.7c0,18.6,17.9,40.5,33.7,47.3
			c14.7-7.2,33.7-28.7,33.7-47.3C199.3,217.6,184.2,202.5,165.6,202.5z"/>
		<path id="XMLID_6042_" class="st6" d="M137.4,194.9c-16.1-9.3-36.7-3.7-46,12.3c-9.3,16.1-4.8,44,5.5,57.8
			c16.4,1.1,43.5-8,52.8-24.1C159,224.9,153.5,204.2,137.4,194.9z"/>
		<path id="XMLID_6041_" class="st5" d="M116.7,174.3c-9.3-16.1-29.9-21.6-46-12.3c-16.1,9.3-26.1,35.7-24.1,52.8
			c13.6,9.1,41.7,14.8,57.8,5.5C120.4,211,126,190.3,116.7,174.3z"/>
		<path id="XMLID_6040_" class="st6" d="M109.1,146c0-18.6-15.1-33.7-33.7-33.7c-18.6,0-40.5,17.9-47.3,33.7
			c7.2,14.7,28.7,33.7,47.3,33.7C94,179.7,109.1,164.6,109.1,146z"/>
		<path id="XMLID_6039_" class="st5" d="M116.7,117.7c9.3-16.1,3.7-36.7-12.3-46c-16.1-9.3-44-4.8-57.8,5.5
			c-1.1,16.4,8,43.5,24.1,52.8C86.8,139.4,107.4,133.8,116.7,117.7z"/>
		<path id="XMLID_6038_" class="st6" d="M137.4,97.1c16.1-9.3,21.6-29.9,12.3-46C140.4,35,114,24.9,96.9,27
			c-9.1,13.6-14.8,41.7-5.5,57.8C100.7,100.8,121.3,106.3,137.4,97.1z"/>
	</g>
	<path class="st7" d="M168.8,134.8V187H36c-4.7,0-8.5-3.8-8.5-8.5v-43.7C27.5,134.8,168.8,134.8,168.8,134.8z"/>
	<path class="st8" d="M190.4,188.5c0,1-0.8,1.9-1.9,1.9h-33.2c-1,0-1.9-0.8-1.9-1.9v-55.2c0-1,0.8-1.9,1.9-1.9h33.2
		c1,0,1.9,0.8,1.9,1.9V188.5z"/>
	<rect x="122.5" y="168.7" class="st9" width="4.6" height="18.3"/>
	<g>
		<path class="st9" d="M132,154.3h2.5v-8l-2.6,0.6v-2.2l2.6-0.6h2.7v10.2h2.5v2.2H132L132,154.3L132,154.3z"/>
	</g>
	<g>
		<path class="st9" d="M112,154.3h4.9v2.3h-8.1v-2.3l4.1-4c0.4-0.4,0.6-0.7,0.8-1.1c0.2-0.3,0.3-0.7,0.3-1.1c0-0.6-0.2-1-0.5-1.4
			c-0.4-0.4-0.8-0.5-1.4-0.5c-0.4,0-0.9,0.1-1.5,0.3c-0.5,0.2-1.1,0.5-1.7,0.9v-2.7c0.6-0.2,1.3-0.4,1.9-0.5
			c0.6-0.1,1.2-0.2,1.9-0.2c1.3,0,2.4,0.3,3.1,1c0.7,0.7,1.1,1.6,1.1,2.7c0,0.7-0.2,1.3-0.5,1.9c-0.3,0.6-1,1.4-2,2.3L112,154.3z"/>
	</g>
	<g>
		<rect x="159.8" y="141" class="st10" width="25.1" height="2.5"/>
		<rect x="159.8" y="150.4" class="st10" width="25.1" height="2.5"/>
		<rect x="159.8" y="159.7" class="st10" width="25.1" height="2.5"/>
		<rect x="159.8" y="169" class="st10" width="25.1" height="2.5"/>
		<rect x="159.8" y="178.3" class="st10" width="25.1" height="2.5"/>
	</g>
	<rect x="133.6" y="162.2" class="st9" width="4.6" height="24.9"/>
	<rect x="99.4" y="168.7" class="st9" width="4.6" height="18.3"/>
	<rect x="110.5" y="162.2" class="st9" width="4.6" height="24.9"/>
	<rect x="87.5" y="162.2" class="st9" width="4.6" height="24.9"/>
	<rect x="76.4" y="168.7" class="st9" width="4.6" height="18.3"/>
	<rect x="64.4" y="162.2" class="st9" width="4.6" height="24.9"/>
	<rect x="53.3" y="168.7" class="st9" width="4.6" height="18.3"/>
	<rect x="41.3" y="162.2" class="st9" width="4.6" height="24.9"/>
	<g>
		<path class="st9" d="M91.8,150c0.8,0.2,1.4,0.6,1.9,1.1c0.4,0.5,0.6,1.2,0.6,2c0,1.2-0.5,2.1-1.4,2.7c-0.9,0.6-2.3,0.9-4,0.9
			c-0.6,0-1.2-0.1-1.9-0.2c-0.6-0.1-1.2-0.2-1.8-0.4v-2.4c0.6,0.3,1.2,0.5,1.7,0.7c0.6,0.2,1.1,0.2,1.7,0.2c0.8,0,1.5-0.1,1.9-0.4
			c0.4-0.3,0.7-0.7,0.7-1.2c0-0.6-0.2-1-0.7-1.3c-0.5-0.3-1.1-0.4-2-0.4h-1.2v-2h1.3c0.8,0,1.4-0.1,1.7-0.4c0.4-0.2,0.6-0.6,0.6-1.1
			c0-0.5-0.2-0.8-0.6-1.1c-0.4-0.2-0.9-0.4-1.6-0.4c-0.5,0-1,0.1-1.5,0.2c-0.5,0.1-1,0.3-1.5,0.5v-2.3c0.6-0.2,1.2-0.3,1.8-0.4
			c0.6-0.1,1.2-0.1,1.8-0.1c1.6,0,2.7,0.3,3.5,0.8c0.8,0.5,1.2,1.3,1.2,2.3c0,0.7-0.2,1.3-0.6,1.7C93.1,149.5,92.6,149.8,91.8,150z"
			/>
	</g>
	<g>
		<path class="st9" d="M66.5,144h3.6v7.9h1.8v2.4h-1.8v2.3h-3.1v-2.3h-5.6v-2.8L66.5,144z M67.1,146.6l-3.6,5.3h3.6V146.6z"/>
	</g>
</g>
</svg>
