<?xml version="1.0" encoding="utf-8"?>
<!-- Generator: Adobe Illustrator 22.1.0, SVG Export Plug-In . SVG Version: 6.00 Build 0)  -->
<svg version="1.1" id="Слой_1" xmlns="http://www.w3.org/2000/svg" xmlns:xlink="http://www.w3.org/1999/xlink" x="0px" y="0px"
	 viewBox="0 0 306 309" style="enable-background:new 0 0 306 309;" xml:space="preserve">
<style type="text/css">
	.st0{fill:#D9EBEC;}
	.st1{fill:#559A60;}
	.st2{fill:#D65D48;}
	.st3{fill:#467253;}
	.st4{fill:#F2C348;}
	.st5{fill:#B5BEC0;}
	.st6{fill:#8C8B8B;}
	.st7{fill:#5B5A5A;}
	.st8{fill:#C5CCCC;}
	.st9{fill:#8EA4A7;}
	.st10{fill:#D8674B;}
</style>
<g>
	<path class="st0" d="M213.9,279.5H18.5c-2.4,0-4.3-1.9-4.3-4.3V29.7c0-2.4,1.9-4.3,4.3-4.3h133.7l66,66v183.8
		C218.2,277.5,216.3,279.5,213.9,279.5L213.9,279.5z"/>
	<polygon class="st1" points="292.7,214.1 255,214 255.5,68.6 293.1,68.7 	"/>
	<path class="st2" d="M274.6,34.1l-0.4,0c-10.3,0-18.6,8.3-18.7,18.6l-0.1,15.9l37.6,0.1l0.1-15.9C293.2,42.5,284.9,34.1,274.6,34.1
		L274.6,34.1z"/>
	<polygon class="st3" points="293.1,75.4 255.5,75.2 255.5,68.6 293.1,68.7 	"/>
	<path class="st4" d="M274.2,144.9H274c-4.7,0-8.5-3.9-8.5-8.6l0.2-76.4c0-4.7,3.9-8.5,8.6-8.5h0.2c4.7,0,8.5,3.9,8.5,8.6l-0.2,76.4
		C282.7,141.1,278.9,145,274.2,144.9L274.2,144.9z"/>
	<polygon class="st5" points="280,255.8 267.4,255.7 255,214 292.7,214.1 	"/>
	<polygon class="st6" points="292.7,208.4 255.1,208.3 255,214 292.7,214.1 	"/>
	<path class="st7" d="M273.5,270.7L273.5,270.7c-1.8,0-3.3-1.2-3.7-3l-2.4-12l12.2,0l-2.5,11.9C276.8,269.4,275.3,270.7,273.5,270.7
		L273.5,270.7z"/>
	<path class="st8" d="M158.1,91.4h60.2l-66-66v60.2C152.2,88.7,154.8,91.4,158.1,91.4L158.1,91.4z"/>
	<polygon class="st9" points="173.8,119.5 58.6,119.5 58.6,112.7 173.8,112.7 	"/>
	<polygon class="st9" points="147,143.3 58.6,143.3 58.6,136.5 147,136.5 	"/>
	<polygon class="st9" points="147,197.1 58.6,197.1 58.6,190.3 147,190.3 	"/>
	<polygon class="st9" points="159.5,226.5 58.6,226.5 58.6,219.7 159.5,219.7 	"/>
</g>
<path class="st10" d="M87,86c-0.2,8.3-5.4,10.9-11.8,11l-0.1,5l-5.5-0.1l0.1-5c-4.1-0.3-7.2-1-10.1-2l0.2-7.4
	c3.5,0.4,9.8,0.8,12.6,0.8c3.4,0.1,5-0.1,5.1-3.3l0-1.4c0.1-2.5-1-3.5-4-3.6l-4.7-0.1c-8.6-0.2-10.3-7.3-10.2-12l0.1-2.4
	c0.2-9.9,6.2-12,11.9-11.9l0.1-4.8l5.5,0.1l-0.1,4.8c4.7,0.3,6.4,0.7,10.2,2l-0.2,7.4c-2.3-0.2-8-0.7-13.4-0.9
	c-2.5-0.1-4.5,0.5-4.5,3l0,1.7c0,2.1,0.6,3.4,3.4,3.4l4.5,0.1c10.4,0.2,11,8.8,11,12L87,86z"/>
</svg>
