<?xml version="1.0" encoding="utf-8"?>
<!-- Generator: Adobe Illustrator 22.1.0, SVG Export Plug-In . SVG Version: 6.00 Build 0)  -->
<svg version="1.1" id="Слой_1" xmlns="http://www.w3.org/2000/svg" xmlns:xlink="http://www.w3.org/1999/xlink" x="0px" y="0px"
	 viewBox="0 0 302.7 83.7" style="enable-background:new 0 0 302.7 83.7;" xml:space="preserve">
<style type="text/css">
	.st0{fill:url(#SVGID_1_);}
	.st1{fill:#212877;}
</style>
<title>последний обновленный 7 final</title>
<g id="Слой_2">
	
		<linearGradient id="SVGID_1_" gradientUnits="userSpaceOnUse" x1="3.8067" y1="40.355" x2="51.9967" y2="40.355" gradientTransform="matrix(1 0 0 -1 0 72.72)">
		<stop  offset="0" style="stop-color:#B72925"/>
		<stop  offset="1" style="stop-color:#F8971D"/>
	</linearGradient>
	<path class="st0" d="M3.8,62.7V2h17.3c6.8,0,11.5,0.3,14.2,0.9c2.5,0.5,4.9,1.6,6.9,3.1c2.2,1.7,3.9,3.8,5,6.3
		c1.2,2.7,1.8,5.6,1.8,8.5c0,4.7-1.2,8.5-3.5,11.5c-2.6,3.1-6.1,5.2-10.1,5.9L52,62.7H33.3L19.3,39v23.7H3.8z M19.3,30.7h3.1
		c3.6,0,6.2-0.6,7.8-1.8c1.6-1.2,2.5-3.1,2.4-5.7c0-3-0.8-5.2-2.3-6.5s-4.1-1.9-7.7-1.9h-3.3V30.7z"/>
	<path class="st1" d="M56,63V2.3h17.3c6.8,0,11.5,0.3,14.2,0.9c2.5,0.5,4.9,1.6,6.9,3.1c2.2,1.7,3.9,3.8,5,6.3
		c1.2,2.7,1.8,5.6,1.8,8.5c0,4.7-1.2,8.5-3.5,11.5c-2.6,3.1-6.1,5.2-10.1,5.9L104.1,63H85.4l-14-23.8V63H56z M71.5,31h3.1
		c3.6,0,6.2-0.6,7.8-1.8c1.6-1.2,2.5-3.1,2.5-5.7c0-3-0.8-5.2-2.3-6.5s-4.1-1.9-7.7-1.9h-3.3V31z"/>
	<path class="st1" d="M144.5,48.6h-28.8c-0.1,2.5,0.7,4.9,2.3,6.8c1.6,1.7,3.9,2.5,6.3,2.4c1.8,0.1,3.5-0.3,5.1-1.1
		c1.4-0.8,2.5-2,3.2-3.4l10,4c-1.2,2.9-3.5,5.3-6.4,6.7c-3.5,1.7-7.3,2.5-11.2,2.4c-6.6,0-11.9-1.8-15.9-5.5s-6-8.5-6-14.5
		c-0.1-5.5,2-10.9,6-14.7c4-3.9,9.5-6,15.1-5.8c6.3,0,11.2,2,14.8,5.9c3.6,3.9,5.4,9.4,5.4,16.2L144.5,48.6z M131.3,41
		c-0.2-2-1-3.8-2.4-5.2c-1.4-1.3-3.2-2-5.1-1.9c-1.9-0.1-3.8,0.5-5.2,1.8c-1.4,1.4-2.3,3.3-2.6,5.3L131.3,41z"/>
	<path class="st1" d="M149.2,81.6V27h12.3v6.4c1.5-2.3,3.4-4.3,5.7-5.7c2.1-1.3,4.6-1.9,7.1-1.9c5.3,0,9.6,1.8,12.7,5.4
		s4.7,8.6,4.7,14.8c0,6-1.6,10.9-4.7,14.7c-5.1,5.6-13.3,7.2-20.1,3.8c-2.3-1.4-4.1-3.4-5.4-5.8c0.1,0.9,0.2,1.8,0.3,2.7
		c0.1,1.1,0.1,2.4,0.1,4v16.1L149.2,81.6z M161,46c-0.2,2.5,0.7,5,2.3,7c1.6,1.7,4,2.7,6.4,2.6c2.4,0.1,4.7-0.8,6.4-2.6
		c1.7-1.9,2.5-4.5,2.3-7c0.1-2.5-0.7-5-2.3-7c-1.7-1.7-4-2.7-6.4-2.5c-2.4-0.1-4.7,0.8-6.4,2.6C161.7,41,160.9,43.5,161,46L161,46z"
		/>
	<path class="st1" d="M237.9,46c0,2.7-0.5,5.3-1.6,7.8c-1.1,2.5-2.7,4.7-4.6,6.6c-2,1.9-4.3,3.4-6.9,4.4c-5.2,2-11,2-16.2,0
		c-2.5-1-4.9-2.5-6.8-4.4c-2-1.8-3.5-4.1-4.6-6.5c-4.3-10.3,0.6-22.1,10.9-26.4c0.1-0.1,0.3-0.1,0.4-0.2c5.3-1.9,11.1-1.9,16.4,0
		c5.1,2,9.2,6,11.4,11C237.4,40.7,237.9,43.4,237.9,46z M224.6,46c0.1-2.4-0.6-4.8-2.1-6.7c-3.1-3.2-8.2-3.3-11.4-0.1
		c0,0-0.1,0.1-0.1,0.1c-1.5,1.9-2.3,4.3-2.1,6.7c-0.1,2.4,0.6,4.8,2.1,6.7c3.2,3.2,8.4,3.2,11.6,0c0,0,0,0,0,0
		C224,50.8,224.8,48.4,224.6,46L224.6,46z"/>
	<path class="st1" d="M241.7,64.8V27h12.6v8.9c1-2.9,2.9-5.4,5.3-7.3c2.4-1.7,5.3-2.5,8.2-2.4c0.5,0,1.1,0,1.6,0.1s1.1,0.1,1.6,0.2
		l-1.3,12.1c-1.5-0.5-3-0.8-4.6-0.8c-3.2,0-5.8,1-7.5,3c-1.8,2-2.6,4.8-2.6,8.4v15.7L241.7,64.8z"/>
	<path class="st1" d="M280,64.8V36.4h-5.7V27h5.7V15.7h13.1V27h5.7v9.4h-5.7v28.4L280,64.8z"/>
</g>
</svg>
