<svg id="locate" xmlns="http://www.w3.org/2000/svg"><path d="M356.208 107.05c-1.53-5.737-4.64-11.85-6.94-17.204C321.746 23.704 261.61 0 213.055 0c-65 0-136.592 43.586-146.15 133.427v18.355c0 .766.264 7.647.64 11.09 5.357 42.815 39.142 88.32 64.374 131.135 27.144 45.873 55.312 91 83.22 136.106 17.207-29.436 34.353-59.26 51.17-87.933 4.582-8.415 9.902-16.825 14.49-24.857 3.06-5.348 8.9-10.696 11.57-15.672 27.144-49.697 70.837-99.78 70.837-149.102v-20.262c0-5.347-6.627-24.08-7-25.234zm-141.963 92.143c-19.107 0-40.02-9.554-50.344-35.94-1.536-4.2-1.412-12.616-1.412-13.387v-11.852c0-33.636 28.56-48.932 53.406-48.932 30.588 0 54.245 24.472 54.245 55.06 0 30.587-25.306 55.05-55.894 55.05z"/></svg>