<svg id="settings" xmlns="http://www.w3.org/2000/svg" viewBox="0 0 54 54"><path d="M27 13c-7.72 0-14 6.28-14 14s6.28 14 14 14 14-6.28 14-14-6.28-14-14-14zm0 26c-6.617 0-12-5.383-12-12s5.383-12 12-12 12 5.383 12 12-5.383 12-12 12z"/><path d="M51.22 21h-2.018c-.515-1.912-1.272-3.742-2.26-5.457l1.426-1.426c.525-.525.814-1.224.814-1.966s-.29-1.44-.814-1.96l-4.553-4.56c-1.05-1.04-2.88-1.05-3.933 0l-1.426 1.43C36.74 6.07 34.91 5.32 33 4.8V2.78C33 1.247 31.753 0 30.22 0h-6.44C22.247 0 21 1.247 21 2.78v2.018c-1.91.515-3.74 1.272-5.457 2.26l-1.426-1.426c-1.05-1.052-2.883-1.05-3.933 0L5.63 10.185c-.524.525-.813 1.224-.813 1.967 0 .742.29 1.44.814 1.966l1.43 1.426C6.07 17.258 5.31 19.088 4.8 21H2.78C1.247 21 0 22.247 0 23.78v6.44C0 31.752 1.247 33 2.78 33h2.018c.515 1.91 1.272 3.74 2.26 5.457l-1.426 1.426c-.525.525-.814 1.224-.814 1.966s.29 1.44.814 1.96l4.553 4.55c1.05 1.05 2.882 1.05 3.933 0l1.426-1.43c1.717.982 3.546 1.74 5.457 2.26v2.02c0 1.53 1.25 2.78 2.78 2.78h6.44c1.54 0 2.78-1.25 2.78-2.78V49.2c1.91-.515 3.74-1.272 5.46-2.26l1.43 1.426c1.05 1.05 2.88 1.05 3.94 0l4.555-4.556c.524-.525.813-1.224.813-1.967 0-.743-.29-1.44-.814-1.967l-1.43-1.426c.99-1.712 1.747-3.54 2.26-5.452h2.02c1.534 0 2.78-1.247 2.78-2.78v-6.44c0-1.533-1.247-2.78-2.78-2.78zm.78 9.22c0 .43-.35.78-.78.78h-3.592l-.18.773c-.52 2.237-1.4 4.36-2.613 6.31l-.42.675 2.54 2.54c.304.304.304.8 0 1.103L42.4 46.96c-.303.304-.798.306-1.103 0l-2.54-2.54-.673.42c-1.95 1.215-4.073 2.094-6.31 2.614l-.774.18v3.59c0 .43-.35.78-.78.78h-6.44c-.43 0-.78-.35-.78-.78v-3.59l-.773-.18c-2.237-.52-4.36-1.4-6.31-2.613l-.675-.42-2.54 2.54c-.305.31-.8.31-1.103 0L7.04 42.4c-.305-.304-.305-.8 0-1.103l2.54-2.54-.42-.673c-1.215-1.95-2.094-4.073-2.614-6.31L6.372 31H2.78c-.43 0-.78-.35-.78-.78v-6.44c0-.43.35-.78.78-.78h3.592l.18-.773c.52-2.238 1.4-4.36 2.613-6.31l.42-.675-2.54-2.54c-.304-.304-.304-.8 0-1.103L11.6 7.04c.303-.304.798-.306 1.103 0l2.54 2.54.673-.42c1.95-1.215 4.073-2.094 6.31-2.614L23 6.37V2.78c0-.43.35-.78.78-.78h6.44c.43 0 .78.35.78.78v3.592l.773.18c2.237.52 4.36 1.4 6.31 2.613l.675.42 2.54-2.54c.305-.305.8-.303 1.103 0l4.56 4.555c.31.3.31.8 0 1.1l-2.54 2.54.42.672c1.22 1.95 2.1 4.072 2.62 6.31l.18.774h3.59c.43 0 .78.35.78.78v6.44z"/><path d="M27 17c-5.514 0-10 4.486-10 10s4.486 10 10 10 10-4.486 10-10-4.486-10-10-10zm0 18c-4.41 0-8-3.59-8-8s3.59-8 8-8 8 3.59 8 8-3.59 8-8 8z"/></g></svg>