<svg id="truck" xmlns="http://www.w3.org/2000/svg" viewBox="0 0 442 442"><path d="M441.064 206.397L407.62 134.62c-1.643-3.522-5.178-5.775-9.065-5.775h-92.68c-5.523 0-10 4.477-10 10s4.477 10 10 10h86.307L422 212.835v99.562h-10.753c-4.838-31.94-32.477-56.5-65.747-56.5s-60.91 24.56-65.747 56.5H162.247c-1.075-7.097-3.29-13.82-6.427-20h120.055c5.522 0 10-4.477 10-10V63.103c0-5.523-4.478-10-10-10H10c-5.522 0-10 4.477-10 10v219.295c0 5.523 4.478 10 10 10h27.18c-3.137 6.18-5.352 12.903-6.426 20H10c-5.522 0-10 4.477-10 10s4.478 10 10 10h20.753c4.838 31.94 32.477 56.5 65.747 56.5s60.91-24.56 65.747-56.5h117.506c4.838 31.94 32.477 56.5 65.747 56.5s60.91-24.56 65.747-56.5H432c5.522 0 10-4.477 10-10V210.62c0-1.458-.32-2.9-.936-4.223zM20 73.103h245.874v199.295H140.27c-11.705-10.26-27.018-16.5-43.77-16.5s-32.065 6.24-43.77 16.5H20V73.103zm76.5 295.794c-25.64 0-46.5-20.86-46.5-46.5s20.86-46.5 46.5-46.5 46.5 20.86 46.5 46.5-20.86 46.5-46.5 46.5zm249 0c-25.64 0-46.5-20.86-46.5-46.5s20.86-46.5 46.5-46.5c25.636 0 46.493 20.853 46.5 46.487v.026c-.007 25.635-20.864 46.487-46.5 46.487z"/><path d="M392.506 220.62h.02c5.523 0 10-4.476 10-10 0-1.734-.44-3.366-1.22-4.79l-17.18-36.87c-1.64-3.522-5.176-5.775-9.063-5.775h-64.848c-5.522 0-10 4.477-10 10v37.436c0 5.525 4.478 10 10 10h82.29zm-72.29-37.434h48.474l8.125 17.436h-56.6v-17.436z"/></g></svg>