<svg  fill="#4f5155" xmlns="http://www.w3.org/2000/svg" viewBox="0 0 362.715 362.715"><path d="M352.464 302.966l-90.374-90.373c-6.69-6.69-15.414-10.097-24.182-10.238 33.904-50.513 28.56-119.733-16.045-164.34-50.688-50.686-133.16-50.686-183.848 0-50.688 50.688-50.688 133.162 0 183.85 44.606 44.605 113.826 49.95 164.34 16.044.14 8.766 3.547 17.49 10.237 24.18l90.373 90.375c13.67 13.668 35.83 13.668 49.498 0 13.67-13.67 13.67-35.83 0-49.5zM193.58 193.58c-35.092 35.09-92.19 35.09-127.28 0-35.09-35.092-35.09-92.19 0-127.28s92.188-35.09 127.28 0c35.09 35.09 35.09 92.188 0 127.28z"/></svg>