<svg id="Layer_1" data-name="Layer 1" xmlns="http://www.w3.org/2000/svg" viewBox="0 0 61.91 74.44"><defs><style>.cls-1{fill:#f0f0f0;}.cls-2{fill:#e6e6e6;}.cls-3{fill:#464646;}.cls-4{fill:#969696;}.cls-5{fill:#c8f5fa;}.cls-5,.cls-8{opacity:0.5;}.cls-6{fill:#393939;}.cls-7{fill:#ff5000;}.cls-8{fill:#fff;}.cls-9{fill:#ff6400;}</style></defs><title>аудит_3</title><rect class="cls-1" width="50.99" height="66.83"/><rect class="cls-2" width="25" height="66.83"/><path class="cls-3" d="M262,146.9h-1l-.17-1.13h-1.21l-.17,1.13h-.9l1-6.24H261Zm-2.24-2h.94l-.47-3.15Z" transform="translate(-254.64 -136.51)"/><path class="cls-3" d="M263.33,142.38v4.52h-.88v-6.24h1.23l1,3.74v-3.74h.87v6.24h-1Z" transform="translate(-254.64 -136.51)"/><path class="cls-3" d="M267.14,142.38v4.52h-.88v-6.24h1.22l1,3.74v-3.74h.88v6.24h-1Z" transform="translate(-254.64 -136.51)"/><path class="cls-3" d="M271,140.66v4.82c0,.44.2.6.51.6s.51-.16.51-.6v-4.82H273v4.75c0,1-.5,1.57-1.46,1.57a1.37,1.37,0,0,1-1.47-1.57v-4.75Z" transform="translate(-254.64 -136.51)"/><path class="cls-3" d="M276.79,146.9h-1l-.17-1.13h-1.2l-.17,1.13h-.9l1-6.24h1.44Zm-2.24-2h.94l-.47-3.15Z" transform="translate(-254.64 -136.51)"/><path class="cls-3" d="M277.24,140.66h1V146h1.61v.89h-2.59Z" transform="translate(-254.64 -136.51)"/><path class="cls-3" d="M283.69,146.9a2,2,0,0,1-.09-.77v-1c0-.57-.19-.79-.64-.79h-.34v2.54h-1v-6.24h1.48c1,0,1.45.48,1.45,1.44v.49a1.23,1.23,0,0,1-.64,1.26c.49.21.65.68.65,1.33v1a1.79,1.79,0,0,0,.11.76Zm-1.07-5.35v1.92H283c.36,0,.58-.16.58-.66v-.61c0-.45-.15-.65-.49-.65Z" transform="translate(-254.64 -136.51)"/><path class="cls-3" d="M286.21,143.29h1.34v.89h-1.34V146h1.69v.89h-2.68v-6.24h2.68v.89h-1.69Z" transform="translate(-254.64 -136.51)"/><path class="cls-3" d="M291.41,142.21V143c0,1-.48,1.54-1.46,1.54h-.47v2.34h-1v-6.24H290C290.93,140.66,291.41,141.21,291.41,142.21Zm-1.93-.66v2.12H290c.31,0,.48-.15.48-.59v-.94c0-.44-.17-.59-.48-.59Z" transform="translate(-254.64 -136.51)"/><path class="cls-3" d="M291.78,142.16a1.49,1.49,0,1,1,3,0v3.24a1.49,1.49,0,1,1-3,0Zm1,3.31c0,.44.2.61.51.61s.51-.17.51-.61V142.1c0-.45-.2-.62-.51-.62s-.51.17-.51.62Z" transform="translate(-254.64 -136.51)"/><path class="cls-3" d="M297.44,146.9a2,2,0,0,1-.09-.77v-1c0-.57-.2-.79-.64-.79h-.34v2.54h-1v-6.24h1.48a1.26,1.26,0,0,1,1.45,1.44v.49a1.23,1.23,0,0,1-.64,1.26c.49.21.65.68.65,1.33v1a1.79,1.79,0,0,0,.11.76Zm-1.07-5.35v1.92h.38c.37,0,.59-.16.59-.66v-.61c0-.45-.15-.65-.5-.65Z" transform="translate(-254.64 -136.51)"/><path class="cls-3" d="M298.69,140.66h3v.89h-1v5.35h-1v-5.35h-1Z" transform="translate(-254.64 -136.51)"/><rect class="cls-4" x="5.32" y="12.46" width="40.34" height="2.39"/><rect class="cls-4" x="5.32" y="16.38" width="40.34" height="2.39"/><rect class="cls-4" x="5.32" y="20.3" width="40.34" height="2.39"/><rect class="cls-4" x="5.32" y="24.21" width="40.34" height="2.39"/><rect class="cls-4" x="5.32" y="28.13" width="40.34" height="2.39"/><rect class="cls-4" x="7.67" y="37.29" width="4.12" height="15.1"/><rect class="cls-4" x="13.61" y="42.65" width="4.12" height="9.73"/><rect class="cls-4" x="19.55" y="39.43" width="4.12" height="12.95"/><rect class="cls-4" x="25.49" y="34.65" width="4.12" height="17.74"/><polygon class="cls-3" points="33.17 52.88 4.83 52.88 4.83 32.26 5.82 32.26 5.82 51.89 33.17 51.89 33.17 52.88"/><rect class="cls-4" x="5.32" y="54.95" width="40.34" height="2.39"/><rect class="cls-4" x="5.32" y="59.56" width="40.34" height="2.39"/><path class="cls-5" d="M295.5,178.92a9.69,9.69,0,0,1-.23,2.58,10.54,10.54,0,0,1-8.17,8.16,9.54,9.54,0,0,1-2.56.22,10.53,10.53,0,0,1-7.14-3.09,10.66,10.66,0,0,1-3.09-7.27,10.56,10.56,0,0,1,10.82-10.82,10.72,10.72,0,0,1,7.28,3.09A10.6,10.6,0,0,1,295.5,178.92Z" transform="translate(-254.64 -136.51)"/><path class="cls-6" d="M284.91,168.69a10.61,10.61,0,1,1-7.5,3.11,10.56,10.56,0,0,1,7.5-3.11Zm0-1.85a12.46,12.46,0,1,0,8.8,3.65,12.38,12.38,0,0,0-8.8-3.65Z" transform="translate(-254.64 -136.51)"/><rect class="cls-6" x="303.11" y="183.83" width="1.53" height="28.88" transform="translate(-305.83 136.43) rotate(-45)"/><rect class="cls-7" x="303.41" y="191.11" width="6.97" height="20.34" transform="translate(-307.04 139.64) rotate(-45.03)"/><path class="cls-8" d="M289.34,169.67l-14.06,14.06a10.2,10.2,0,0,1-1-4.21l10.82-10.82A10.16,10.16,0,0,1,289.34,169.67Z" transform="translate(-254.64 -136.51)"/><rect class="cls-9" x="306.39" y="189.88" width="3.49" height="20.35" transform="translate(-305.76 140.4) rotate(-45.07)"/><path class="cls-8" d="M295.5,178.92a9.69,9.69,0,0,1-.23,2.58l-8.17,8.16a9.54,9.54,0,0,1-2.56.22Z" transform="translate(-254.64 -136.51)"/></svg>