<svg id="Layer_1" data-name="Layer 1" xmlns="http://www.w3.org/2000/svg" viewBox="0 0 46.63 58.5"><defs><style>.cls-1{fill:#5a5a5a;}.cls-2{fill:#646464;}.cls-3{fill:#464646;}.cls-4{fill:#96aa8c;}.cls-5{fill:#c60c1e;}.cls-6{fill:#969696;}.cls-7{fill:#fff;opacity:0.2;}</style></defs><title>бух3</title><rect class="cls-1" width="46.63" height="58.5" rx="2.14" ry="2.14"/><path class="cls-2" d="M78.61,27.25H57.43v58.5H78.61a2.13,2.13,0,0,0,2.14-2.13V29.39A2.14,2.14,0,0,0,78.61,27.25Z" transform="translate(-34.12 -27.25)"/><rect class="cls-3" x="2.37" y="1.9" width="41.89" height="10.68"/><rect class="cls-4" x="3.08" y="2.61" width="40.46" height="9.26" rx="0.71" ry="0.71"/><rect class="cls-5" x="2.37" y="16.14" width="7" height="5.73" rx="0.71" ry="0.71"/><rect class="cls-3" x="11.09" y="16.14" width="7" height="5.73" rx="0.71" ry="0.71"/><rect class="cls-3" x="19.82" y="16.14" width="7" height="5.73" rx="0.71" ry="0.71"/><rect class="cls-3" x="28.54" y="16.14" width="7" height="5.73" rx="0.71" ry="0.71"/><rect class="cls-3" x="37.26" y="16.14" width="7" height="5.73" rx="0.71" ry="0.71"/><rect class="cls-3" x="2.37" y="24.41" width="7" height="5.73" rx="0.71" ry="0.71"/><rect class="cls-6" x="11.09" y="24.41" width="7" height="5.73" rx="0.71" ry="0.71"/><rect class="cls-6" x="19.82" y="24.41" width="7" height="5.73" rx="0.71" ry="0.71"/><rect class="cls-6" x="28.54" y="24.41" width="7" height="5.73" rx="0.71" ry="0.71"/><rect class="cls-3" x="37.26" y="24.41" width="7" height="5.73" rx="0.71" ry="0.71"/><rect class="cls-3" x="2.37" y="32.67" width="7" height="5.73" rx="0.71" ry="0.71"/><rect class="cls-6" x="11.09" y="32.67" width="7" height="5.73" rx="0.71" ry="0.71"/><rect class="cls-6" x="19.82" y="32.67" width="7" height="5.73" rx="0.71" ry="0.71"/><rect class="cls-6" x="28.54" y="32.67" width="7" height="5.73" rx="0.71" ry="0.71"/><rect class="cls-3" x="37.26" y="32.67" width="7" height="5.73" rx="0.71" ry="0.71"/><rect class="cls-3" x="2.37" y="40.94" width="7" height="5.73" rx="0.71" ry="0.71"/><rect class="cls-6" x="11.09" y="40.94" width="7" height="5.73" rx="0.71" ry="0.71"/><rect class="cls-6" x="19.82" y="40.94" width="7" height="5.73" rx="0.71" ry="0.71"/><rect class="cls-6" x="28.54" y="40.94" width="7" height="5.73" rx="0.71" ry="0.71"/><rect class="cls-3" x="2.37" y="49.21" width="7" height="5.73" rx="0.71" ry="0.71"/><rect class="cls-6" x="11.09" y="49.21" width="7" height="5.73" rx="0.71" ry="0.71"/><rect class="cls-6" x="19.82" y="49.21" width="7" height="5.73" rx="0.71" ry="0.71"/><rect class="cls-3" x="28.54" y="49.21" width="7" height="5.73" rx="0.71" ry="0.71"/><rect class="cls-3" x="37.26" y="40.94" width="7" height="14" rx="0.71" ry="0.71"/><path class="cls-7" d="M40.46,29.86,37.2,33.12v5.29a.7.7,0,0,0,.16.42l9-9Z" transform="translate(-34.12 -27.25)"/></svg>