<svg id="Layer_1" data-name="Layer 1" xmlns="http://www.w3.org/2000/svg" viewBox="0 0 73.79 73.23"><defs><style>.cls-1{isolation:isolate;}.cls-2{fill:#fff;}.cls-3{fill:#024563;}.cls-4{fill:#025a82;}.cls-5{fill:#024463;}.cls-6{fill:#55d6d2;}.cls-7{fill:#ffc231;}.cls-8{fill:#f47a20;}</style></defs><title>отчет 3</title><g class="cls-1"><polygon class="cls-2" points="1.03 37.08 1.03 35.41 9.73 31.3 9.73 32.95 1.03 37.08"/><rect class="cls-3" x="245.87" y="279.47" width="8.6" height="1.67" transform="translate(-245.3 -243.66) rotate(-0.09)"/><polygon class="cls-4" points="9.63 35.41 1.03 35.41 9.73 31.3 9.63 35.41"/><polygon class="cls-2" points="2.95 38.11 2.95 36.44 30.18 36.44 30.18 38.11 2.95 38.11"/><polygon class="cls-3" points="2.9 39.33 2.9 37.65 30.23 37.65 30.23 39.33 2.9 39.33"/><polygon class="cls-4" points="30.23 37.65 2.9 37.65 2.95 36.44 30.18 36.44 30.23 37.65"/><polygon class="cls-2" points="2.83 40.66 2.83 38.98 30.3 38.98 30.29 40.66 2.83 40.66"/><polygon class="cls-4" points="30.35 40.21 2.78 40.21 2.83 38.98 30.3 38.98 30.35 40.21"/><polygon class="cls-3" points="2.78 41.9 2.78 40.21 30.35 40.21 30.35 41.9 2.78 41.9"/><polygon class="cls-2" points="2.71 43.26 2.71 41.56 30.42 41.56 30.41 43.26 2.71 43.26"/><polygon class="cls-3" points="2.66 44.52 2.65 42.81 30.48 42.81 30.47 44.52 2.66 44.52"/><polygon class="cls-4" points="30.48 42.81 2.65 42.81 2.71 41.56 30.42 41.56 30.48 42.81"/><polygon class="cls-2" points="2.59 45.9 2.59 44.18 30.54 44.18 30.54 45.9 2.59 45.9"/><polygon class="cls-4" points="30.6 45.46 2.53 45.46 2.59 44.18 30.54 44.18 30.6 45.46"/><polygon class="cls-3" points="2.53 47.19 2.53 45.46 30.6 45.46 30.6 47.19 2.53 47.19"/><polygon class="cls-2" points="2.47 48.59 2.47 46.86 30.66 46.86 30.66 48.59 2.47 48.59"/><polygon class="cls-5" points="2.41 49.9 2.41 48.16 30.72 48.16 30.72 49.9 2.41 49.9"/><polygon class="cls-4" points="30.72 48.16 2.41 48.16 2.47 46.86 30.66 46.86 30.72 48.16"/><polygon class="cls-2" points="2.34 51.33 2.34 49.58 30.79 49.58 30.79 51.33 2.34 51.33"/><polygon class="cls-4" points="30.85 50.91 2.28 50.91 2.34 49.58 30.79 49.58 30.85 50.91"/><polygon class="cls-5" points="2.28 52.66 2.28 50.91 30.85 50.91 30.85 52.66 2.28 52.66"/><path class="cls-6" d="M244.84,298.81l1-19.34h8.6l.1-4.1h22.15L278,298.81Zm30.67-7.89h-28.2l-.06,1.3h28.32l-.06-1.3Zm-.13-2.67H247.43l-.06,1.28h28.07l-.06-1.28Zm-.12-2.63h-27.7l-.06,1.26h27.82l-.06-1.26Zm-.12-2.58H247.68l-.06,1.23H275.2l-.06-1.23Zm.49,10.61H247.18l-.06,1.32h28.57l-.06-1.32ZM275,280.5H247.79l0,1.21h27.34L275,280.5Z" transform="translate(-244.84 -244.06)"/><polygon class="cls-2" points="0 56.53 0 54.75 33.13 54.75 33.13 56.53 0 56.53"/></g><g class="cls-1"><polygon class="cls-2" points="1.03 33.19 1.03 31.52 9.73 27.41 9.73 29.06 1.03 33.19"/><rect class="cls-3" x="245.87" y="275.58" width="8.6" height="1.67" transform="translate(-245.29 -243.66) rotate(-0.09)"/><polygon class="cls-4" points="9.63 31.52 1.03 31.52 9.73 27.41 9.63 31.52"/><polygon class="cls-2" points="2.95 34.22 2.95 32.55 30.18 32.55 30.18 34.22 2.95 34.22"/><polygon class="cls-3" points="2.9 35.44 2.9 33.76 30.23 33.76 30.23 35.44 2.9 35.44"/><polygon class="cls-4" points="30.23 33.76 2.9 33.76 2.95 32.55 30.18 32.55 30.23 33.76"/><polygon class="cls-2" points="2.83 36.77 2.83 35.08 30.3 35.08 30.29 36.77 2.83 36.77"/><polygon class="cls-4" points="30.35 36.32 2.78 36.32 2.83 35.08 30.3 35.08 30.35 36.32"/><polygon class="cls-3" points="2.78 38.01 2.78 36.32 30.35 36.32 30.35 38.01 2.78 38.01"/><polygon class="cls-2" points="2.71 39.37 2.71 37.66 30.42 37.66 30.41 39.37 2.71 39.37"/><polygon class="cls-3" points="2.66 40.63 2.65 38.92 30.48 38.92 30.47 40.63 2.66 40.63"/><polygon class="cls-4" points="30.48 38.92 2.65 38.92 2.71 37.66 30.42 37.66 30.48 38.92"/><polygon class="cls-2" points="2.59 42.01 2.59 40.29 30.54 40.29 30.54 42.01 2.59 42.01"/><polygon class="cls-4" points="30.6 41.57 2.53 41.57 2.59 40.29 30.54 40.29 30.6 41.57"/><polygon class="cls-3" points="2.53 43.3 2.53 41.57 30.6 41.57 30.6 43.3 2.53 43.3"/><polygon class="cls-2" points="2.47 44.7 2.47 42.97 30.66 42.97 30.66 44.7 2.47 44.7"/><polygon class="cls-5" points="2.41 46.01 2.41 44.27 30.72 44.27 30.72 46.01 2.41 46.01"/><polygon class="cls-4" points="30.72 44.27 2.41 44.27 2.47 42.97 30.66 42.97 30.72 44.27"/><polygon class="cls-2" points="2.34 47.44 2.34 45.69 30.79 45.69 30.79 47.44 2.34 47.44"/><polygon class="cls-4" points="30.85 47.01 2.28 47.01 2.34 45.69 30.79 45.69 30.85 47.01"/><polygon class="cls-5" points="2.28 48.77 2.28 47.01 30.85 47.01 30.85 48.77 2.28 48.77"/><path class="cls-6" d="M244.84,294.92l1-19.34h8.6l.1-4.11h22.15L278,294.92ZM275.51,287h-28.2l-.06,1.3h28.32l-.06-1.3Zm-.13-2.68H247.43l-.06,1.28h28.07l-.06-1.28Zm-.12-2.62h-27.7L247.5,283h27.82l-.06-1.25Zm-.12-2.58H247.68l-.06,1.23H275.2l-.06-1.23Zm.49,10.6H247.18l-.06,1.33h28.57l-.06-1.33ZM275,276.61H247.79l0,1.21h27.34l-.06-1.21Z" transform="translate(-244.84 -244.06)"/><polygon class="cls-2" points="0 52.63 0 50.86 33.13 50.86 33.13 52.63 0 52.63"/></g><g class="cls-1"><polygon class="cls-2" points="1.03 29.29 1.03 27.62 9.73 23.52 9.73 25.17 1.03 29.29"/><rect class="cls-3" x="245.87" y="271.69" width="8.6" height="1.67" transform="translate(-245.28 -243.66) rotate(-0.09)"/><polygon class="cls-4" points="9.63 27.62 1.03 27.62 9.73 23.52 9.63 27.62"/><polygon class="cls-2" points="2.95 30.33 2.95 28.65 30.18 28.65 30.18 30.33 2.95 30.33"/><polygon class="cls-3" points="2.9 31.55 2.9 29.86 30.23 29.86 30.23 31.55 2.9 31.55"/><polygon class="cls-4" points="30.23 29.86 2.9 29.86 2.95 28.65 30.18 28.65 30.23 29.86"/><polygon class="cls-2" points="2.83 32.88 2.83 31.19 30.3 31.19 30.29 32.88 2.83 32.88"/><polygon class="cls-4" points="30.35 32.42 2.78 32.42 2.83 31.19 30.3 31.19 30.35 32.42"/><polygon class="cls-3" points="2.78 34.12 2.78 32.42 30.35 32.42 30.35 34.12 2.78 34.12"/><polygon class="cls-2" points="2.71 35.48 2.71 33.77 30.42 33.77 30.41 35.48 2.71 35.48"/><polygon class="cls-3" points="2.66 36.74 2.65 35.03 30.48 35.03 30.47 36.74 2.66 36.74"/><polygon class="cls-4" points="30.48 35.03 2.65 35.03 2.71 33.77 30.42 33.77 30.48 35.03"/><polygon class="cls-2" points="2.59 38.12 2.59 36.4 30.54 36.4 30.54 38.12 2.59 38.12"/><polygon class="cls-4" points="30.6 37.68 2.53 37.68 2.59 36.4 30.54 36.4 30.6 37.68"/><polygon class="cls-3" points="2.53 39.41 2.53 37.68 30.6 37.68 30.6 39.41 2.53 39.41"/><polygon class="cls-2" points="2.47 40.81 2.47 39.08 30.66 39.08 30.66 40.81 2.47 40.81"/><polygon class="cls-5" points="2.41 42.12 2.41 40.38 30.72 40.38 30.72 42.12 2.41 42.12"/><polygon class="cls-4" points="30.72 40.38 2.41 40.38 2.47 39.08 30.66 39.08 30.72 40.38"/><polygon class="cls-2" points="2.34 43.55 2.34 41.8 30.79 41.8 30.79 43.55 2.34 43.55"/><polygon class="cls-4" points="30.85 43.12 2.28 43.12 2.34 41.8 30.79 41.8 30.85 43.12"/><polygon class="cls-5" points="2.28 44.88 2.28 43.12 30.85 43.12 30.85 44.88 2.28 44.88"/><path class="cls-6" d="M244.84,291l1-19.34h8.6l.1-4.11h22.15L278,291Zm30.67-7.89h-28.2l-.06,1.3h28.32l-.06-1.3Zm-.13-2.68H247.43l-.06,1.28h28.07l-.06-1.28Zm-.12-2.63h-27.7l-.06,1.26h27.82l-.06-1.26Zm-.12-2.58H247.68l-.06,1.24H275.2l-.06-1.24Zm.49,10.61H247.18l-.06,1.32h28.57l-.06-1.32ZM275,272.72H247.79l0,1.21h27.34l-.06-1.21Z" transform="translate(-244.84 -244.06)"/><polygon class="cls-2" points="0 48.74 0 46.97 33.13 46.97 33.13 48.74 0 48.74"/></g><g class="cls-1"><polygon class="cls-2" points="1.03 25.4 1.03 23.73 9.73 19.63 9.73 21.27 1.03 25.4"/><rect class="cls-3" x="245.87" y="267.79" width="8.6" height="1.67" transform="translate(-245.28 -243.66) rotate(-0.09)"/><polygon class="cls-4" points="9.63 23.73 1.03 23.73 9.73 19.63 9.63 23.73"/><polygon class="cls-2" points="2.95 26.44 2.95 24.76 30.18 24.76 30.18 26.44 2.95 26.44"/><polygon class="cls-3" points="2.9 27.65 2.9 25.97 30.23 25.97 30.23 27.65 2.9 27.65"/><polygon class="cls-4" points="30.23 25.97 2.9 25.97 2.95 24.76 30.18 24.76 30.23 25.97"/><polygon class="cls-2" points="2.83 28.99 2.83 27.3 30.3 27.3 30.29 28.99 2.83 28.99"/><polygon class="cls-4" points="30.35 28.53 2.78 28.53 2.83 27.3 30.3 27.3 30.35 28.53"/><polygon class="cls-3" points="2.78 30.23 2.78 28.53 30.35 28.53 30.35 30.23 2.78 30.23"/><polygon class="cls-2" points="2.71 31.58 2.71 29.88 30.42 29.88 30.41 31.58 2.71 31.58"/><polygon class="cls-3" points="2.66 32.85 2.65 31.14 30.48 31.14 30.47 32.85 2.66 32.85"/><polygon class="cls-4" points="30.48 31.14 2.65 31.14 2.71 29.88 30.42 29.88 30.48 31.14"/><polygon class="cls-2" points="2.59 34.23 2.59 32.51 30.54 32.51 30.54 34.23 2.59 34.23"/><polygon class="cls-4" points="30.6 33.79 2.53 33.79 2.59 32.51 30.54 32.51 30.6 33.79"/><polygon class="cls-3" points="2.53 35.51 2.53 33.79 30.6 33.79 30.6 35.51 2.53 35.51"/><polygon class="cls-2" points="2.47 36.92 2.47 35.18 30.66 35.18 30.66 36.92 2.47 36.92"/><polygon class="cls-5" points="2.41 38.23 2.41 36.49 30.72 36.49 30.72 38.23 2.41 38.23"/><polygon class="cls-4" points="30.72 36.49 2.41 36.49 2.47 35.18 30.66 35.18 30.72 36.49"/><polygon class="cls-2" points="2.34 39.66 2.34 37.91 30.79 37.91 30.79 39.66 2.34 39.66"/><polygon class="cls-4" points="30.85 39.23 2.28 39.23 2.34 37.91 30.79 37.91 30.85 39.23"/><polygon class="cls-5" points="2.28 40.98 2.28 39.23 30.85 39.23 30.85 40.98 2.28 40.98"/><path class="cls-6" d="M244.84,287.14l1-19.35h8.6l.1-4.1h22.15L278,287.14Zm30.67-7.89h-28.2l-.06,1.3h28.32l-.06-1.3Zm-.13-2.68H247.43l-.06,1.28h28.07l-.06-1.28Zm-.12-2.63h-27.7l-.06,1.26h27.82l-.06-1.26Zm-.12-2.58H247.68l-.06,1.23H275.2l-.06-1.23Zm.49,10.61H247.18l-.06,1.32h28.57l-.06-1.32ZM275,268.82H247.79l0,1.21h27.34l-.06-1.21Z" transform="translate(-244.84 -244.06)"/><polygon class="cls-2" points="0 44.85 0 43.08 33.13 43.08 33.13 44.85 0 44.85"/></g><g class="cls-1"><polygon class="cls-2" points="1.03 21.51 1.03 19.84 9.73 15.73 9.73 17.38 1.03 21.51"/><rect class="cls-3" x="245.87" y="263.9" width="8.6" height="1.67" transform="translate(-245.27 -243.66) rotate(-0.09)"/><polygon class="cls-4" points="9.63 19.84 1.03 19.84 9.73 15.73 9.63 19.84"/><polygon class="cls-2" points="2.95 22.54 2.95 20.87 30.18 20.87 30.18 22.54 2.95 22.54"/><polygon class="cls-3" points="2.9 23.76 2.9 22.08 30.23 22.08 30.23 23.76 2.9 23.76"/><polygon class="cls-4" points="30.23 22.08 2.9 22.08 2.95 20.87 30.18 20.87 30.23 22.08"/><polygon class="cls-2" points="2.83 25.1 2.83 23.41 30.3 23.41 30.29 25.1 2.83 25.1"/><polygon class="cls-4" points="30.35 24.64 2.78 24.64 2.83 23.41 30.3 23.41 30.35 24.64"/><polygon class="cls-3" points="2.78 26.34 2.78 24.64 30.35 24.64 30.35 26.34 2.78 26.34"/><polygon class="cls-2" points="2.71 27.69 2.71 25.99 30.42 25.99 30.41 27.69 2.71 27.69"/><polygon class="cls-3" points="2.66 28.95 2.65 27.25 30.48 27.25 30.47 28.95 2.66 28.95"/><polygon class="cls-4" points="30.48 27.25 2.65 27.25 2.71 25.99 30.42 25.99 30.48 27.25"/><polygon class="cls-2" points="2.59 30.33 2.59 28.62 30.54 28.62 30.54 30.33 2.59 30.33"/><polygon class="cls-4" points="30.6 29.9 2.53 29.9 2.59 28.62 30.54 28.62 30.6 29.9"/><polygon class="cls-3" points="2.53 31.62 2.53 29.9 30.6 29.9 30.6 31.62 2.53 31.62"/><polygon class="cls-2" points="2.47 33.02 2.47 31.29 30.66 31.29 30.66 33.02 2.47 33.02"/><polygon class="cls-5" points="2.41 34.33 2.41 32.59 30.72 32.59 30.72 34.33 2.41 34.33"/><polygon class="cls-4" points="30.72 32.59 2.41 32.59 2.47 31.29 30.66 31.29 30.72 32.59"/><polygon class="cls-2" points="2.34 35.76 2.34 34.02 30.79 34.02 30.79 35.76 2.34 35.76"/><polygon class="cls-4" points="30.85 35.34 2.28 35.34 2.34 34.02 30.79 34.02 30.85 35.34"/><polygon class="cls-5" points="2.28 37.09 2.28 35.34 30.85 35.34 30.85 37.09 2.28 37.09"/><path class="cls-6" d="M244.84,283.25l1-19.35h8.6l.1-4.1h22.15L278,283.25Zm30.67-7.9h-28.2l-.06,1.31h28.32l-.06-1.31Zm-.13-2.67H247.43l-.06,1.28h28.07l-.06-1.28Zm-.12-2.63h-27.7l-.06,1.26h27.82l-.06-1.26Zm-.12-2.58H247.68l-.06,1.23H275.2l-.06-1.23Zm.49,10.61H247.18l-.06,1.32h28.57l-.06-1.32ZM275,264.93H247.79l0,1.21h27.34l-.06-1.21Z" transform="translate(-244.84 -244.06)"/><polygon class="cls-2" points="0 40.96 0 39.18 33.13 39.18 33.13 40.96 0 40.96"/></g><rect class="cls-6" x="16.07" y="55.02" width="1" height="1.5"/><path class="cls-6" d="M261.91,312.35h-1v-2.94h1Zm0-5.88h-1v-3h1Z" transform="translate(-244.84 -244.06)"/><polygon class="cls-6" points="18.07 73.23 16.07 73.23 16.07 71.23 17.07 71.23 17.07 72.23 18.07 72.23 18.07 73.23"/><path class="cls-6" d="M297.2,317.29h-2.86v-1h2.86Zm-5.72,0h-2.85v-1h2.85Zm-5.71,0h-2.86v-1h2.86Zm-5.72,0H277.2v-1h2.85Zm-5.71,0h-2.86v-1h2.86Zm-5.72,0h-2.85v-1h2.85Z" transform="translate(-244.84 -244.06)"/><polygon class="cls-6" points="57.21 73.23 55.21 73.23 55.21 72.23 56.21 72.23 56.21 71.23 57.21 71.23 57.21 73.23"/><rect class="cls-6" x="56.21" y="66.26" width="1" height="2.48"/><rect class="cls-6" x="56.21" y="62.28" width="1" height="1.5"/><polygon class="cls-6" points="59.2 63.01 56.71 58.69 54.22 63.01 59.2 63.01"/><rect class="cls-6" x="56.21" y="11.63" width="1" height="1.5"/><rect class="cls-6" x="56.21" y="5.21" width="1" height="3.21"/><polygon class="cls-6" points="57.21 2 56.21 2 56.21 1 55.21 1 55.21 0 57.21 0 57.21 2"/><path class="cls-6" d="M297.2,245.06h-2.86v-1h2.86Zm-5.72,0h-2.85v-1h2.85Zm-5.71,0h-2.86v-1h2.86Zm-5.72,0H277.2v-1h2.85Zm-5.71,0h-2.86v-1h2.86Zm-5.72,0h-2.85v-1h2.85Z" transform="translate(-244.84 -244.06)"/><polygon class="cls-6" points="17.07 2 16.07 2 16.07 0 18.07 0 18.07 1 17.07 1 17.07 2"/><rect class="cls-6" x="16.07" y="4.48" width="1" height="2.48"/><rect class="cls-6" x="16.07" y="9.45" width="1" height="1.5"/><polygon class="cls-6" points="14.07 10.22 16.57 14.54 19.06 10.22 14.07 10.22"/><path class="cls-7" d="M284.47,288.13v5.54c0,4.58,7.65,8.3,17.09,8.3s17.08-3.72,17.08-8.3v-5.54Z" transform="translate(-244.84 -244.06)"/><path class="cls-8" d="M318.64,288.13c0,4.58-7.65,8.3-17.08,8.3s-17.09-3.72-17.09-8.3,7.65-8.31,17.09-8.31S318.64,283.54,318.64,288.13Z" transform="translate(-244.84 -244.06)"/><path class="cls-7" d="M284.47,281.42V287c0,4.58,7.65,8.3,17.09,8.3s17.08-3.72,17.08-8.3v-5.54Z" transform="translate(-244.84 -244.06)"/><path class="cls-8" d="M318.64,281.42c0,4.59-7.65,8.3-17.08,8.3s-17.09-3.71-17.09-8.3,7.65-8.31,17.09-8.31S318.64,276.83,318.64,281.42Z" transform="translate(-244.84 -244.06)"/><path class="cls-7" d="M284.47,274.71v5.54c0,4.58,7.65,8.3,17.09,8.3s17.08-3.72,17.08-8.3v-5.54Z" transform="translate(-244.84 -244.06)"/><path class="cls-8" d="M318.64,274.71c0,4.59-7.65,8.31-17.08,8.31s-17.09-3.72-17.09-8.31,7.65-8.3,17.09-8.3S318.64,270.13,318.64,274.71Z" transform="translate(-244.84 -244.06)"/><path class="cls-7" d="M284.47,268v5.54c0,4.59,7.65,8.31,17.09,8.31s17.08-3.72,17.08-8.31V268Z" transform="translate(-244.84 -244.06)"/><path class="cls-7" d="M318.64,268c0,4.59-7.65,8.31-17.08,8.31s-17.09-3.72-17.09-8.31,7.65-8.3,17.09-8.3S318.64,263.42,318.64,268Z" transform="translate(-244.84 -244.06)"/><path class="cls-8" d="M284.47,261.3v5.54c0,4.58,7.65,8.3,17.09,8.3s17.08-3.72,17.08-8.3V261.3Z" transform="translate(-244.84 -244.06)"/><path class="cls-7" d="M318.64,261.3c0,4.58-7.65,8.3-17.08,8.3s-17.09-3.72-17.09-8.3,7.65-8.31,17.09-8.31S318.64,256.71,318.64,261.3Z" transform="translate(-244.84 -244.06)"/></svg>