<svg id="Слой_1" data-name="Слой 1" xmlns="http://www.w3.org/2000/svg" viewBox="0 0 728.67 628.76"><defs><style>.cls-1{fill:#6794ef;}.cls-2,.cls-9{fill:#fff;}.cls-3{fill:#e7e6e8;}.cls-4{fill:#464e57;}.cls-5{fill:#b7b8ba;}.cls-6{fill:#2e3640;}.cls-7{fill:#d5d6d5;}.cls-8{fill:#2f363e;}.cls-9{opacity:0.38;}.cls-10{fill:#a0cfd5;opacity:0.51;}.cls-11{fill:#9d9e9f;}.cls-12{fill:#4c2807;}.cls-13{fill:#281b0d;}.cls-14{fill:#38170d;}.cls-15{fill:#3d8d91;}.cls-16{fill:#69b3b9;}.cls-17{fill:#eac78e;}.cls-18{fill:#282928;}</style></defs><title>кофе2</title><rect class="cls-1" x="107.23" y="121.07" width="384.99" height="526.55" transform="translate(-135.93 16.29) rotate(-15.66)"/><rect class="cls-2" x="123.86" y="137.98" width="350.26" height="487.54" transform="translate(-135.26 16) rotate(-15.66)"/><rect class="cls-3" x="127.11" y="161.62" width="175.13" height="487.54" transform="matrix(0.96, -0.27, 0.27, 0.96, -144.77, -5.88)"/><path class="cls-4" d="M299.64,111.11l-57.11,16A20.09,20.09,0,0,0,244,116.84a20.3,20.3,0,1,0-32.08,18.87l-53.61,15L169.55,191l141.36-39.64ZM222.29,107a12.44,12.44,0,1,1-10.82,13.88A12.44,12.44,0,0,1,222.29,107Z" transform="translate(-43.31 -78.88)"/><path class="cls-5" d="M386.12,225.84c1,3.3.58,6.3-.85,6.72L257.94,269.42c-1.42.41-3.35-1.93-4.31-5.22h0c-.95-3.3-.57-6.31.86-6.72l127.32-36.87c1.43-.41,3.36,1.93,4.31,5.23Z" transform="translate(-43.31 -78.88)"/><path class="cls-5" d="M391.41,244.09c.95,3.3.38,6.36-1.29,6.85L241.2,294.05c-1.67.48-3.79-1.8-4.75-5.1h0c-.95-3.29-.38-6.36,1.29-6.84L386.66,239c1.67-.48,3.79,1.8,4.75,5.1Z" transform="translate(-43.31 -78.88)"/><path class="cls-5" d="M460.47,482.64c.91,3.14.3,6.08-1.37,6.56L310.18,532.32c-1.67.48-3.76-1.68-4.67-4.82h0c-.91-3.15-.29-6.09,1.37-6.57L455.8,477.82c1.67-.49,3.76,1.67,4.67,4.82Z" transform="translate(-43.31 -78.88)"/><path class="cls-5" d="M466.18,502.35c.91,3.14.29,6.08-1.37,6.57L315.89,552c-1.67.48-3.76-1.67-4.67-4.82h0c-.91-3.14-.3-6.08,1.37-6.56l148.92-43.12c1.67-.48,3.76,1.68,4.67,4.82Z" transform="translate(-43.31 -78.88)"/><path class="cls-5" d="M424.23,357.46c.77,2.65,0,5.18-1.63,5.67L273.68,406.24c-1.67.48-3.64-1.27-4.41-3.92h0c-.76-2.64,0-5.18,1.63-5.66l148.92-43.11c1.67-.49,3.64,1.27,4.41,3.91Z" transform="translate(-43.31 -78.88)"/><path class="cls-5" d="M429.38,375.24c.76,2.65.21,5.13-1.23,5.55L299.26,418.1c-1.44.42-3.23-1.38-4-4h0c-.77-2.65-.22-5.13,1.22-5.55l128.9-37.31c1.44-.42,3.23,1.39,4,4Z" transform="translate(-43.31 -78.88)"/><path class="cls-5" d="M418.73,338.47c.77,2.65.23,5.13-1.2,5.54L289.92,381c-1.43.41-3.21-1.4-4-4h0c-.76-2.65-.22-5.13,1.2-5.54l127.62-36.95c1.43-.41,3.21,1.4,4,4Z" transform="translate(-43.31 -78.88)"/><path class="cls-6" d="M213,255.69l-11.18-6.36a2.23,2.23,0,0,0-3,.83l-24.7,43.35-22.82-12.45a2.22,2.22,0,0,0-3,.82L141.79,293a2.22,2.22,0,0,0,.82,3l36.09,19.68a2.22,2.22,0,0,0,3-.82l4.6-8s0,0,0,0l.69-1.2,1.09-1.91s0,0,0-.06l25.63-45A2.23,2.23,0,0,0,213,255.69Z" transform="translate(-43.31 -78.88)"/><path class="cls-6" d="M251.39,388.4,240.21,382a2.23,2.23,0,0,0-3,.83l-24.7,43.35-22.82-12.45a2.22,2.22,0,0,0-3,.82l-6.41,11.16a2.23,2.23,0,0,0,.83,3l36.09,19.69a2.23,2.23,0,0,0,3-.83l4.6-8,0,0,.69-1.2,1.09-1.91,0-.06,25.63-45A2.22,2.22,0,0,0,251.39,388.4Z" transform="translate(-43.31 -78.88)"/><path class="cls-6" d="M288.18,515.49,277,509.12a2.23,2.23,0,0,0-3,.83l-24.7,43.35-22.83-12.45a2.23,2.23,0,0,0-3,.82L217,552.83a2.23,2.23,0,0,0,.82,3l36.09,19.69a2.23,2.23,0,0,0,3-.83l4.6-8,0,0,.68-1.21,1.1-1.91,0-.06,25.64-45A2.23,2.23,0,0,0,288.18,515.49Z" transform="translate(-43.31 -78.88)"/><path class="cls-7" d="M409.48,608.4c-1-1.2-5.26.72-9.51,4.28s-6.89,7.42-5.89,8.61,5.26-.72,9.51-4.28S410.48,609.59,409.48,608.4Z" transform="translate(-43.31 -78.88)"/><path class="cls-8" d="M673.64,435.85,497.27,590.73a34.75,34.75,0,0,0-8,10.3L450.8,676.49a9.65,9.65,0,0,0,.85,10.37c2.07,2.6,5.94,4.54,11.82.54,2.23-1.52,4.29-4.78,5.31-7.28l27.27-67.65a34.89,34.89,0,0,1,10.34-13.89L685.26,454Z" transform="translate(-43.31 -78.88)"/><path class="cls-8" d="M387.18,611.31,603.84,521a34.62,34.62,0,0,1,12.77-2.66L701.3,517a9.66,9.66,0,0,1,8.94,5.33c1.42,3,1.46,7.33-4.72,10.85-2.35,1.33-6.17,1.75-8.87,1.57l-72.74-5.27a34.83,34.83,0,0,0-17,3.18l-208.53,97Z" transform="translate(-43.31 -78.88)"/><path class="cls-8" d="M681.35,464.44c-.25-3,6.64-7,6.61-10-.06-5.34-9.55-15.61-12.89-17.82-5.35-3.52-6.51,6-26.87,9.18-56,8.8-104.51,63.92-104.51,63.92-5.52.85-12.31,3.65-18.73,7.65s-12.13,8.63-15.42,13.14c0,0-71.24,17.77-104.79,63.49-12.2,16.62-21.16,13.28-20.49,19.66.42,4,5.2,17.13,9.91,19.63,2.68,1.42,9.39-2.88,11.94-1.27,15.24,9.58,25.62,42.68,65,32.79s71-43.66,66.33-74.84c-5-24.85-16.68-43.42-2.24-52.52.48-.33,1-.67,1.41-.92s.94-.55,1.45-.82c14.72-8.64,25.82,10.28,45.62,26.11,25.57,18.43,70.07,5.91,96.94-24.55S682.86,482.39,681.35,464.44Zm-183,178.64A138.39,138.39,0,0,1,486,649.83a85.53,85.53,0,0,1-11.26,4.47c-1.78.55-3.54,1-5.3,1.39a39,39,0,0,1-19.42-.28,32.67,32.67,0,0,1-10.65-5.75,69.34,69.34,0,0,1-15.76-18.14c-5.77-9.48-9.54-17.39-7.48-28.24,1.77-9.32,8.45-17.29,17-24.3a163.28,163.28,0,0,1,18.48-12.73c2.94-1.79,6.05-3.55,9.26-5.21,1.58-.82,3.17-1.61,4.79-2.38,3.35-1.58,6.78-3,10.23-4.3,13.85-5.1,28-7.11,38.15-1.79,3.93,2,8.56,14.09,10.69,19.17C535.07,596.66,525.61,626.47,498.32,643.08Zm150.57-91.55a69.61,69.61,0,0,1-14,6.58,63.42,63.42,0,0,1-11.42,2.7c-1.58.22-3.16.38-4.73.47a55.62,55.62,0,0,1-30.11-6.59,53.18,53.18,0,0,1-15.31-12.55c-3.54-4.22-12.12-13.89-12.15-18.33-.06-12.36,9.5-24.86,21.6-35.31a146,146,0,0,1,19.31-14c2.73-1.66,5.53-3.31,8.35-4.88,1.63-.9,3.27-1.78,4.92-2.62a101.72,101.72,0,0,1,10.27-4.59c8.91-3.35,17.73-4.82,25.73-2.44,10.61,3.16,15.92,10.15,21.7,19.65s11.22,23.6,9.12,34.51C679.13,529.64,664.93,541.77,648.89,551.53Z" transform="translate(-43.31 -78.88)"/><path class="cls-9" d="M514,552.57c-16.44-8.59-43.13,1.94-62.43,13.68-16,9.77-32.51,21.55-35.46,37-2.07,10.85,1.7,18.76,7.47,28.24s15.78,20.76,26.42,23.9c15.08,4.44,32.34-2.6,48.34-12.34,27.29-16.61,36.75-46.42,26.34-71.34C522.54,566.66,517.91,554.62,514,552.57Z" transform="translate(-43.31 -78.88)"/><path class="cls-9" d="M673,479.66c-5.78-9.5-11.09-16.49-21.69-19.65-15.14-4.5-33.21,4.74-49.28,14.53-19.33,11.77-41,30.69-40.91,49.27,0,4.44,8.61,14.11,12.15,18.34,17.39,20.73,48.28,26,75.63,9.38,16-9.76,30.23-21.89,33.22-37.36C684.23,503.26,678.81,489.19,673,479.66Z" transform="translate(-43.31 -78.88)"/><path class="cls-10" d="M469.4,655.69a39,39,0,0,1-19.42-.28,32.67,32.67,0,0,1-10.65-5.75L433.07,579a163.28,163.28,0,0,1,18.48-12.73c2.94-1.79,6.05-3.55,9.26-5.21Z" transform="translate(-43.31 -78.88)"/><path class="cls-10" d="M486,649.83a85.53,85.53,0,0,1-11.26,4.47l-9.1-95.64c3.35-1.58,6.78-3,10.23-4.3Z" transform="translate(-43.31 -78.88)"/><path class="cls-10" d="M618.69,561.28a55.62,55.62,0,0,1-30.11-6.59l-5.86-66.19a146,146,0,0,1,19.31-14c2.73-1.66,5.53-3.31,8.35-4.88Z" transform="translate(-43.31 -78.88)"/><path class="cls-10" d="M634.84,558.11a63.42,63.42,0,0,1-11.42,2.7L615.3,467a101.72,101.72,0,0,1,10.27-4.59Z" transform="translate(-43.31 -78.88)"/><path class="cls-3" d="M767.79,238.85a148.73,148.73,0,0,1-1.54,21.24,146.29,146.29,0,0,1-144.73,125c-2.12,0-4.22-.06-6.32-.14A146.26,146.26,0,1,1,767.79,238.85Z" transform="translate(-43.31 -78.88)"/><path class="cls-2" d="M621.52,88.39c-83,0-150.48,67.49-150.48,150.46A150,150,0,0,0,615,389.16c1.56.06,3.13.11,4.69.11l-4.27-4.3L611,380.52A141.64,141.64,0,0,1,479.43,238.85c0-78.33,63.73-142.07,142.09-142.07s142.07,63.74,142.07,142.07a139.57,139.57,0,0,1-1,17.08l3.74,3.74,3.67,3.67c.16-.87.27-1.74.42-2.63A151.35,151.35,0,0,0,772,238.85C772,155.88,704.49,88.39,621.52,88.39Z" transform="translate(-43.31 -78.88)"/><path class="cls-11" d="M770,263.34c-11.77,72-75.15,126-148.45,126-.61,0-1.2,0-1.79,0l-4.27-4.3L611,380.52c1.43.12,2.88.2,4.33.26,2,.08,4.08.14,6.15.14,70.09,0,130.5-52.2,140.59-121.44.17-1.18.34-2.38.45-3.55l3.74,3.74Z" transform="translate(-43.31 -78.88)"/><path class="cls-5" d="M762.56,255.93c-.11,1.17-.28,2.37-.45,3.55C752,328.72,691.61,380.92,621.52,380.92c-2.07,0-4.11-.06-6.15-.14-1.45-.06-2.9-.14-4.33-.26l-128.73-130,207.9-66.78Z" transform="translate(-43.31 -78.88)"/><path class="cls-2" d="M486.94,250.57h50.77a.14.14,0,0,0,.14-.14V229.78a2,2,0,0,0-2-2H487.22a11.56,11.56,0,0,0-11.52,11.53h0A11.28,11.28,0,0,0,486.94,250.57Z" transform="translate(-43.31 -78.88)"/><circle class="cls-2" cx="578.21" cy="159.96" r="87.63"/><path class="cls-12" d="M693.82,238.85A72.34,72.34,0,1,1,686,206.08,72.31,72.31,0,0,1,693.82,238.85Z" transform="translate(-43.31 -78.88)"/><path class="cls-13" d="M693.82,238.85a72.28,72.28,0,0,1-128.43,45.56A72.29,72.29,0,0,1,686,206.08,71.76,71.76,0,0,1,693.82,238.85Z" transform="translate(-43.31 -78.88)"/><path class="cls-14" d="M87.18,477.92,296.33,706.5a3.38,3.38,0,0,0,4.77.3l13-11.91a3.39,3.39,0,0,0,.11-4.78L105.08,461.53a3.6,3.6,0,0,0-.59-.51L86.72,477.28A3.14,3.14,0,0,0,87.18,477.92Z" transform="translate(-43.31 -78.88)"/><path class="cls-15" d="M308.83,699.73l5.29-4.84a3.39,3.39,0,0,0,.11-4.78L105.08,461.53a3.6,3.6,0,0,0-.59-.51l-5.29,4.84a4,4,0,0,1,.45.37l.14.14L308.94,695A3.39,3.39,0,0,1,308.83,699.73Z" transform="translate(-43.31 -78.88)"/><path class="cls-16" d="M93.48,472.14,302.64,700.73c1.28,1.4,2.71,2.18,3.18,1.75l4.59-4.2c.47-.43-.18-1.92-1.47-3.33L99.79,466.37l-.14-.14-.4-.41L93,471.55C93.14,471.75,93.31,472,93.48,472.14Z" transform="translate(-43.31 -78.88)"/><path class="cls-17" d="M104.63,461.1s-28.82-15.66-29.87-14.76,12,31.06,12,31.06Z" transform="translate(-43.31 -78.88)"/><path class="cls-18" d="M85.4,451s-10.32-5.38-10.78-4.83,3.8,11.16,3.8,11.16Z" transform="translate(-43.31 -78.88)"/></svg>