<svg id="Слой_1" data-name="Слой 1" xmlns="http://www.w3.org/2000/svg" viewBox="0 0 730.93 590.73"><defs><style>.cls-1{fill:#f6f4f4;}.cls-2{fill:#b3b2b3;}.cls-3{fill:#ec8457;}.cls-4{fill:#d67040;}.cls-5{fill:#cccbcb;}.cls-6{fill:#5b6375;}.cls-7{fill:#73bcc4;}.cls-8{fill:#5e9ba3;}.cls-11,.cls-9{fill:#2f363e;}.cls-9{opacity:0.8;}.cls-10{fill:#a0a09f;}.cls-12{fill:#464e57;}.cls-13{fill:#f1f1f1;}</style></defs><title>портфель</title><path class="cls-1" d="M362.45,98H695.58s37.37,9,33,44.71L729,611H473s7,38.58-35.75,40.75c0,0-31.28,2.5-38.59-36.09l-1.49-477.73S399.83,107,362.45,98Z" transform="translate(-49 -61.51)"/><path class="cls-2" d="M438,651.78l314-.09S784.7,643,779.33,611H470.23S476.48,649.18,438,651.78Z" transform="translate(-49 -61.51)"/><rect class="cls-3" x="380.08" y="106.01" width="268.21" height="10.61"/><rect class="cls-3" x="380.08" y="120.15" width="268.21" height="10.61"/><rect class="cls-3" x="380.08" y="134.28" width="268.21" height="10.61"/><rect class="cls-3" x="380.08" y="148.41" width="268.21" height="10.61"/><rect class="cls-4" x="380.08" y="182.3" width="39.9" height="24.18"/><rect class="cls-4" x="380.08" y="216.23" width="39.9" height="18.85"/><rect class="cls-4" x="429.4" y="182.3" width="39.9" height="24.18"/><rect class="cls-4" x="429.4" y="216.23" width="39.9" height="18.85"/><path class="cls-2" d="M397.13,136H322.25c0-22,16.77-37.48,37.44-37.48S397.13,117,397.13,136Z" transform="translate(-49 -61.51)"/><path class="cls-5" d="M685.45,310H431V585H698V310ZM683,319V573H443V319Z" transform="translate(-49 -61.51)"/><path class="cls-6" d="M568.5,238.23c-16.44.34-29.67,13.52-29.67,29.73,0,16.44,13.58,29.76,30.32,29.76a30.72,30.72,0,0,0,13.45-3.09L567.83,268Z" transform="translate(-49 -61.51)"/><path class="cls-7" d="M573.06,233.6l-1,32.14L603,274.65a32.17,32.17,0,0,0-29.9-41Z" transform="translate(-49 -61.51)"/><polyline class="cls-8" points="544.76 238.44 521.78 206.46 559.2 219.38"/><path class="cls-8" d="M608.2,280.89,570.78,268l23,32A39.86,39.86,0,0,0,608.2,280.89Z" transform="translate(-49 -61.51)"/><rect class="cls-2" x="578.47" y="182.3" width="69.82" height="5.32"/><rect class="cls-2" x="578.47" y="191.73" width="69.82" height="5.32"/><rect class="cls-2" x="578.47" y="201.16" width="69.82" height="5.32"/><rect class="cls-2" x="578.47" y="210.58" width="69.82" height="5.32"/><rect class="cls-2" x="578.47" y="220.01" width="69.82" height="5.32"/><rect class="cls-2" x="578.47" y="229.44" width="69.82" height="5.32"/><rect class="cls-2" x="405.98" y="339.58" width="134.51" height="5.32"/><rect class="cls-2" x="405.98" y="349.01" width="134.51" height="5.32"/><rect class="cls-2" x="405.98" y="358.43" width="134.51" height="5.32"/><rect class="cls-2" x="405.98" y="367.86" width="134.51" height="5.32"/><rect class="cls-2" x="405.98" y="377.29" width="134.51" height="5.32"/><rect class="cls-2" x="405.98" y="386.72" width="134.51" height="5.32"/><rect class="cls-2" x="508.59" y="435.94" width="117.16" height="5.32"/><rect class="cls-2" x="508.59" y="445.37" width="117.16" height="5.32"/><rect class="cls-2" x="508.59" y="454.8" width="117.16" height="5.32"/><rect class="cls-2" x="508.59" y="464.22" width="117.16" height="5.32"/><rect class="cls-2" x="508.59" y="473.65" width="117.16" height="5.32"/><rect class="cls-2" x="508.59" y="482.1" width="117.16" height="5.32"/><rect class="cls-2" x="508.59" y="491.53" width="117.16" height="5.32"/><rect class="cls-2" x="508.59" y="500.96" width="117.16" height="5.32"/><rect class="cls-7" x="400.03" y="272.54" width="226.9" height="5.83"/><rect class="cls-7" x="400.03" y="286.11" width="226.9" height="5.83"/><rect class="cls-7" x="400.03" y="299.68" width="226.9" height="5.83"/><rect class="cls-7" x="400.03" y="313.25" width="226.9" height="5.83"/><rect class="cls-7" x="400.03" y="326.83" width="226.9" height="5.83"/><rect class="cls-9" x="400.03" y="470.74" width="12.03" height="33.7"/><rect class="cls-9" x="417.45" y="459.77" width="12.03" height="44.67"/><rect class="cls-9" x="469.72" y="459.77" width="12.03" height="44.67"/><rect class="cls-9" x="434.88" y="416.96" width="12.03" height="87.47"/><rect class="cls-9" x="452.3" y="434.77" width="12.03" height="69.67"/><rect class="cls-9" x="487.14" y="404.54" width="12.03" height="99.9"/><path class="cls-5" d="M603.76,449.77a21.74,21.74,0,1,0,22.57-22.45V434a15.11,15.11,0,0,1-.84,30.19c-8.11,0-14.67-5.84-15-13.85Z" transform="translate(-49 -61.51)"/><path class="cls-3" d="M602.44,449.77A23.06,23.06,0,1,0,626.33,426v7.05a16,16,0,1,1-16.85,16.72Z" transform="translate(-49 -61.51)"/><path class="cls-5" d="M599.75,465.42a30.5,30.5,0,1,0,26.58-46.85v8.48a22,22,0,0,1-.84,44c-8.08,0-14.69-3.78-18.51-10.26Z" transform="translate(-49 -61.51)"/><path class="cls-10" d="M598.8,466.15a31.69,31.69,0,1,0,27.53-48.78v8.82a22.88,22.88,0,1,1-20.5,34.58l-6.08,4.65Z" transform="translate(-49 -61.51)"/><path class="cls-5" d="M616.68,487.24a39.19,39.19,0,1,0,9.65-77.36v8.82a30.36,30.36,0,0,1,29.53,30.35c0,16.77-13.06,30.33-29.83,30.33a30.54,30.54,0,0,1-7.34-.72Z" transform="translate(-49 -61.51)"/><path class="cls-10" d="M616.48,488.49a40.45,40.45,0,1,0,9.85-79.87v9.1A31.34,31.34,0,1,1,618,479.48l-1.29,7.76Z" transform="translate(-49 -61.51)"/><path class="cls-5" d="M626.33,400.88v8.79a39.4,39.4,0,0,1,38.55,39.38,35,35,0,0,1-3.79,16.81l7.3,5.16a48.21,48.21,0,0,0-42.06-70.14Z" transform="translate(-49 -61.51)"/><path class="cls-10" d="M668.39,471l-7-3.79a40.28,40.28,0,0,0-35.1-58.44v-9a49.29,49.29,0,0,1,43,71.73Z" transform="translate(-49 -61.51)"/><path class="cls-7" d="M622.6,429.86a3.49,3.49,0,1,0,3.49-3.49A3.48,3.48,0,0,0,622.6,429.86Z" transform="translate(-49 -61.51)"/><path class="cls-11" d="M125.46,258.36H332.34A111.58,111.58,0,0,1,443.92,369.94V524.49a66.23,66.23,0,0,1-66.23,66.23H80.12a66.23,66.23,0,0,1-66.23-66.23V369.94A111.58,111.58,0,0,1,125.46,258.36Z"/><path class="cls-1" d="M247,310h-31.9c.85-9,7.67-14.33,15.95-14.33S246.11,301,247,310Z" transform="translate(-49 -61.51)"/><path class="cls-1" d="M345.26,310H313.43c1-9,7.72-14.07,15.91-14.07S344.29,301,345.26,310Z" transform="translate(-49 -61.51)"/><rect class="cls-1" x="177.6" y="223.24" width="8.83" height="20.69" rx="3.46" ry="3.46"/><rect class="cls-1" x="275.93" y="223.24" width="8.83" height="20.69" rx="3.46" ry="3.46"/><path class="cls-6" d="M506,363.2v87.67c0,29.94-24.49,55.13-54.42,55.13H103C73,506,49,480.81,49,450.87V363.2c0-29.94,24-55.2,54-55.2H451.58C481.51,308,506,333.26,506,363.2Z" transform="translate(-49 -61.51)"/><path class="cls-6" d="M236.9,288.92a1.48,1.48,0,0,0,1.27-1.61v0c0-24.61,19.18-26.65,42.14-26.65s41,2,41,26.65v0a1.46,1.46,0,0,0,1.27,1.61h12.57a1.45,1.45,0,0,0,1.27-1.58v0c0-33.56-25.37-40.19-56.67-40.19s-56.67,6.63-56.67,40.19v0a1.45,1.45,0,0,0,1.27,1.58Z" transform="translate(-49 -61.51)"/><path class="cls-11" d="M329.33,287.2v0c0-28.41-22.29-34-49.66-34s-49.66,5.61-49.66,34v0c0,.74.77,1.72,1.38,1.72H237c.71,0,1.22-.79,1.22-1.68v-.57c.51-24.52,20.69-26.11,42.14-26,23.09.08,40.53,1.92,41,26.16,0,0-.25,1.8,1.14,2.11h5.84C328.88,288.92,329.33,287.94,329.33,287.2Z" transform="translate(-49 -61.51)"/><path class="cls-1" d="M179,516.53V573a20,20,0,1,1-40,0v-56.1a8.48,8.48,0,0,0,6.31,3.08h27.24A8,8,0,0,0,179,516.53Z" transform="translate(-49 -61.51)"/><path class="cls-11" d="M179,308.7V516.53a8.09,8.09,0,0,1-6.47,3.13H145.31c-2.51,0-4.33-1.23-6.7-2.74V308.7Z" transform="translate(-49 -61.51)"/><path class="cls-1" d="M423,516.09V573a20.5,20.5,0,0,1-41,0V517.28c2,1.3,4.06,2.72,6.36,2.72H415.6C418.55,520,421,518.1,423,516.09Z" transform="translate(-49 -61.51)"/><path class="cls-11" d="M423.26,308.7V516.09c-2.38,2-4.71,3.57-7.66,3.57H388.36a10.47,10.47,0,0,1-6.1-2.38V308.7Z" transform="translate(-49 -61.51)"/><path class="cls-1" d="M165.75,459.79c0,3-2.89,5.5-6.45,5.5s-6.44-2.46-6.44-5.5,2.89-5.51,6.44-5.51S165.75,456.74,165.75,459.79Z" transform="translate(-49 -61.51)"/><path class="cls-1" d="M165.75,428.52c0,3-2.89,5.51-6.45,5.51s-6.44-2.47-6.44-5.51,2.89-5.51,6.44-5.51S165.75,425.48,165.75,428.52Z" transform="translate(-49 -61.51)"/><path class="cls-1" d="M409.05,459.81c0,3-2.87,5.48-6.41,5.48s-6.41-2.45-6.41-5.48,2.87-5.47,6.41-5.47S409.05,456.79,409.05,459.81Z" transform="translate(-49 -61.51)"/><path class="cls-1" d="M409.05,428.77c0,3-2.87,5.47-6.41,5.47s-6.41-2.45-6.41-5.47,2.87-5.48,6.41-5.48S409.05,425.74,409.05,428.77Z" transform="translate(-49 -61.51)"/><path class="cls-4" d="M179.43,489.31a10.32,10.32,0,0,0-7.05-2.93H145.13a10.15,10.15,0,0,0-6.55,2.54,10.33,10.33,0,0,0-3.54,7.82v17.37a10.27,10.27,0,0,0,3.54,7.79,10.12,10.12,0,0,0,6.55,2.51h27.25a10.34,10.34,0,0,0,10.2-10.3V496.74A10.41,10.41,0,0,0,179.43,489.31Zm-4,22.12a6.89,6.89,0,0,1-2,5.06,6.74,6.74,0,0,1-4.72,2H150a7.33,7.33,0,0,1-4.63-1.7,7.16,7.16,0,0,1-2.55-5.34V499.49a7.25,7.25,0,0,1,2.55-5.4,7.34,7.34,0,0,1,4.63-1.77h18.73a6.79,6.79,0,0,1,4.72,2,7.07,7.07,0,0,1,2,5.13Z" transform="translate(-49 -61.51)"/><path class="cls-4" d="M423.25,486.49a10,10,0,0,0-6.87-3.08H389.14a10.91,10.91,0,0,0-10.45,10.65v17.37a10.1,10.1,0,0,0,3.72,7.65,10.46,10.46,0,0,0,6.73,2.36h27.24a9.69,9.69,0,0,0,6.87-2.76,9.8,9.8,0,0,0,3-7.25V494.06A10.55,10.55,0,0,0,423.25,486.49Zm-4.15,22.26a6.49,6.49,0,0,1-1.87,4.92,6.21,6.21,0,0,1-4.55,1.83H394a7.62,7.62,0,0,1-4.8-1.56,7,7,0,0,1-2.73-5.19V496.81a7.71,7.71,0,0,1,2.73-5.54,7.93,7.93,0,0,1,4.8-1.92h18.73a6.55,6.55,0,0,1,4.55,2.19,7.29,7.29,0,0,1,1.87,5.27Z" transform="translate(-49 -61.51)"/><path class="cls-12" d="M151.28,111.08a49.57,49.57,0,1,0,49.56-49.57A49.56,49.56,0,0,0,151.28,111.08Z" transform="translate(-49 -61.51)"/><circle class="cls-13" cx="200.84" cy="111.08" r="34.83" transform="translate(25.77 241.36) rotate(-85.63)"/><circle class="cls-12" cx="200.84" cy="111.08" r="24.58" transform="translate(-54.28 -51.37) rotate(-2.86)"/><path class="cls-1" d="M189.12,111.08a11.73,11.73,0,1,0,11.72-11.72A11.73,11.73,0,0,0,189.12,111.08Z" transform="translate(-49 -61.51)"/><path class="cls-7" d="M124.77,82.28l6.37-4.38a3.42,3.42,0,0,1,1.51-3.73l-.75-7.89c-.11-1.08.62-1.6,1.6-1.15l16.62,7.58a4.34,4.34,0,0,1,2.17,2.76l1.61,8.28,45,24.6c1.7.86,3.37,1,2.51,2.7s-2,.44-3.67-.43L151.88,89.08l-6.33,3.75a4,4,0,0,1-3.46.12l-17.18-8.66A1.08,1.08,0,0,1,124.77,82.28Z" transform="translate(-49 -61.51)"/><path class="cls-8" d="M131.41,75.52a3.44,3.44,0,0,1,1.24-1.35l-.75-7.89c-.11-1.08.62-1.6,1.6-1.15l16.62,7.58a4.34,4.34,0,0,1,2.17,2.76l1.61,8.28,45,24.6c1.66.84,3.29,1,2.56,2.59l-70.15-35.2Z" transform="translate(-49 -61.51)"/></svg>