<svg id="Capa_1" data-name="Capa 1" xmlns="http://www.w3.org/2000/svg" viewBox="0 0 260.55 261.73"><defs><style>.cls-1{fill:#221f1f;}.cls-2{fill:#e6e6e7;}.cls-3{fill:#403f41;}.cls-4{fill:#f69d5e;}.cls-5{fill:#d0d2d3;}.cls-6{fill:#f0f1f1;}</style></defs><title>аудит</title><rect class="cls-1" width="260.55" height="164.79" rx="11.77" ry="11.77"/><rect class="cls-2" x="18.16" y="15.73" width="224.22" height="133.34"/><path class="cls-3" d="M995,911a3.49,3.49,0,1,0,3.5,3.49A3.5,3.5,0,0,0,995,911Z" transform="translate(-864.74 -906.48)"/><path class="cls-4" d="M982.87,944.4c-1.7-4.62-5.88-12.58-14.38-9.55-6.76,2.41-4.3,12.53-3,16.63l36.69,99.73c1.85,4.62,3,12.24,11.17,9.87,10-2.88,7.23-13.59,6-17.69Z" transform="translate(-864.74 -906.48)"/><path class="cls-4" d="M1022.48,990.63c-1.7-4.62-5.72-12-14.4-9.55-10,2.89-7.23,13.6-6,17.69l19.68,52.67c1.84,4.63,5.88,11.18,14.11,8.81,10-2.88,7.23-13.59,6-17.69Z" transform="translate(-864.74 -906.48)"/><path class="cls-4" d="M1042.35,988.53c-1.7-4.62-5.72-12-14.39-9.54-10,2.89-7.23,13.6-6,17.69l19.67,52.67c1.85,4.62,5.88,11.18,14.11,8.8,10-2.87,7.23-13.59,6-17.68Z" transform="translate(-864.74 -906.48)"/><path class="cls-4" d="M1061.52,989.24c-1.71-4.62-5.72-12-14.4-9.55-10,2.89-7.23,13.6-6,17.7l14.8,39.16c1.84,4.62,5.88,11.18,14.1,8.81,10-2.88,7.24-13.59,6-17.69Z" transform="translate(-864.74 -906.48)"/><path class="cls-4" d="M1081.67,1043.25c-2.79-7.7-8.77-23.64-8.77-23.64l-65.14,23.28s-24-18.38-33.47-18.42-19.78,4.47-18.14,6.66,42.32,30.76,42.32,30.76a97,97,0,0,0,10.56,10.16c6.13,5,14.53,7.1,14.53,7.1l7.32,20.25,53.48-19.33-6.51-18S1084.45,1051,1081.67,1043.25Z" transform="translate(-864.74 -906.48)"/><rect class="cls-5" x="1021.26" y="1075.75" width="72.46" height="18.32" transform="translate(-1170.36 -482.82) rotate(-19.85)"/><rect class="cls-6" x="1022.44" y="1081.86" width="36.04" height="18.32" transform="matrix(0.94, -0.34, 0.34, 0.94, -1173.29, -488.55)"/><path class="cls-1" d="M1096.38,1076.89,1022,1103.72l22.89,64.49a181.51,181.51,0,0,0,70.22-38.66Z" transform="translate(-864.74 -906.48)"/><path class="cls-6" d="M1090,1090.62a3.4,3.4,0,1,0,4.71,1A3.41,3.41,0,0,0,1090,1090.62Z" transform="translate(-864.74 -906.48)"/><path class="cls-6" d="M1094,1101.57a3.4,3.4,0,1,0,4.71,1A3.4,3.4,0,0,0,1094,1101.57Z" transform="translate(-864.74 -906.48)"/><path class="cls-6" d="M1097.93,1112.52a3.4,3.4,0,1,0,4.7,1A3.41,3.41,0,0,0,1097.93,1112.52Z" transform="translate(-864.74 -906.48)"/><path class="cls-3" d="M1059.18,1090.32l-37.21,13.4,22.9,64.49a181.21,181.21,0,0,0,36.63-15Z" transform="translate(-864.74 -906.48)"/></svg>