<?xml version="1.0" encoding="utf-8"?>
<!-- Generator: Adobe Illustrator 22.1.0, SVG Export Plug-In . SVG Version: 6.00 Build 0)  -->
<svg version="1.1" id="Layer_1" xmlns="http://www.w3.org/2000/svg" xmlns:xlink="http://www.w3.org/1999/xlink" x="0px" y="0px"
	 viewBox="0 0 557.9 415" style="enable-background:new 0 0 557.9 415;" xml:space="preserve">
<style type="text/css">
	.st0{fill:#EAEAEA;}
	.st1{fill:#323E4E;}
	.st2{fill:#4B918C;}
	.st3{fill:#F16059;}
	.st4{fill:#F16027;}
	.st5{fill:#FEFEF6;}
</style>
<title>бизнес2</title>
<path class="st0" d="M65.7,332.2c6.9,7.6,24.9,17.2,24.9,14.2c0-3-12.6-11.4-12.3-30V301c0-10.1-8.2-18.4-18.4-18.4
	c-0.1,0-0.2,0-0.3,0l-11.2,0.2c-20.1,0.8-31-11.2-33.3-11.1c-2.3,0,11.8,17.7,18.7,25.3L65.7,332.2z"/>
<path class="st0" d="M28.2,267.9c2,0.7,4.1,1,6.2,1l39.4-0.6c10.3-0.1,18.8,8.1,19.2,18.4l0.2,7.2l0.9,35.6
	c0.4,10.3,8.8,18.5,19.2,18.6H224c10.3,0,18.6-8.3,18.6-18.6v-229c0-10.3-8.4-18.6-18.6-18.6H34.5c-10.3,0-18.6,8.3-18.7,18.6v150.1
	C15.8,258.4,20.8,265.4,28.2,267.9z"/>
<path class="st1" d="M189.8,44.1l-29.3,0.1c-1.4-11.7-18.8-20.8-30.9-20.7s-29.3,9.2-30.7,20.9l-29.3,0.1
	c-9.4,0.1-16.9,7.7-16.9,17.1V68l0.1,29.2L207,96.6l-0.1-29.1V61C206.7,51.6,199.2,44.1,189.8,44.1z M129.3,60.2
	c-7,0-12.7-5.6-12.7-12.6c0-7,5.6-12.7,12.6-12.7c7,0,12.7,5.6,12.7,12.6c0,0,0,0,0,0C141.9,54.4,136.3,60.1,129.3,60.2L129.3,60.2z
	"/>
<rect x="30.3" y="184.7" class="st2" width="112.1" height="11"/>
<rect x="30.3" y="231" class="st2" width="112.1" height="11"/>
<rect x="30.3" y="207.8" class="st2" width="112.1" height="11"/>
<rect x="30.3" y="117.7" class="st3" width="112.1" height="37.8"/>
<rect x="159.6" y="117.7" class="st3" width="64.9" height="11"/>
<rect x="159.4" y="163.6" class="st3" width="64.9" height="11"/>
<rect x="159.4" y="140.6" class="st3" width="64.9" height="11"/>
<rect x="160" y="186.6" class="st3" width="65" height="11"/>
<rect x="160" y="232.5" class="st3" width="65" height="11"/>
<rect x="160" y="209.5" class="st3" width="65" height="11"/>
<rect x="116.3" y="272.1" class="st2" width="112.1" height="11"/>
<rect x="116.3" y="318.4" class="st2" width="112.1" height="11"/>
<rect x="116.3" y="295.2" class="st2" width="112.1" height="11"/>
<rect x="198.2" y="152.7" class="st4" width="344.8" height="75.8"/>
<path class="st1" d="M226.9,212.4v-20.2h-28.7v111.3c0.1,23.7,19.3,43,43.1,43H500c23.7-0.1,42.9-19.3,43-43V192.2h-28.7v20.2h-35.5
	v-20.2H262.4v20.2L226.9,212.4z"/>
<path class="st1" d="M543,188.5v-47.6c0-23.7-19.3-40-43-40h-48.7V84.1c-0.1-23.7-19.3-43-43-43H333c-23.7,0.1-43,19.3-43,43v16.7
	h-48.7c-23.7,0-43.1,16.4-43.1,40v47.6h28.7v-21h35.5v21h216.4v-21h35.5v21H543z M428.2,100.8H313V84.1c0-10.6,9.5-20,20-20h75.3
	c10.5,0,20,9.5,20,20V100.8z"/>
<path class="st5" d="M447.9,365.7h13.3c0,0,18.3-2.5,18.3-24.1c0-21.5-23.3-24.1-23.3-24.1s8.3-28.7-20.5-40.5
	c-13-5.4-22.9-2.5-29.9,2.3c-5.2,3.7-9.5,8.6-12.5,14.2c0,0-8.6-12.3-30.2-6.9c-6.7,1.5-12.4,5.9-15.7,11.9c5.3-1,11.6-0.6,18.9,2.4
	c9.8,4.1,15.3,10.1,18.3,16.3c5.7,11.9,2.1,24.3,2.1,24.3s23.3,2.5,23.3,24.1c0,0.1,0,0.1,0,0.2L447.9,365.7L447.9,365.7z"/>
<path class="st5" d="M327.7,394.5h59.9c0,0,18.6-2.6,18.7-24.4v-0.2c0-22-23.9-24.6-23.9-24.6s3.6-12.7-2.2-24.8
	c-3-6.3-8.7-12.5-18.7-16.7c-7.4-3.1-13.8-3.5-19.3-2.4c-15.1,2.9-22.9,17.1-23.9,19.1c-0.1,0.2-0.1,0.2-0.1,0.2l-0.2-0.2
	c-2.6-3.1-6-5.3-9.8-6.6c-4.9-1.7-11.8-2.6-20.9-0.3c-4.6,1.1-8.8,3.5-12.1,6.9c-9.3,9.7-8.4,24.8-8.4,24.8s-29-1.8-29,24.2v0.1
	c0.1,25.9,25.7,24.8,25.7,24.8L327.7,394.5L327.7,394.5z"/>
</svg>
