<svg id="Layer_1" data-name="Layer 1" xmlns="http://www.w3.org/2000/svg" viewBox="0 0 594.56 535.52"><defs><style>.cls-1{fill:#0e303f;}.cls-2{fill:#2c5871;}.cls-3{fill:#fff;}.cls-4{fill:#ededed;}.cls-5{fill:#439b99;}.cls-6{fill:#51bab9;}.cls-7{fill:#8b8589;}.cls-8{fill:#eca9a1;}.cls-9{fill:#85d1f1;}.cls-10{fill:#c9dc56;}.cls-11{fill:#f6bf5a;}.cls-12{fill:#c2c2c2;}.cls-13{fill:#fefae8;}.cls-14{fill:#a4ba4c;}.cls-15{fill:#f78f20;}.cls-16{fill:#f0635b;}.cls-17{fill:#fcfdfc;}.cls-18{fill:#c3e1db;}.cls-19{fill:#9ad2d9;}.cls-20{fill:#fdd6b6;}</style></defs><title>описание процессов</title><path class="cls-1" d="M531,1857a70.36,70.36,0,0,1,70.35-70.36V1767.8a89.15,89.15,0,0,0,0,178.3v-18.8A70.35,70.35,0,0,1,531,1857Z" transform="translate(-154.82 -1764.11)"/><path class="cls-2" d="M601.34,1767.8v18.79a70.36,70.36,0,1,1,0,140.71v18.8a89.15,89.15,0,0,0,0-178.3Z" transform="translate(-154.82 -1764.11)"/><path class="cls-3" d="M650.08,1857a48.74,48.74,0,0,1-48.74,48.73v21.62a70.36,70.36,0,1,0,0-140.71v21.62A48.74,48.74,0,0,1,650.08,1857Z" transform="translate(-154.82 -1764.11)"/><path class="cls-4" d="M531,1857a70.35,70.35,0,0,0,70.35,70.35v-21.62a48.74,48.74,0,0,1,0-97.47v-21.62A70.36,70.36,0,0,0,531,1857Z" transform="translate(-154.82 -1764.11)"/><path class="cls-1" d="M574,1857a27.34,27.34,0,0,1,27.34-27.35v-21.39a48.74,48.74,0,0,0,0,97.47v-21.39A27.34,27.34,0,0,1,574,1857Z" transform="translate(-154.82 -1764.11)"/><path class="cls-2" d="M650.08,1857a48.74,48.74,0,0,0-48.74-48.74v21.39a27.35,27.35,0,1,1,0,54.69v21.39A48.74,48.74,0,0,0,650.08,1857Z" transform="translate(-154.82 -1764.11)"/><path class="cls-3" d="M628.69,1857a27.34,27.34,0,0,0-27.35-27.35v54.69A27.34,27.34,0,0,0,628.69,1857Z" transform="translate(-154.82 -1764.11)"/><path class="cls-4" d="M574,1857a27.34,27.34,0,0,0,27.34,27.34V1829.6A27.34,27.34,0,0,0,574,1857Z" transform="translate(-154.82 -1764.11)"/><polygon class="cls-5" points="594.56 42.65 583.3 30.8 558.94 42.7 568.87 55.2 594.56 42.65"/><polygon class="cls-6" points="554.57 33.76 578.93 21.85 576.49 5.69 550.8 18.25 554.57 33.76"/><polygon class="cls-6" points="436.72 96.91 581.35 26.21 579.6 22.62 456 83.05 457.74 74.79 436.72 96.91"/><polygon class="cls-5" points="467.09 93.92 459.5 90.22 583.1 29.79 581.35 26.21 436.72 96.91 467.09 93.92"/><rect class="cls-3" width="263.18" height="308.18"/><rect class="cls-7" x="15.08" y="214.86" width="113.1" height="6.69"/><rect class="cls-7" x="15.08" y="225.24" width="113.1" height="6.69"/><rect class="cls-7" x="15.08" y="235.61" width="113.1" height="6.69"/><rect class="cls-7" x="15.08" y="245.99" width="113.1" height="6.69"/><rect class="cls-7" x="15.08" y="256.36" width="113.1" height="6.69"/><rect class="cls-7" x="15.08" y="266.74" width="113.1" height="6.69"/><rect class="cls-7" x="15.08" y="277.12" width="113.1" height="6.69"/><rect class="cls-7" x="15.08" y="287.49" width="113.1" height="6.69"/><rect class="cls-7" x="140.48" y="214.86" width="113.1" height="6.69"/><rect class="cls-7" x="140.48" y="225.24" width="113.1" height="6.69"/><rect class="cls-7" x="140.48" y="235.61" width="113.1" height="6.69"/><rect class="cls-7" x="140.48" y="245.99" width="113.1" height="6.69"/><rect class="cls-7" x="140.48" y="256.36" width="113.1" height="6.69"/><rect class="cls-7" x="140.48" y="266.74" width="113.1" height="6.69"/><rect class="cls-7" x="140.48" y="277.12" width="113.1" height="6.69"/><rect class="cls-7" x="140.48" y="287.49" width="113.1" height="6.69"/><rect class="cls-8" x="15.08" y="171.38" width="20.82" height="15.29"/><rect class="cls-9" x="15.08" y="193.63" width="20.82" height="15.29"/><rect class="cls-10" x="136.89" y="171.38" width="20.82" height="15.29"/><rect class="cls-11" x="136.89" y="193.63" width="20.82" height="15.29"/><rect class="cls-12" x="47.15" y="176.16" width="24.48" height="6.21"/><rect class="cls-12" x="47.15" y="199.09" width="24.48" height="5.73"/><rect class="cls-12" x="166.46" y="176.16" width="24.48" height="6.21"/><rect class="cls-12" x="166.46" y="199.09" width="24.48" height="5.74"/><path class="cls-7" d="M255.62,1785.78a47.29,47.29,0,0,1,5.89-.34c3.66,0,6,.56,7.89,1.75a6.85,6.85,0,0,1,3.26,6.17,7.78,7.78,0,0,1-3.2,6.63c-2,1.43-5.12,2.11-8.89,2.11a45,45,0,0,1-4.95-.24Zm4.38,13.36a9.74,9.74,0,0,0,1.51.07c3.95,0,6.52-1.82,6.52-5.73,0-3.4-2.31-5.2-6.06-5.2a10.73,10.73,0,0,0-2,.15Z" transform="translate(-154.82 -1764.11)"/><path class="cls-7" d="M279.56,1797.73l-1.37,4.2h-4.53l5.9-16.36h5.72l6,16.36h-4.69l-1.48-4.2Zm4.88-2.77-1.19-3.47c-.35-1-.69-2.19-1-3.16h-.07c-.28,1-.56,2.21-.88,3.16l-1.14,3.47Z" transform="translate(-154.82 -1764.11)"/><path class="cls-7" d="M295.17,1788.67H290v-3.1h14.81v3.1h-5.26v13.26h-4.38Z" transform="translate(-154.82 -1764.11)"/><path class="cls-7" d="M309.56,1797.73l-1.37,4.2h-4.53l5.9-16.36h5.72l6,16.36h-4.69l-1.48-4.2Zm4.88-2.77-1.19-3.47c-.35-1-.69-2.19-1-3.16h0c-.29,1-.58,2.21-.89,3.16l-1.15,3.47Z" transform="translate(-154.82 -1764.11)"/><path class="cls-7" d="M167,1815.56v110.85H408.39V1815.56ZM316,1820.68h37.59v20.85H316Zm-92.41,0h37.57v20.85H223.54Zm-8.69,100.55H175.18v-19.55h26.89l-.17.09h12.67l.16-.09h.12Zm0-26.75-.95.54v1.51H175.18V1874.2h1.15v-.06H213.9v.06h.95Zm0-25.45h-39.7v-22.35h39.7Zm0-27.5h-39.7v-20.85h39.7Zm46.23,79.7H223.54v-19.55h37.57Zm.09-24.7H223.63v-7l-.09,0V1874.2h.09v-.06H261.2Zm0-27.54h-1.52s0,0-.05,0H223.54V1846.7H261.1v1.45h.1Zm46.13,52.24H269.74v-19.55h37.59Zm0-24.7H269.74v-22h0v-.4h37.58v9.22h0Zm0-27.5H270l-.21,0v-22.32h37.59Zm0-27.5H269.74v-20.85h37.59Zm46.21,79.7H316v-19.55h37.59Zm.2-26.19h-.2v1.49H316v-11.15l.22,0v-5.53l-.22-.05v-5.65h37.79Zm-.2-26H316v-22.35h37.59V1869Zm46.2,52.2H362.18v-19.55h37.56Zm0-24.7H362.18V1874.2h37.56Zm.6-28.92,0,1.44-.62,0H362.18v-22.35h7.28l-.08.08h10.13l.08-.08h20.15v.08h.6Zm0-26.08h-.6v0H384.81l0,0H362.18v-20.85h38.16Z" transform="translate(-154.82 -1764.11)"/><polygon class="cls-8" points="20.06 155.82 16.93 152.36 63.53 121.9 89.59 132.68 134.69 105.25 157.14 121.98 190.41 77.19 249.97 123.7 246.49 126.91 191.47 83.94 158.28 128.63 134.37 110.82 90.1 137.75 64.14 127.01 20.06 155.82"/><polygon class="cls-9" points="180.03 120.77 129.91 91.82 97.23 103.76 77.93 101.78 43.67 115.2 17.5 120.36 16.35 116.1 42 111.06 77.09 97.3 96.47 99.28 130.47 86.87 180.37 115.68 248.77 85.14 251.16 89.01 180.03 120.77"/><polygon class="cls-10" points="86.76 147.32 42.09 125.52 16.23 136.6 13.92 132.7 42.24 120.56 86.93 142.37 133.78 122.57 171.46 139.23 220.88 114.47 249.29 107.91 250.64 112.12 222.89 118.53 171.62 144.22 133.72 127.47 86.76 147.32"/><polygon class="cls-11" points="17.46 143.98 15.23 140.04 83.72 112.17 98.44 116.87 166.71 69.65 191.32 92.15 248.52 59.23 251.41 62.83 190.56 97.86 166.22 75.62 99.39 121.84 83.96 116.92 17.46 143.98"/><rect class="cls-7" x="12.2" y="59.86" width="8.17" height="98.68"/><rect class="cls-7" x="244.77" y="51.45" width="8.8" height="110.85"/><path class="cls-2" d="M293.3,1906.51a20.7,20.7,0,0,0-20.71,20.68v231.16A20.69,20.69,0,0,0,293.3,2179H631.38a20.69,20.69,0,0,0,20.71-20.68V1927.19a20.7,20.7,0,0,0-20.71-20.68Z" transform="translate(-154.82 -1764.11)"/><rect class="cls-3" x="150.95" y="162.28" width="329.49" height="232.75"/><path class="cls-13" d="M641.33,2060.83a1.52,1.52,0,0,0,1.52,1.53h0a1.54,1.54,0,0,0,1.53-1.53v-36.11a1.55,1.55,0,0,0-1.53-1.54h0a1.53,1.53,0,0,0-1.52,1.54Z" transform="translate(-154.82 -1764.11)"/><rect class="cls-14" x="391.77" y="176.12" width="77.92" height="18.89"/><rect class="cls-6" x="391.77" y="361.75" width="77.92" height="18.89"/><rect class="cls-15" x="157.84" y="361.75" width="77.92" height="18.89"/><rect class="cls-16" x="165.85" y="176.12" width="77.92" height="18.89"/><path class="cls-16" d="M469.33,1983.39c-.85-.07-1.69-.11-2.54-.14l-1.74-2.84-2-3.17-1.77,3.28-1.54,2.84A60,60,0,0,0,423.84,1999l4.75,5.16.25.28,4.74,5.16a45.44,45.44,0,0,1,63.37,1.67l5-4.9.27-.26,5-4.91A59.75,59.75,0,0,0,469.33,1983.39Z" transform="translate(-154.82 -1764.11)"/><path class="cls-14" d="M523.38,2023.63l2.35-2.89-3.68-.6-2.46-.39a60.47,60.47,0,0,0-12.34-18.51l-5,4.91-.27.26-5,4.9a45.44,45.44,0,0,1,12.86,35.57c0,.3-.07.58-.1.87l7,.71.38,0,7,.71c0-.38.08-.76.11-1.14a59.57,59.57,0,0,0-2.42-22.43Z" transform="translate(-154.82 -1764.11)"/><path class="cls-15" d="M526.58,2065.32l-2.36-2.88-2.22-2.7a58.91,58.91,0,0,0,2-10.53l-7-.71-.38,0-7-.71a45.16,45.16,0,0,1-7.86,21.3l5.76,4,.31.21,5.78,4a59.53,59.53,0,0,0,5.91-10.78l3.29-.54Z" transform="translate(-154.82 -1764.11)"/><path class="cls-6" d="M513.7,2077.25l-5.78-4-.31-.21-5.76-4a45.49,45.49,0,0,1-54.21,16.45l-2.58,6.52-.15.35-2.57,6.52a59.59,59.59,0,0,0,39.5,1.58l2.77,2.33,2.86,2.4.65-3.67.64-3.65A60.29,60.29,0,0,0,513.7,2077.25Z" transform="translate(-154.82 -1764.11)"/><path class="cls-16" d="M420.42,2055l-6.77,1.82-.36.1-6.78,1.82a60.07,60.07,0,0,0,9.81,20.13l-1.14,3.35-1.19,3.54,3.66-.73,3.29-.66a60.11,60.11,0,0,0,21.4,14.53l2.57-6.52.15-.35,2.58-6.52A45.79,45.79,0,0,1,420.42,2055Z" transform="translate(-154.82 -1764.11)"/><path class="cls-6" d="M433.58,2009.64l-4.74-5.16-.25-.28-4.75-5.16a59.89,59.89,0,0,0-15.67,23.34l-2.6.45-3.67.65,2.4,2.86,1.94,2.32a59.89,59.89,0,0,0,.27,30.07l6.78-1.82.36-.1,6.77-1.82a45.51,45.51,0,0,1,13.16-45.35Z" transform="translate(-154.82 -1764.11)"/><path class="cls-16" d="M293.84,186.11h33.76a5.75,5.75,0,0,1,5.75,5.75v12.93a5.75,5.75,0,0,1-5.75,5.75H293.84a5.74,5.74,0,0,1-5.74-5.74V191.86A5.74,5.74,0,0,1,293.84,186.11Z"/><path class="cls-14" d="M319.89,346.78h33.76a5.75,5.75,0,0,1,5.75,5.75v12.93a5.75,5.75,0,0,1-5.75,5.75H319.89a5.75,5.75,0,0,1-5.75-5.75V352.52A5.74,5.74,0,0,1,319.89,346.78Z"/><rect class="cls-14" x="375.97" y="238.33" width="45.25" height="24.42" rx="5.75" ry="5.75"/><rect class="cls-16" x="217.67" y="328.88" width="45.25" height="24.42" rx="5.75" ry="5.75"/><rect class="cls-15" x="375.97" y="292.73" width="45.25" height="24.42" rx="5.75" ry="5.75"/><path class="cls-6" d="M207.58,231.83h33.76a5.75,5.75,0,0,1,5.75,5.75v12.93a5.74,5.74,0,0,1-5.74,5.74H207.58a5.74,5.74,0,0,1-5.74-5.74V237.58A5.75,5.75,0,0,1,207.58,231.83Z"/><path class="cls-17" d="M455.65,1968.31v-1.78l1.62-1.47c2.75-2.46,4.09-3.88,4.13-5.35,0-1-.62-1.84-2.08-1.84a4.53,4.53,0,0,0-2.69,1.05l-.83-2.12a7,7,0,0,1,4.13-1.29c2.84,0,4.41,1.66,4.41,4,0,2.11-1.53,3.79-3.35,5.42l-1.16,1v0h4.74v2.42Z" transform="translate(-154.82 -1764.11)"/><path class="cls-17" d="M474.8,1958.14h-4.88l-.27,1.94a5.23,5.23,0,0,1,.81,0,5.74,5.74,0,0,1,3.31.91,3.59,3.59,0,0,1,1.53,3.16c0,2.34-2,4.41-5.4,4.41a8.16,8.16,0,0,1-3.51-.71l.53-2.21a7.23,7.23,0,0,0,2.85.62c1.21,0,2.51-.58,2.51-1.92s-1-2.09-3.54-2.09a12,12,0,0,0-1.71.11l.84-6.6h6.93Z" transform="translate(-154.82 -1764.11)"/><path class="cls-17" d="M482.52,2130.1v-1.79l1.62-1.47c2.75-2.46,4.09-3.87,4.13-5.35,0-1-.62-1.83-2.07-1.83a4.59,4.59,0,0,0-2.7,1l-.83-2.11a7,7,0,0,1,4.13-1.3c2.85,0,4.41,1.67,4.41,3.95,0,2.12-1.53,3.8-3.35,5.43l-1.16,1v0h4.75v2.42Z" transform="translate(-154.82 -1764.11)"/><path class="cls-17" d="M501.67,2119.93h-4.88l-.27,1.93a5.23,5.23,0,0,1,.81,0,5.76,5.76,0,0,1,3.32.92,3.57,3.57,0,0,1,1.53,3.15c0,2.35-2,4.42-5.41,4.42a7.91,7.91,0,0,1-3.5-.72l.52-2.21a7,7,0,0,0,2.85.63c1.22,0,2.52-.59,2.52-1.92s-1-2.09-3.55-2.09a10.53,10.53,0,0,0-1.7.11l.83-6.61h6.93Z" transform="translate(-154.82 -1764.11)"/><path class="cls-17" d="M547.05,2010.87h0l-2.4,1.14-.49-2.2,3.34-1.55h2.44v12.59h-2.85Z" transform="translate(-154.82 -1764.11)"/><path class="cls-17" d="M562.45,2010.68h-4.88l-.27,1.93a7,7,0,0,1,.81,0,5.74,5.74,0,0,1,3.31.91,3.58,3.58,0,0,1,1.53,3.16c0,2.34-2,4.41-5.4,4.41a8.16,8.16,0,0,1-3.51-.71l.52-2.21a7.32,7.32,0,0,0,2.85.62c1.22,0,2.52-.58,2.52-1.92s-1-2.09-3.54-2.09a12,12,0,0,0-1.71.11l.83-6.6h6.94Z" transform="translate(-154.82 -1764.11)"/><path class="cls-17" d="M370.66,2004.67h0l-2.4,1.15-.49-2.21,3.33-1.55h2.45v12.59h-2.85Z" transform="translate(-154.82 -1764.11)"/><path class="cls-17" d="M386.06,2004.48h-4.88l-.27,1.94a5.23,5.23,0,0,1,.81,0,5.74,5.74,0,0,1,3.31.91,3.58,3.58,0,0,1,1.53,3.16c0,2.34-2,4.41-5.4,4.41a8,8,0,0,1-3.51-.71l.52-2.21a7.27,7.27,0,0,0,2.85.62c1.22,0,2.52-.58,2.52-1.92s-1-2.09-3.55-2.09a11.92,11.92,0,0,0-1.7.11l.83-6.6h6.94Z" transform="translate(-154.82 -1764.11)"/><path class="cls-17" d="M387.44,2100.91h0l-2.41,1.15-.48-2.21,3.33-1.55h2.44v12.59h-2.85Z" transform="translate(-154.82 -1764.11)"/><path class="cls-17" d="M403.73,2104.54c0,3.89-1.57,6.57-4.78,6.57s-4.69-2.93-4.71-6.49,1.55-6.53,4.8-6.53S403.73,2101.09,403.73,2104.54Zm-6.53.08c0,2.88.68,4.26,1.83,4.26s1.76-1.43,1.76-4.3-.6-4.26-1.79-4.26S397.18,2101.69,397.2,2104.62Z" transform="translate(-154.82 -1764.11)"/><path class="cls-17" d="M547.05,2067h0l-2.4,1.15-.49-2.21,3.34-1.55h2.44v12.59h-2.85Z" transform="translate(-154.82 -1764.11)"/><path class="cls-17" d="M563.34,2070.59c0,3.89-1.57,6.56-4.78,6.56s-4.69-2.93-4.71-6.49,1.55-6.53,4.8-6.53S563.34,2067.14,563.34,2070.59Zm-6.53.07c0,2.89.68,4.26,1.82,4.26s1.76-1.43,1.76-4.3-.6-4.26-1.78-4.26S556.79,2067.74,556.81,2070.66Z" transform="translate(-154.82 -1764.11)"/><path class="cls-18" d="M470.53,2247.3l-42.39-3.89a8.12,8.12,0,0,0-8.83,7.34l-3,32.25a8.12,8.12,0,0,0,7.34,8.83l42.4,3.89,1-11Z" transform="translate(-154.82 -1764.11)"/><path class="cls-19" d="M512.93,2251.19l-42.4-3.89-3.43,37.41-1,11,42.4,3.88a8.11,8.11,0,0,0,8.82-7.33l3-32.26A8.12,8.12,0,0,0,512.93,2251.19Z" transform="translate(-154.82 -1764.11)"/><path class="cls-20" d="M521.67,2140.71a13.06,13.06,0,0,0-14,11l-.17-.07,1.12-12.16a13.11,13.11,0,0,0-26.11-2.39l1.2-13a13.1,13.1,0,1,0-26.1-2.39l4.79-52.2a13.1,13.1,0,1,0-26.09-2.39l-.77,8.33-6.42,70-.86,9.43A4,4,0,0,1,425,2158a3.92,3.92,0,0,1-4.12-1.85c-8.45-13.4-6.71-25.72-20.55-27a9.09,9.09,0,0,0-9.16,12.73l32.81,91.74a6.54,6.54,0,0,0,5.4,3.88l76.23,7a19.66,19.66,0,0,0,21.37-17.78c3.2-35,6.58-71.76,6.58-71.76A13.14,13.14,0,0,0,521.67,2140.71Z" transform="translate(-154.82 -1764.11)"/></svg>