<svg xmlns="http://www.w3.org/2000/svg" viewBox="0 0 480.7 594.26"><defs><style>.cls-1{opacity:0.53;}.cls-2{fill:#73bdc5;}.cls-3{fill:#5d9ca4;}.cls-4{fill:#30363f;}.cls-5{fill:#2f363e;}.cls-6{fill:#f7f4f4;}.cls-7{fill:#5b6374;}.cls-8{fill:#fec866;}.cls-9{fill:#e2af5c;}.cls-10{fill:#f9bf36;}.cls-11{fill:none;stroke:#fff;stroke-miterlimit:10;stroke-width:2px;opacity:0.41;}.cls-12{fill:#fff;opacity:0.11;}.cls-13{fill:#231f20;opacity:0.07;}.cls-14{fill:#fdee99;}</style></defs><title>риск</title><g id="Layer_13" data-name="Layer 13"><g class="cls-1"><path class="cls-2" d="M4684.44,509.37l0,174.9c0,.48,0,1-.06,1.42a17.9,17.9,0,0,1-17.85,16.48l-380.45-.1a17.91,17.91,0,0,1-17.84-16.49c0-.47,0-.94,0-1.42l0-174.9c0-.2,0-.41,0-.61a17.9,17.9,0,0,1,17.89-17.29l380.45.1a17.9,17.9,0,0,1,17.88,17.3C4684.43,509,4684.44,509.17,4684.44,509.37Z" transform="translate(-4238.02 -193.31)"/><path class="cls-3" d="M4684.42,508.76a17.9,17.9,0,0,0-17.88-17.3h-58.43l-263.6-.07-58.42,0a17.9,17.9,0,0,0-17.89,17.29c0,.2,0,.41,0,.61v48l0,78.92h0v48c0,.2,0,.41,0,.61h0c0,.27,0,.54,0,.8,0,0,0,0,0,.07s0,.09,0,.13c0,.25.05.49.08.73,0,.08,0,.16,0,.24l.09.62.06.29.12.55c0,.11,0,.22.08.33s.08.33.13.49.07.24.1.35l.15.46c0,.12.08.24.13.37l.15.42c.05.13.1.25.16.38s.11.26.16.4l.18.37.18.38c.06.13.13.25.2.38l.19.36c.07.12.14.25.22.37s.13.23.21.35.15.24.23.36l.22.33.25.36.24.31.27.35.24.3.29.33a3.58,3.58,0,0,0,.26.29l.3.32.27.28.32.31.28.26.33.29.3.26.34.27.32.24.34.26.33.23.36.23.34.22.37.22.36.2c.12.07.24.14.37.2l.37.19.38.18.39.18.38.16.4.15.39.15.42.14.39.12c.14.05.29.08.43.12l.39.11.45.1.39.09.47.08.38.06.51.07.36,0,.58,0,.29,0c.3,0,.59,0,.89,0h58.43l263.6.07,58.42,0,.89,0,.29,0,.59,0,.35,0,.52-.06.37-.07.48-.08.37-.08.47-.11.37-.1.45-.12.38-.12.43-.15.37-.14.42-.16.37-.15.4-.18.36-.18.39-.19.36-.2.37-.2c.12-.07.24-.14.35-.22l.36-.22.34-.23.35-.24.33-.24.33-.26.33-.26.31-.26.31-.28.31-.28.3-.29a4,4,0,0,1,.29-.29l.28-.31c.09-.1.19-.2.28-.31l.27-.31.26-.32.26-.33.24-.33c.08-.12.17-.23.24-.34l.24-.35.22-.35.22-.36c.07-.12.14-.23.2-.35l.21-.38.19-.36.19-.4.16-.36.18-.41.15-.36c0-.15.11-.3.16-.44l.12-.35.15-.48c0-.11.07-.22.1-.33s.09-.34.14-.51,0-.21.07-.32.08-.37.12-.56l.06-.28c0-.21.07-.42.1-.63l0-.22c0-.25.06-.49.08-.74a.53.53,0,0,0,0-.13.15.15,0,0,0,0-.07c0-.26,0-.53.05-.8h0c0-.2,0-.41,0-.61h0v-48l0-78.92,0-48C4684.44,509.17,4684.43,509,4684.42,508.76ZM4665.7,640.57A94.13,94.13,0,0,0,4645,650.88a89.18,89.18,0,0,0-30.79,33.9l-275.82-.08a89.21,89.21,0,0,0-30.76-33.92,93.62,93.62,0,0,0-25-11.68l0-84.77a93.58,93.58,0,0,0,25-11.67,89.33,89.33,0,0,0,30.82-34l275.74.07a89.17,89.17,0,0,0,30.8,34,94.34,94.34,0,0,0,20.74,10.31Z" transform="translate(-4238.02 -193.31)"/><path class="cls-3" d="M4424.46,652.8q-3-2.43-5.68-5.16a78.67,78.67,0,1,1,5.68,5.16ZM4523.1,533a76.39,76.39,0,1,0,27.84,59h0A76.3,76.3,0,0,0,4523.1,533Z" transform="translate(-4238.02 -193.31)"/><circle class="cls-3" cx="4474.52" cy="591.92" r="67.88" transform="translate(-2055.35 4286.95) rotate(-67.02)"/><path class="cls-2" d="M4467.17,635.25a78.56,78.56,0,0,1-27.93-6.5v-22a94.73,94.73,0,0,0,16.68,6.52,57.45,57.45,0,0,0,15.82,2.62c3.75,0,6.49-.45,8.24-1.35a4.72,4.72,0,0,0,2.61-4.54,4.58,4.58,0,0,0-1.88-3.7,29.56,29.56,0,0,0-6.29-3.45q-4.4-1.92-11.88-4.63a54.25,54.25,0,0,1-13.57-7,24.39,24.39,0,0,1-7.51-8.67,27.16,27.16,0,0,1-2.34-12q0-10.92,7-17.07T4467.2,546V531.27h13.7v14.55a77.75,77.75,0,0,1,26.54,6.49l-7.88,18.87q-13.83-6.23-25-6.23c-3.53,0-6,.43-7.45,1.29a4.17,4.17,0,0,0-2.15,3.8,4.7,4.7,0,0,0,1.55,3.61,22,22,0,0,0,5.4,3.18c2.55,1.17,6.11,2.53,10.65,4.07q13.83,4.9,19.86,11.16t6,16.12q0,11.12-7,18.07t-20.55,8.59v17.72h-13.7Z" transform="translate(-4238.02 -193.31)"/></g><path class="cls-4" d="M4480.92,751.54c.09,15.26-7.93,26.38-22.06,32.28-14.6,6.1-28.22,3.34-39.42-7.54-10.94-10.61-13.61-24-8.29-38.21,1.26-3.35,6.57-7.85,9.36-7.43,6.32,1,7.35,6,4.4,12-4.43,9-1.88,18.08,5.53,23,5.77,3.85,14.75,5.81,21.56,4.55,8.91-1.65,14.2-9.71,14.41-19.27.37-17.64-.07-35.29.32-52.92.12-5.76,2.45-11.49,2.44-17.24,0-3.32-2.64-6.65-3.59-8.81,1.64-8.51,4.12-15.28,4.16-22.3.29-59,.05-118.05-.11-176.8h9.06c.28,65.39,0,132,.26,198.18C4479.06,698,4480.78,724.64,4480.92,751.54Z" transform="translate(-4238.02 -193.31)"/><path class="cls-5" d="M4478.9,246c-.28-14.63.15-29.29-.29-43.91-.09-3-2.76-5.84-4.24-8.74-1.5,2.81-4.22,5.59-4.3,8.45-.43,15.37-.17,30.77-.25,46.16,0,6.44-2.08,10.63-7.77,12.31h0a19,19,0,0,0,2.13,1.12,21.64,21.64,0,0,0,3.37,1.16h.11s.1,0,.14.05,0,0,0,0c.88.2,2,.38,2.94.52.19,0,.37.06.54.07l.87.12,2.91.16a5.17,5.17,0,0,0,.68,0l2.67-.22h.19l1.45-.18a56.73,56.73,0,0,0,7.09-1.36c1.09-.28,2.21-.6,3.38-1C4481.24,259.62,4479.05,254,4478.9,246Z" transform="translate(-4238.02 -193.31)"/><path class="cls-5" d="M4464.23,261.36l-.06,0a196.29,196.29,0,0,0-86,57.7q-3.93,4.53-7.54,9.19c-1.81,2.34-3.55,4.7-5.25,7.07q-1.69,2.38-3.31,4.78c-1.62,2.4-3.18,4.81-4.69,7.25-1,1.62-2,3.24-2.95,4.87-.48.82-.95,1.63-1.42,2.46q-2.1,3.66-4.06,7.37c-.86,1.65-1.72,3.29-2.54,4.94-.42.82-.83,1.64-1.22,2.47-.81,1.65-1.59,3.29-2.35,4.94s-1.51,3.29-2.23,4.93c-1.44,3.29-2.65,6.57-3.94,9.83-21.31,54-21.71,103.18-21.71,104.3h0l-.16,0c-6-17.54-16.39-29.66-34.62-32.13-17.87-2.42-31,6.08-42.2,22.93,4.16-51.95,20.71-95.78,51.34-133.76,43.35-53.76,99.78-83.74,168.7-89.56a19.59,19.59,0,0,0,4-.71h0A19,19,0,0,0,4464.23,261.36Z" transform="translate(-4238.02 -193.31)"/><path class="cls-2" d="M4394.48,494.52v-.19a1.06,1.06,0,0,0,.06.19l0,0h0s0,0,0,0Z" transform="translate(-4238.02 -193.31)"/><path class="cls-6" d="M4467.85,262.82s0-.11,0-.11-.07,0-.08,0c-58.74,56-70.43,175-72.72,216.94-.11,2-.19,3.77-.27,5.39-.08,2-.15,3.75-.19,5.16,0,.23,0,.44,0,.65-.05,1.81-.06,3-.06,3.5-7.15-21.23-19.67-33.93-42.17-33.18-17,.56-29.31,10.42-37.31,32.33h0v0c0-1.35.44-50.41,21.71-104.29,1.28-3.26,2.57-6.54,4-9.83.72-1.64,1.42-3.29,2.19-4.93s1.52-3.29,2.33-4.94c.39-.83.79-1.65,1.21-2.47.82-1.65,1.67-3.29,2.53-4.94,1.31-2.47,2.65-4.93,4.07-7.37.46-.83.93-1.64,1.42-2.46,1-1.63,1.94-3.25,2.94-4.87,1.51-2.44,3.07-4.85,4.69-7.25,1.07-1.6,2.18-3.19,3.31-4.78,1.7-2.37,3.44-4.73,5.25-7.07q3.61-4.65,7.54-9.19a196.29,196.29,0,0,1,86-57.7s0,.22.06.21c1,.43,2.09.4,3.37,1.4h.11C4467.76,263,4467.81,262.81,4467.85,262.82Z" transform="translate(-4238.02 -193.31)"/><path class="cls-5" d="M4633.53,494.2c-9.45-23.66-21.68-33.45-40.8-33.18-18.22.26-30.78,10.54-38.9,32.45,0-2.11.54-115.14-73.75-230.4a56.88,56.88,0,0,0,7.09-1.37C4652.56,332.65,4633.53,494.2,4633.53,494.2Z" transform="translate(-4238.02 -193.31)"/><path class="cls-6" d="M4715.75,498.06c-7.95-23.3-21.06-39.29-47.44-36.64-19,1.91-29.55,14.58-34.78,32.78,0,0,18-158.49-146.36-232.5,1.09-.27,2.21-.6,3.38-1,.62.08,1.27.13,1.95.17,101.55,5,192.1,79.91,215.8,178.89C4712.8,458.58,4714.47,478,4715.75,498.06Z" transform="translate(-4238.02 -193.31)"/><path class="cls-5" d="M4472.18,263.32S4476,498.41,4475.27,496c-1.68-5.81-5.77-14.58-12-20.73-10.67-10.6-21.92-16.94-40-12.87-15.59,3.5-24.14,15.49-28.72,32.08l-.05.06h-.24s-.27,0-.27,0v-.27c0-.5.26-1.68.3-3.49,0-.21.13-.43.14-.66,0-1.41.17-3.14.25-5.16.07-1.62.18-3.19.3-5.17C4397.22,438,4408.82,319,4467.6,263h0s2.2.21,3.15.35c.19,0,.37-.05.54,0C4471.65,263.36,4472,263.29,4472.18,263.32Z" transform="translate(-4238.02 -193.31)"/><path class="cls-6" d="M4480.16,263.07l-7.9.25h0L4475.31,496s2-12.35,10.16-20.89c13.62-14.24,42.79-24.84,63.63,7.86,2,3.07,2.9,6.6,4.9,10.52v0C4554,491.36,4554.46,378.33,4480.16,263.07Z" transform="translate(-4238.02 -193.31)"/><path class="cls-7" d="M4694.44,725l21.06,50.27a2.21,2.21,0,0,1,.14.41c.74,2.65-2.49,4.74-7.5,4.75l-202.47.36c-5,0-8.1-2.07-7.18-4.73a3.42,3.42,0,0,1,.17-.4l24.76-50.3a1.62,1.62,0,0,1,.1-.18c1.49-2.76,5.73-5,9.61-5l152-.32c3.86,0,7.93,2.2,9.21,5A.89.89,0,0,1,4694.44,725Z" transform="translate(-4238.02 -193.31)"/><path class="cls-2" d="M4694.36,723c-1.28-2.76-5.35-5-9.21-5l-23.33,0-105.33.23-23.37,0c-3.87,0-8.11,2.22-9.61,5l-.09.18-6.8,13.8-11.17,22.7h0l-6.79,13.8-.08.17h0a1.09,1.09,0,0,0-.09.23v0s0,0,0,0a1.66,1.66,0,0,0-.06.21s0,0,0,.06l0,.18a.25.25,0,0,0,0,.08,1,1,0,0,0,0,.16v.1a.61.61,0,0,0,0,.14s0,.07,0,.1a.57.57,0,0,0,0,.13.43.43,0,0,0,0,.11.5.5,0,0,0,0,.12l0,.11,0,.11a.49.49,0,0,0,0,.11s0,.07,0,.11l0,.11a.47.47,0,0,1,.05.1l.07.11.06.1a.61.61,0,0,0,.07.1.86.86,0,0,1,.07.1.39.39,0,0,1,.08.1l.08.09a.94.94,0,0,1,.1.1l.09.08.1.1.1.08.11.09.11.08.12.09.12.08.13.08.13.07.14.08.13.07.15.07.15.07.15.07.16.06.16.06.17.06.17.06.17.05.17,0,.19.05.18,0,.19,0,.19,0,.2,0,.19,0,.22,0,.19,0,.23,0,.19,0,.24,0,.2,0,.26,0h1.12l31.11,0,140.29-.25,31.07-.06h1.11l.27,0,.19,0,.25,0,.19,0,.23,0,.19,0,.23,0,.18,0,.21,0,.19,0,.2,0,.18,0,.19-.05.17,0,.19-.05.17-.06.17-.06.16-.06.16-.07.16-.06.15-.07.15-.07.15-.08.14-.07.13-.08.14-.08.12-.08.13-.08.12-.09.11-.09.11-.08.11-.09.1-.1.09-.09.09-.1.09-.1.08-.1.08-.1a.86.86,0,0,0,.07-.1.61.61,0,0,1,.07-.1l.06-.11.05-.1.06-.12,0-.1a.56.56,0,0,0,0-.12,1,1,0,0,1,0-.1l0-.13s0-.07,0-.1a.68.68,0,0,0,0-.14s0-.06,0-.1v-.14a.28.28,0,0,0,0-.09c0-.06,0-.11,0-.16v-.08l0-.19a.13.13,0,0,0,0-.06c0-.07,0-.14,0-.21v-.06a2,2,0,0,0-.07-.23h0l-.07-.18h0l-5.79-13.79-9.5-22.68-5.77-13.8Zm6.65,37.9a50.8,50.8,0,0,0-9.23,3c-6.13,2.64-10.47,6.1-12.79,9.78l-143.77.25c-2.06-3.67-6.15-7.1-12.1-9.72a48,48,0,0,0-11-3.33l11.23-24.38a72.68,72.68,0,0,0,12.35-3.38,50.72,50.72,0,0,0,16.64-9.81l113.18-.23a45.7,45.7,0,0,0,15.88,9.74,66.51,66.51,0,0,0,10.07,2.95Z" transform="translate(-4238.02 -193.31)"/><path class="cls-7" d="M4689.49,720.66l21.06,50.27a4.14,4.14,0,0,1,.15.41c.73,2.65-2.5,4.75-7.51,4.75l-202.47.36c-5,0-8.1-2.07-7.18-4.72.05-.14.11-.27.17-.41l24.77-50.3.09-.18c1.49-2.76,5.73-5,9.61-5l152-.33c3.87,0,7.93,2.2,9.22,5C4689.44,720.55,4689.47,720.6,4689.49,720.66Z" transform="translate(-4238.02 -193.31)"/><path class="cls-2" d="M4689.42,718.75c-1.29-2.76-5.36-5-9.22-5l-23.32.05-105.33.22-23.37,0c-3.88,0-8.12,2.22-9.61,5a.7.7,0,0,0-.09.17l-6.81,13.8-11.17,22.7h0l-6.79,13.8-.08.18h0l-.09.23v.06l-.06.21a.15.15,0,0,0,0,.07,1.36,1.36,0,0,0,0,.17.28.28,0,0,0,0,.09s0,.1,0,.16v.33a.62.62,0,0,1,0,.13s0,.07,0,.11,0,.08,0,.12l0,.11,0,.11s0,.08,0,.11,0,.08,0,.11a.54.54,0,0,1,.05.11l.06.1.06.11.06.1.07.1a.61.61,0,0,1,.07.1l.09.1.08.09.09.1.09.09.1.09.1.09.12.09.1.08.13.08.11.08.14.08.12.08.14.07.14.07.15.08.14.06.16.07.15.06.16.06.17.06.17.06.17.05.18.06.18,0,.18.05.2,0,.18,0,.21,0,.19,0,.21,0,.19,0,.23,0,.2,0,.24,0,.19,0,.26,0h1.12l31.11-.05,140.3-.25,31.06,0h1.12l.26,0,.19,0,.25,0,.19,0,.24,0,.18,0,.23,0,.19,0,.21,0,.18,0,.2,0,.18,0,.19,0,.18-.06.18-.05.17-.06.17-.06.16-.06.17-.06.15-.07.16-.07.15-.07.14-.07.14-.08.14-.08.13-.08.13-.08.12-.08.12-.08.12-.09.1-.09.11-.09.1-.09a.94.94,0,0,1,.1-.1l.09-.1.08-.09.08-.1.08-.1.07-.11a.86.86,0,0,0,.07-.1l.06-.11.06-.1.05-.12a.3.3,0,0,0,0-.1l.05-.12,0-.1,0-.13a.36.36,0,0,0,0-.1l0-.14a.28.28,0,0,1,0-.09.76.76,0,0,1,0-.15v-.09a.86.86,0,0,0,0-.16v-.08a1.1,1.1,0,0,1,0-.18.17.17,0,0,1,0-.07c0-.07,0-.14-.05-.21v-.06c0-.07-.05-.15-.08-.23h0a.87.87,0,0,0-.07-.17h0l-5.78-13.8-9.51-22.68-5.77-13.79Zm6.65,37.9a49.91,49.91,0,0,0-9.24,3c-6.13,2.64-10.47,6.09-12.78,9.77l-143.78.26c-2.06-3.68-6.15-7.11-12.1-9.73a48.33,48.33,0,0,0-11-3.33l11.23-24.38a72.68,72.68,0,0,0,12.35-3.38,50.88,50.88,0,0,0,16.64-9.8l113.18-.24a45.85,45.85,0,0,0,15.88,9.75,68,68,0,0,0,10.07,2.94Z" transform="translate(-4238.02 -193.31)"/><path class="cls-7" d="M4694.44,716.7,4715.5,767a2.49,2.49,0,0,1,.14.41c.74,2.65-2.49,4.75-7.5,4.76l-202.47.35c-5,0-8.1-2.07-7.18-4.72a3.56,3.56,0,0,1,.17-.41l24.76-50.3a1,1,0,0,1,.1-.17c1.49-2.77,5.73-5,9.61-5l152-.33c3.86,0,7.93,2.2,9.21,5Z" transform="translate(-4238.02 -193.31)"/><path class="cls-2" d="M4694.36,714.79c-1.28-2.76-5.35-5-9.21-4.95l-23.33,0-105.33.22-23.37,0c-3.87,0-8.11,2.23-9.61,5l-.09.17-6.8,13.81-11.17,22.69h0l-6.79,13.8a1.42,1.42,0,0,0-.08.18h0a1.36,1.36,0,0,0-.09.23v0s0,0,0,0a1.66,1.66,0,0,0-.06.21s0,.05,0,.07l0,.18a.19.19,0,0,0,0,.08.88.88,0,0,0,0,.16v.09a.71.71,0,0,0,0,.14s0,.07,0,.11a.62.62,0,0,0,0,.13.36.36,0,0,0,0,.1.5.5,0,0,0,0,.12l0,.11,0,.12a.42.42,0,0,0,0,.1s0,.08,0,.11a1.17,1.17,0,0,0,0,.11.54.54,0,0,1,.05.11.61.61,0,0,0,.07.1l.06.1a.36.36,0,0,0,.07.1.86.86,0,0,0,.07.1l.08.1.08.09.1.1.09.09.1.09.1.09.11.09.11.08.12.09.12.07.13.09.13.07.14.08.13.07.15.07.15.06.15.07.16.06.16.07.17,0,.17.06.17.06.17,0,.19.05.18,0,.19,0,.19,0,.2,0,.19,0,.22,0,.19,0,.23,0,.19,0,.24,0,.2,0,.26,0h1.12l31.11-.06,140.29-.25,31.07-.05h.62l.31,0h.18l.27,0,.19,0,.25,0,.19,0,.23,0,.19,0,.23,0,.18,0,.21,0,.19,0,.2,0,.18,0,.19-.05.17,0,.19-.06.17-.06.17-.06.16-.06.16-.06.16-.07.15-.07.15-.07.15-.07.14-.08.13-.07.14-.08.12-.08.13-.09.12-.08.11-.09.11-.09.11-.09.1-.09.09-.1.09-.09.09-.1.08-.1.08-.1.07-.11.07-.1.06-.11a.31.31,0,0,0,.05-.1l.06-.11s0-.07,0-.11a.56.56,0,0,0,0-.12l0-.1,0-.13s0-.06,0-.1a.59.59,0,0,0,0-.13s0-.07,0-.1v-.15a.28.28,0,0,0,0-.09s0-.11,0-.16v-.08l0-.18a.2.2,0,0,0,0-.07c0-.07,0-.14,0-.21v-.05a1.55,1.55,0,0,0-.07-.23h0c0-.06,0-.11-.07-.17h0l-5.79-13.8-9.5-22.68L4694.44,715A1.42,1.42,0,0,0,4694.36,714.79ZM4701,752.7a49.29,49.29,0,0,0-9.23,3c-6.13,2.64-10.47,6.09-12.79,9.77l-143.77.26c-2.06-3.67-6.15-7.11-12.1-9.72a48,48,0,0,0-11-3.34l11.23-24.38a71.77,71.77,0,0,0,12.35-3.38,50.88,50.88,0,0,0,16.64-9.8l113.18-.24a45.7,45.7,0,0,0,15.88,9.75,67.63,67.63,0,0,0,10.07,2.94Z" transform="translate(-4238.02 -193.31)"/><path class="cls-7" d="M4692.79,712.42l21.06,50.27a2,2,0,0,1,.14.41c.74,2.65-2.49,4.74-7.5,4.75L4504,768.2c-5,0-8.1-2.07-7.18-4.72.05-.13.1-.27.17-.41l24.77-50.3a.7.7,0,0,1,.09-.17c1.49-2.76,5.73-5,9.61-5l152-.32c3.86,0,7.93,2.19,9.21,5A1.42,1.42,0,0,1,4692.79,712.42Z" transform="translate(-4238.02 -193.31)"/><path class="cls-2" d="M4692.71,710.51c-1.28-2.76-5.35-5-9.21-5l-23.32.05-105.34.22-23.36,0c-3.88,0-8.12,2.23-9.62,5l-.09.18-6.8,13.8-11.17,22.69h0L4497,761.34a.89.89,0,0,0-.08.17h0l-.09.22v.06l-.06.21a.64.64,0,0,1,0,.07l0,.18a.22.22,0,0,0,0,.08.88.88,0,0,0,0,.16v.09a.76.76,0,0,0,0,.15s0,.06,0,.1,0,.09,0,.13,0,.07,0,.1a.51.51,0,0,0,0,.13l0,.1,0,.12s0,.07,0,.11,0,.07,0,.11,0,.07.05.1a.54.54,0,0,1,.05.11l.07.1.06.1.07.11.07.09.09.1.08.09.09.1.09.09.1.1.1.08.11.09.11.08.13.09.11.07.13.09.13.07.14.08.13.07.16.07.14.07.16.07.15.06.16.06.17.06.17.06.17.05.18,0,.18,0,.18.05.19,0,.19,0,.2,0,.19,0,.22,0,.19,0,.23,0,.19,0,.24,0h.2l.26,0h.19l.3,0h.63l31.11-.06,140.29-.24,31.07-.06h.93l.19,0,.26,0h.19l.25,0,.19,0,.23,0,.19,0,.23,0,.18,0,.22-.05.18,0,.2,0,.18-.05.19,0,.17,0,.19-.06.17,0,.17-.06.16-.06.16-.07.16-.07.15-.07.15-.07.15-.07.14-.07.14-.08.13-.08.13-.08.12-.09.12-.08.11-.09.11-.09.11-.09.1-.09.09-.1a.38.38,0,0,0,.09-.09l.09-.1a.39.39,0,0,0,.08-.1l.08-.1.07-.1a.86.86,0,0,1,.07-.1l.06-.11a.54.54,0,0,0,0-.11l.06-.11a1,1,0,0,1,0-.1.84.84,0,0,0,0-.12.49.49,0,0,0,0-.11l0-.13a.3.3,0,0,0,0-.1.59.59,0,0,0,0-.13s0-.07,0-.1v-.15a.25.25,0,0,0,0-.09c0-.05,0-.1,0-.16v-.08l0-.18a.13.13,0,0,0,0-.06,1.55,1.55,0,0,0,0-.21v-.06a1.55,1.55,0,0,0-.07-.23h0s0-.11-.07-.17h0l-5.78-13.79-9.51-22.69-5.77-13.79A.89.89,0,0,0,4692.71,710.51Zm6.66,37.9a49.15,49.15,0,0,0-9.24,3c-6.13,2.64-10.47,6.09-12.79,9.78l-143.77.25c-2.06-3.67-6.15-7.1-12.1-9.72a48,48,0,0,0-11-3.34L4521.74,724a70.87,70.87,0,0,0,12.35-3.38,50.54,50.54,0,0,0,16.64-9.8l113.18-.23a45.7,45.7,0,0,0,15.88,9.74,67.63,67.63,0,0,0,10.07,2.94Z" transform="translate(-4238.02 -193.31)"/><path class="cls-7" d="M4697.41,708.13l21.06,50.27a2.21,2.21,0,0,1,.14.41c.73,2.65-2.49,4.74-7.5,4.75l-202.47.36c-5,0-8.1-2.07-7.18-4.73a2.28,2.28,0,0,1,.17-.4l24.76-50.3.09-.18c1.49-2.76,5.74-5,9.61-5l152-.32c3.87,0,7.94,2.19,9.22,5A1.42,1.42,0,0,1,4697.41,708.13Z" transform="translate(-4238.02 -193.31)"/><path class="cls-2" d="M4697.33,706.22c-1.28-2.76-5.35-5-9.22-5l-23.32,0-105.33.23-23.37,0c-3.87,0-8.12,2.23-9.61,5l-.09.18-6.8,13.8-11.18,22.7h0l-6.78,13.8-.08.17h0a.92.92,0,0,0-.09.23v.06a1.66,1.66,0,0,0-.06.21l0,.06a1.13,1.13,0,0,0,0,.18s0,.06,0,.08,0,.11,0,.16a.34.34,0,0,0,0,.1v.14s0,.07,0,.1a.57.57,0,0,0,0,.13.43.43,0,0,0,0,.11.5.5,0,0,0,0,.12.43.43,0,0,1,0,.11.49.49,0,0,1,0,.11.49.49,0,0,0,0,.11.49.49,0,0,0,0,.11,1.17,1.17,0,0,1,.05.11s0,.07.05.1l.06.11.07.1a.61.61,0,0,0,.07.1l.07.09.08.11.08.09.1.1.09.08a.47.47,0,0,0,.1.1l.1.08.11.09.11.08.12.09.12.08.13.08.13.07.14.08.13.07.15.07.15.07.15.07.16.06.16.06.16.06.17.06.18,0,.17.05.19,0,.18,0,.19,0,.19,0,.2,0,.19,0,.22,0,.19,0,.23,0,.19,0,.24,0,.2,0,.26,0h1.11l31.12,0,140.29-.25,31.07-.06h1.11l.27,0,.19,0,.25,0,.19,0,.23,0,.19,0,.22,0,.19,0,.21,0,.19,0,.2,0,.18-.05.19,0,.17-.05.19-.06.16-.05.18-.06.16-.06.16-.07.16-.06.15-.07.15-.07.15-.08.14-.07.13-.08.14-.08.12-.08.13-.08.11-.09.12-.09.11-.08.11-.1.1-.09.09-.09.09-.1.09-.1.08-.1.08-.1a.61.61,0,0,1,.07-.1l.06-.1.07-.11,0-.1.06-.12,0-.1,0-.12s0-.07,0-.11l0-.12s0-.07,0-.1a.68.68,0,0,0,0-.14.31.31,0,0,0,0-.1.61.61,0,0,0,0-.14s0-.06,0-.09,0-.11,0-.16v-.09l0-.18a.13.13,0,0,0,0-.06,1.6,1.6,0,0,0-.05-.21v-.06c0-.08,0-.15-.07-.23h0l-.07-.18h0l-5.79-13.79-9.5-22.68-5.77-13.8Zm6.65,37.9a50.9,50.9,0,0,0-9.24,3c-6.13,2.64-10.46,6.09-12.78,9.78l-143.77.25c-2.06-3.67-6.15-7.1-12.11-9.72a47.75,47.75,0,0,0-10.95-3.33l11.23-24.38a72.68,72.68,0,0,0,12.35-3.38,50.82,50.82,0,0,0,16.64-9.81l113.18-.23a45.7,45.7,0,0,0,15.88,9.74,67.68,67.68,0,0,0,10.07,3Z" transform="translate(-4238.02 -193.31)"/><path class="cls-7" d="M4693.78,703.51l21.06,50.27a2.21,2.21,0,0,1,.14.41c.74,2.65-2.49,4.74-7.5,4.75L4505,759.3c-5,0-8.1-2.07-7.18-4.72a3.56,3.56,0,0,1,.17-.41l24.76-50.3a1.62,1.62,0,0,1,.1-.18c1.49-2.76,5.73-5,9.61-5l152-.32c3.86,0,7.93,2.2,9.21,5A1.3,1.3,0,0,1,4693.78,703.51Z" transform="translate(-4238.02 -193.31)"/><path class="cls-2" d="M4693.7,701.6c-1.28-2.76-5.35-5-9.21-5l-23.32,0-105.34.23-23.36.05c-3.88,0-8.12,2.22-9.62,5l-.09.17-6.8,13.8-11.17,22.7h0l-6.79,13.8a1.42,1.42,0,0,0-.08.18h0a1.09,1.09,0,0,0-.09.23v.06l-.06.21,0,.06,0,.18a.28.28,0,0,0,0,.09.77.77,0,0,0,0,.15v.1a.66.66,0,0,0,0,.14s0,.07,0,.1,0,.09,0,.13a.43.43,0,0,0,0,.11.5.5,0,0,0,0,.12l0,.11,0,.11s0,.08,0,.11,0,.08,0,.11l.05.11a.47.47,0,0,1,.05.1l.07.11.06.1.07.1.07.1.08.1.08.09.1.1.09.09.1.09.1.08.11.1.11.08.12.08.12.08.13.08.13.08.14.07.13.07.15.08.15.06.15.07.16.06.16.06.17.06.17.06.17,0,.18.06.18,0,.18.05.19,0,.19,0,.2,0,.19,0,.22,0,.19,0,.23,0,.19,0,.24,0,.2,0,.26,0H4505l31.11,0,140.29-.25,31.07,0h1.11l.27,0,.19,0,.25,0,.19,0,.23,0,.19,0,.23,0,.18,0,.21,0,.19,0,.2,0,.18,0,.19-.06.17-.05.19,0,.17-.06.17-.06.16-.06.16-.07.16-.06.15-.07.15-.07.15-.07.14-.08.13-.08.14-.08.12-.08a.57.57,0,0,0,.13-.08l.12-.09.11-.08.11-.09.11-.09.1-.1.09-.09.09-.1.09-.09.08-.1.08-.1.07-.11.07-.1.06-.11.05-.1.06-.12,0-.1a.56.56,0,0,0,0-.12.42.42,0,0,0,0-.1l0-.13a.36.36,0,0,0,0-.1.68.68,0,0,0,0-.14s0-.06,0-.09v-.15a.28.28,0,0,0,0-.09c0-.05,0-.11,0-.16V753l0-.18a.17.17,0,0,0,0-.07,1.55,1.55,0,0,0,0-.21v-.06c0-.07,0-.15-.07-.23h0l-.07-.18h0l-5.79-13.79-9.5-22.68-5.77-13.79A1.42,1.42,0,0,0,4693.7,701.6Zm6.66,37.9a49.91,49.91,0,0,0-9.24,3c-6.13,2.64-10.47,6.09-12.79,9.77l-143.77.26c-2.06-3.68-6.15-7.11-12.1-9.73a48.49,48.49,0,0,0-11-3.33l11.23-24.38a72.68,72.68,0,0,0,12.35-3.38,50.88,50.88,0,0,0,16.64-9.8l113.18-.24a45.85,45.85,0,0,0,15.88,9.75,67.63,67.63,0,0,0,10.07,2.94Z" transform="translate(-4238.02 -193.31)"/><path class="cls-7" d="M4695.76,698.57l21.06,50.26a2.49,2.49,0,0,1,.14.41c.73,2.65-2.49,4.75-7.5,4.76l-202.47.35c-5,0-8.1-2.07-7.18-4.72a3.56,3.56,0,0,1,.17-.41l24.76-50.3.09-.17c1.5-2.77,5.74-5,9.61-5l152-.33c3.86,0,7.93,2.2,9.21,5A1.42,1.42,0,0,1,4695.76,698.57Z" transform="translate(-4238.02 -193.31)"/><path class="cls-2" d="M4695.68,696.65c-1.28-2.76-5.35-5-9.22-4.95l-23.32,0-105.33.22-23.37,0c-3.87,0-8.12,2.23-9.61,5l-.09.17-6.8,13.81-11.18,22.69h0l-6.78,13.8a1.42,1.42,0,0,0-.08.18h0a1.36,1.36,0,0,0-.09.23V748a1.66,1.66,0,0,0-.06.21s0,.05,0,.07l0,.18a.19.19,0,0,0,0,.08.88.88,0,0,0,0,.16.28.28,0,0,1,0,.09v.14s0,.07,0,.11a.62.62,0,0,0,0,.13.36.36,0,0,0,0,.1.5.5,0,0,0,0,.12l0,.11,0,.12a.42.42,0,0,0,0,.1s0,.08,0,.11a1.17,1.17,0,0,0,.05.11l0,.11.06.1a.36.36,0,0,0,.07.1l.07.11.07.09.08.1.08.09a.94.94,0,0,0,.1.1l.09.09.1.09.1.09.11.09.11.08.12.09.12.07.13.09.13.07.14.08.13.07.15.07.15.06.15.07.16.06.16.07.16.05.17.06.18.06.17,0,.19.05.18,0,.19,0,.19,0,.2,0,.19,0,.22,0,.19,0,.23,0,.19,0,.24,0,.2,0,.26,0H4507l31.12-.06,140.29-.25,31.07,0h.62l.31,0h.18l.27,0,.19,0,.25,0,.19,0,.23,0,.19,0,.23,0,.18,0,.21,0,.19,0,.2,0,.18,0,.19-.05.17,0,.19-.06.16-.06.18-.06.16-.06.16-.06.16-.07.15-.07.15-.07.15-.07.14-.08.13-.07.14-.08.12-.08.13-.09.11-.08.12-.09.11-.09.11-.09.1-.09.09-.1.09-.09.09-.1.08-.1.08-.1a.86.86,0,0,1,.07-.1l.06-.11a.41.41,0,0,0,.07-.11.31.31,0,0,0,.05-.1l.06-.11s0-.07,0-.11a.56.56,0,0,0,0-.12l0-.1,0-.13s0-.06,0-.1a.59.59,0,0,0,0-.13.38.38,0,0,0,0-.1.76.76,0,0,0,0-.15s0-.06,0-.09,0-.11,0-.16V748l0-.18a.2.2,0,0,0,0-.07c0-.07,0-.14,0-.21v0a1.55,1.55,0,0,0-.07-.23h0c0-.06-.05-.11-.07-.17h0L4711,733.3l-9.5-22.68-5.77-13.79A1.42,1.42,0,0,0,4695.68,696.65Zm6.65,37.91a49.63,49.63,0,0,0-9.24,3c-6.13,2.64-10.46,6.09-12.78,9.77l-143.77.26c-2.06-3.67-6.15-7.11-12.1-9.72a48,48,0,0,0-11-3.34l11.23-24.38a71.77,71.77,0,0,0,12.35-3.38,50.88,50.88,0,0,0,16.64-9.8l113.18-.24a45.7,45.7,0,0,0,15.88,9.75,67.63,67.63,0,0,0,10.07,2.94Z" transform="translate(-4238.02 -193.31)"/><path class="cls-7" d="M4690.48,693.62l21.06,50.27a2.86,2.86,0,0,1,.15.41c.73,2.65-2.5,4.74-7.51,4.75l-202.47.36c-5,0-8.1-2.08-7.18-4.73l.17-.41,24.77-50.3.09-.17c1.49-2.76,5.73-5,9.61-5l152-.32c3.86,0,7.93,2.19,9.22,5Z" transform="translate(-4238.02 -193.31)"/><path class="cls-2" d="M4690.48,691.88l21.06,50.27a3.39,3.39,0,0,1,.15.41c.73,2.65-2.5,4.74-7.51,4.75l-202.47.36c-5,0-8.1-2.07-7.18-4.73a3.42,3.42,0,0,1,.17-.4l24.76-50.3a1.62,1.62,0,0,1,.1-.18c1.49-2.76,5.73-5,9.61-5l152-.32c3.86,0,7.93,2.2,9.21,5A.89.89,0,0,1,4690.48,691.88Z" transform="translate(-4238.02 -193.31)"/><path class="cls-3" d="M4690.4,691.71c-1.28-2.76-5.35-5-9.21-5l-23.32,0-105.34.22-23.36.05c-3.88,0-8.12,2.23-9.61,5a1.62,1.62,0,0,0-.1.18l-6.8,13.8-11.17,22.7h0l-6.79,13.8c0,.05-.05.11-.08.17h0l-.09.22v0s0,0,0,0l-.06.21a.2.2,0,0,0,0,.07,1.16,1.16,0,0,0,0,.18.22.22,0,0,0,0,.08,1,1,0,0,0,0,.16v.09a.75.75,0,0,0,0,.15v.1s0,.09,0,.13,0,.07,0,.1,0,.09,0,.13l0,.1,0,.12s0,.07,0,.11,0,.07,0,.11a.47.47,0,0,1,0,.1l.06.11.06.1.06.1.07.11.07.09.09.1.08.1.09.09.09.09.1.1a.39.39,0,0,1,.1.08l.12.09.1.08.13.09.11.08.14.08.12.07.14.08.14.07.15.07.14.07.16.07.15.06.16.06.17.06.17.06.17,0,.18.05.18,0,.18,0,.19,0,.19,0,.2,0,.19,0,.22,0,.19,0,.23,0,.19,0,.25,0,.19,0h.45l.3,0h.63l31.11-.06,140.29-.24,31.07-.06h.93l.19,0,.26,0h.19l.25,0,.19,0,.24,0,.18,0,.23,0,.19,0,.21,0,.18,0,.2,0,.18,0,.19,0,.18-.05.18-.06.17-.05.17-.06.16-.06.17-.07.15-.07.16-.06.14-.08.15-.07.14-.07.14-.08.13-.08.13-.08.12-.09.12-.08.11-.09.11-.09.11-.09.1-.09.1-.09.09-.1.08-.1a.39.39,0,0,0,.08-.1.39.39,0,0,0,.08-.1.61.61,0,0,0,.07-.1.86.86,0,0,1,.07-.1l.06-.11.06-.11,0-.11a1,1,0,0,1,0-.1l.05-.12,0-.11,0-.12a.43.43,0,0,0,0-.11.59.59,0,0,0,0-.13s0-.07,0-.1a.76.76,0,0,1,0-.15v-.09a.92.92,0,0,0,0-.16v-.08l0-.18v-.06c0-.07,0-.14-.05-.21v-.06c0-.08,0-.16-.08-.23h0c0-.05,0-.11-.07-.17h0l-5.78-13.79-9.51-22.69-5.77-13.79A.89.89,0,0,0,4690.4,691.71Zm6.66,37.9a49.15,49.15,0,0,0-9.24,3c-6.13,2.64-10.47,6.09-12.78,9.78l-143.78.25c-2.06-3.67-6.15-7.1-12.1-9.72a47.85,47.85,0,0,0-11-3.34l11.23-24.38a70.87,70.87,0,0,0,12.35-3.38,50.54,50.54,0,0,0,16.64-9.8l113.18-.23a45.7,45.7,0,0,0,15.88,9.74,68,68,0,0,0,10.07,3Z" transform="translate(-4238.02 -193.31)"/><ellipse class="cls-3" cx="364.7" cy="522.65" rx="23.42" ry="14.9"/><path class="cls-3" d="M4563.91,715.76c0,3.12-4.36,5.7-9.83,5.77s-9.92-2.41-10-5.52,4.36-5.7,9.82-5.77S4563.87,712.65,4563.91,715.76Z" transform="translate(-4238.02 -193.31)"/><path class="cls-3" d="M4554,708.59c-7.29.09-13.15,3.53-13.1,7.69s6,7.45,13.28,7.36,13.15-3.53,13.1-7.69S4561.26,708.5,4554,708.59Zm.17,14.42c-6.67.08-12.13-2.94-12.17-6.75s5.33-7,12-7,12.13,2.94,12.18,6.74S4560.83,722.93,4554.15,723Z" transform="translate(-4238.02 -193.31)"/><path class="cls-3" d="M4657.79,716.38c-.13,3.12-4.66,5.46-10.12,5.22s-9.78-2.94-9.65-6.05,4.67-5.45,10.13-5.22S4657.93,713.27,4657.79,716.38Z" transform="translate(-4238.02 -193.31)"/><path class="cls-3" d="M4648.27,708.68c-7.28-.31-13.32,2.81-13.5,7s5.59,7.77,12.87,8.07,13.32-2.81,13.5-7S4655.55,709,4648.27,708.68Zm-.61,14.41c-6.67-.28-11.95-3.6-11.79-7.4s5.7-6.66,12.37-6.38,12,3.59,11.8,7.4S4654.34,723.37,4647.66,723.09Z" transform="translate(-4238.02 -193.31)"/><path class="cls-8" d="M4405.46,733.49v9.34c0,2-14.08,3.66-33.06,4.11-3.35.08-6.86.13-10.46.13-24,0-43.52-1.9-43.52-4.24v-9.34Z" transform="translate(-4238.02 -193.31)"/><path class="cls-9" d="M4318.42,733.49v9.34c0,2.34,19.48,4.24,43.52,4.24s43.52-1.9,43.52-4.24v-9.34Z" transform="translate(-4238.02 -193.31)"/><path class="cls-10" d="M4405.46,734c0,2.34-19.49,4.24-43.52,4.24s-43.52-1.9-43.52-4.24,19.48-4.23,43.52-4.23S4405.46,731.65,4405.46,734Z" transform="translate(-4238.02 -193.31)"/><path class="cls-10" d="M4405.46,733.49c0,2.34-19.49,4.23-43.52,4.23s-43.52-1.89-43.52-4.23,19.48-4.23,43.52-4.23S4405.46,731.15,4405.46,733.49Z" transform="translate(-4238.02 -193.31)"/><path class="cls-11" d="M4401.28,733.36c0,1.77-17.61,3.21-39.34,3.21s-39.34-1.44-39.34-3.21,17.61-3.2,39.34-3.2S4401.28,731.59,4401.28,733.36Z" transform="translate(-4238.02 -193.31)"/><path class="cls-8" d="M4401.28,722.4v9.34c0,2-14.07,3.66-33.06,4.11-3.35.08-6.85.12-10.46.12-24,0-43.52-1.89-43.52-4.23V722.4Z" transform="translate(-4238.02 -193.31)"/><path class="cls-9" d="M4314.24,722.4v9.34c0,2.34,19.49,4.24,43.52,4.24s43.52-1.9,43.52-4.24V722.4Z" transform="translate(-4238.02 -193.31)"/><path class="cls-12" d="M4401.28,722.89c0,2.34-19.48,4.24-43.52,4.24s-43.52-1.9-43.52-4.24,19.49-4.23,43.52-4.23S4401.28,720.56,4401.28,722.89Z" transform="translate(-4238.02 -193.31)"/><path class="cls-8" d="M4401.28,722.4c0,2.34-19.48,4.23-43.52,4.23s-43.52-1.89-43.52-4.23,19.49-4.23,43.52-4.23S4401.28,720.06,4401.28,722.4Z" transform="translate(-4238.02 -193.31)"/><path class="cls-10" d="M4397.1,722.27c0,1.77-17.61,3.21-39.34,3.21s-39.34-1.44-39.34-3.21,17.61-3.2,39.34-3.2S4397.1,720.5,4397.1,722.27Z" transform="translate(-4238.02 -193.31)"/><path class="cls-8" d="M4421,711.13v9.34c0,2-14.07,3.66-33.05,4.11-3.35.08-6.86.13-10.47.13-24,0-43.52-1.9-43.52-4.24v-9.34Z" transform="translate(-4238.02 -193.31)"/><path class="cls-9" d="M4334,711.13v9.34c0,2.34,19.49,4.24,43.52,4.24s43.53-1.9,43.53-4.24v-9.34Z" transform="translate(-4238.02 -193.31)"/><path class="cls-12" d="M4421,711.62c0,2.34-19.49,4.24-43.53,4.24S4334,714,4334,711.62s19.49-4.23,43.52-4.23S4421,709.29,4421,711.62Z" transform="translate(-4238.02 -193.31)"/><path class="cls-10" d="M4421,711.13c0,2.34-19.49,4.23-43.53,4.23s-43.52-1.89-43.52-4.23,19.49-4.23,43.52-4.23S4421,708.79,4421,711.13Z" transform="translate(-4238.02 -193.31)"/><path class="cls-11" d="M4416.84,711c0,1.77-17.62,3.21-39.35,3.21s-39.34-1.44-39.34-3.21,17.62-3.2,39.34-3.2S4416.84,709.23,4416.84,711Z" transform="translate(-4238.02 -193.31)"/><path class="cls-8" d="M4397.1,700.72v9.35c0,2-14.07,3.65-33.05,4.11-3.35.08-6.86.12-10.47.12-24,0-43.52-1.9-43.52-4.23v-9.35Z" transform="translate(-4238.02 -193.31)"/><path class="cls-9" d="M4310.06,700.72v9.35c0,2.34,19.49,4.23,43.52,4.23s43.52-1.89,43.52-4.23v-9.35Z" transform="translate(-4238.02 -193.31)"/><path class="cls-12" d="M4397.1,701.22c0,2.34-19.48,4.23-43.52,4.23s-43.52-1.89-43.52-4.23,19.49-4.23,43.52-4.23S4397.1,698.88,4397.1,701.22Z" transform="translate(-4238.02 -193.31)"/><path class="cls-10" d="M4397.1,700.72c0,2.34-19.48,4.24-43.52,4.24s-43.52-1.9-43.52-4.24,19.49-4.23,43.52-4.23S4397.1,698.39,4397.1,700.72Z" transform="translate(-4238.02 -193.31)"/><path class="cls-11" d="M4392.93,700.6c0,1.77-17.62,3.2-39.35,3.2s-39.34-1.43-39.34-3.2,17.61-3.21,39.34-3.21S4392.93,698.83,4392.93,700.6Z" transform="translate(-4238.02 -193.31)"/><path class="cls-8" d="M4405.46,689.05v9.34c0,2-14.08,3.65-33.06,4.11-3.35.08-6.86.12-10.46.12-24,0-43.52-1.89-43.52-4.23v-9.34Z" transform="translate(-4238.02 -193.31)"/><path class="cls-9" d="M4318.42,689.05v9.34c0,2.34,19.48,4.23,43.52,4.23s43.52-1.89,43.52-4.23v-9.34Z" transform="translate(-4238.02 -193.31)"/><path class="cls-10" d="M4405.46,689.54c0,2.34-19.49,4.23-43.52,4.23s-43.52-1.89-43.52-4.23,19.48-4.23,43.52-4.23S4405.46,687.2,4405.46,689.54Z" transform="translate(-4238.02 -193.31)"/><path class="cls-11" d="M4405.46,689.05c0,2.33-19.49,4.23-43.52,4.23s-43.52-1.9-43.52-4.23,19.48-4.24,43.52-4.24S4405.46,686.71,4405.46,689.05Z" transform="translate(-4238.02 -193.31)"/><path class="cls-10" d="M4401.28,688.92c0,1.77-17.61,3.2-39.34,3.2s-39.34-1.43-39.34-3.2,17.61-3.21,39.34-3.21S4401.28,687.15,4401.28,688.92Z" transform="translate(-4238.02 -193.31)"/><path class="cls-8" d="M4392.93,678.38v9.35c0,2-14.08,3.65-33.06,4.1-3.35.08-6.86.13-10.46.13-24,0-43.52-1.9-43.52-4.23v-9.35Z" transform="translate(-4238.02 -193.31)"/><path class="cls-9" d="M4305.89,678.38v9.35c0,2.33,19.48,4.23,43.52,4.23s43.52-1.9,43.52-4.23v-9.35Z" transform="translate(-4238.02 -193.31)"/><path class="cls-12" d="M4392.93,678.88c0,2.33-19.49,4.23-43.52,4.23s-43.52-1.9-43.52-4.23,19.48-4.24,43.52-4.24S4392.93,676.54,4392.93,678.88Z" transform="translate(-4238.02 -193.31)"/><path class="cls-10" d="M4392.93,678.38c0,2.34-19.49,4.23-43.52,4.23s-43.52-1.89-43.52-4.23,19.48-4.23,43.52-4.23S4392.93,676,4392.93,678.38Z" transform="translate(-4238.02 -193.31)"/><path class="cls-11" d="M4388.75,678.25c0,1.77-17.62,3.21-39.34,3.21s-39.35-1.44-39.35-3.21,17.62-3.2,39.35-3.2S4388.75,676.48,4388.75,678.25Z" transform="translate(-4238.02 -193.31)"/><circle class="cls-13" cx="62.67" cy="547.65" r="45.39"/><circle class="cls-9" cx="61.18" cy="547.65" r="45.39"/><circle class="cls-10" cx="4294.97" cy="742.18" r="45.39" transform="translate(-3056.45 3599.17) rotate(-54.22)"/><path class="cls-14" d="M4295,699.15a43,43,0,1,0,43,43A43,43,0,0,0,4295,699.15Zm0,84.5a41.47,41.47,0,1,1,41.47-41.47A41.47,41.47,0,0,1,4295,783.65Z" transform="translate(-4238.02 -193.31)"/><circle class="cls-9" cx="4294.97" cy="742.18" r="30.98" transform="translate(-962 4786.72) rotate(-86.28)"/><circle class="cls-14" cx="4296.13" cy="742.18" r="29.14" transform="translate(-1203.41 4722.14) rotate(-82.98)"/><path class="cls-9" d="M4292.53,757.38a27.94,27.94,0,0,1-9.76-2.74l.35-7.76a34.37,34.37,0,0,0,5.79,2.57,20.32,20.32,0,0,0,5.54,1.17,6.54,6.54,0,0,0,2.94-.35,1.65,1.65,0,0,0,1-1.56,1.63,1.63,0,0,0-.6-1.34,11.09,11.09,0,0,0-2.17-1.31c-1-.5-2.39-1.11-4.12-1.83a19,19,0,0,1-4.69-2.68,8.68,8.68,0,0,1-2.51-3.18,9.58,9.58,0,0,1-.64-4.26,7.58,7.58,0,0,1,2.75-5.92c1.72-1.38,4.24-2.16,7.56-2.36l.23-5.18,4.84.21-.23,5.15a27.42,27.42,0,0,1,9.27,2.71l-3.08,6.54a21.92,21.92,0,0,0-8.72-2.6,5.54,5.54,0,0,0-2.65.34,1.48,1.48,0,0,0-.82,1.31,1.67,1.67,0,0,0,.49,1.3,7.91,7.91,0,0,0,1.86,1.21c.88.45,2.12,1,3.7,1.61a18.29,18.29,0,0,1,6.83,4.25,7.87,7.87,0,0,1,1.87,5.79,8.55,8.55,0,0,1-2.77,6.27,12.13,12.13,0,0,1-7.4,2.71l-.28,6.26-4.84-.22Z" transform="translate(-4238.02 -193.31)"/></g></svg>