<?xml version="1.0" encoding="utf-8"?>
<!-- Generator: Adobe Illustrator 22.1.0, SVG Export Plug-In . SVG Version: 6.00 Build 0)  -->
<svg version="1.1" id="Слой_1" xmlns="http://www.w3.org/2000/svg" xmlns:xlink="http://www.w3.org/1999/xlink" x="0px" y="0px"
	 viewBox="0 0 381 382" style="enable-background:new 0 0 381 382;" xml:space="preserve">
<style type="text/css">
	.st0{clip-path:url(#SVGID_2_);fill:#E6C695;}
	.st1{clip-path:url(#SVGID_4_);fill:none;stroke:#6B6966;stroke-width:8;stroke-linecap:round;stroke-miterlimit:10;}
	.st2{clip-path:url(#SVGID_6_);fill:#EDD0A4;}
	.st3{clip-path:url(#SVGID_8_);fill:#EDD0A4;}
	.st4{clip-path:url(#SVGID_10_);fill:#EDD0A4;}
	.st5{clip-path:url(#SVGID_12_);fill:#EDD0A4;}
	.st6{clip-path:url(#SVGID_14_);fill:#99B1F2;}
	.st7{clip-path:url(#SVGID_16_);fill:#F2DAB6;}
	.st8{clip-path:url(#SVGID_18_);fill:#F2DAB6;}
	.st9{clip-path:url(#SVGID_20_);fill:#F2DAB6;}
	.st10{clip-path:url(#SVGID_22_);fill:#F2DAB6;}
	.st11{clip-path:url(#SVGID_24_);fill:#E6C695;}
	.st12{clip-path:url(#SVGID_26_);fill:#F2DAB6;}
	.st13{clip-path:url(#SVGID_28_);fill:#6480BF;}
	.st14{fill:#1B5187;}
	.st15{fill:#E2DFDE;}
	.st16{fill:#FFFFFF;}
	.st17{fill:#6B6966;}
	.st18{clip-path:url(#SVGID_30_);}
	.st19{opacity:7.000000e-02;fill:#2D2928;enable-background:new    ;}
	.st20{fill:#D8B15A;}
	.st21{fill:#EABF3A;}
	.st22{fill:#FAEF9F;}
	.st23{clip-path:url(#SVGID_32_);fill:#EDD0A4;}
	.st24{clip-path:url(#SVGID_34_);fill:#EDD0A4;}
	.st25{clip-path:url(#SVGID_36_);fill:#FAE7B4;}
	.st26{clip-path:url(#SVGID_38_);fill:#666867;}
	.st27{clip-path:url(#SVGID_40_);fill:#909692;}
</style>
<g id="Background">
</g>
<g id="Objects">
	<g>
		<g>
			<defs>
				<circle id="SVGID_1_" cx="203.9" cy="193.4" r="203.9"/>
			</defs>
			<clipPath id="SVGID_2_">
				<use xlink:href="#SVGID_1_"  style="overflow:visible;"/>
			</clipPath>
			<path class="st0" d="M187.5,319l5,29.7c0,0,20.9,5.7,24.9,6.7c4,1,10.6,0,10.6,0l13,5.5h4.9l-0.7-25l-40-23.3L187.5,319z"/>
		</g>
		<g>
			<defs>
				<circle id="SVGID_3_" cx="203.9" cy="193.4" r="203.9"/>
			</defs>
			<clipPath id="SVGID_4_">
				<use xlink:href="#SVGID_3_"  style="overflow:visible;"/>
			</clipPath>
			<path class="st1" d="M204.1,59.9v293.9c0,6.7-5.5,12.2-12.2,12.2h-13c-6.7,0-12.2-4.5-12.2-10.2v-10.2"/>
		</g>
		<g>
			<defs>
				<circle id="SVGID_5_" cx="203.9" cy="193.4" r="203.9"/>
			</defs>
			<clipPath id="SVGID_6_">
				<use xlink:href="#SVGID_5_"  style="overflow:visible;"/>
			</clipPath>
			<path class="st2" d="M205.3,344.4c0,2.4-2,4.4-4.4,4.4h-10.3c-2.4,0-4.4-2-4.4-4.4l0,0c0-2.4,2-4.4,4.4-4.4h10.3
				C203.3,340,205.3,342,205.3,344.4L205.3,344.4z"/>
		</g>
		<g>
			<defs>
				<circle id="SVGID_7_" cx="203.9" cy="193.4" r="203.9"/>
			</defs>
			<clipPath id="SVGID_8_">
				<use xlink:href="#SVGID_7_"  style="overflow:visible;"/>
			</clipPath>
			<path class="st3" d="M207.1,335.9c0,2.3-1.8,4.1-4.1,4.1h-16.4c-2.3,0-4.1-1.8-4.1-4.1l0,0c0-2.3,1.8-4.1,4.1-4.1H203
				C205.3,331.8,207.1,333.7,207.1,335.9L207.1,335.9z"/>
		</g>
		<g>
			<defs>
				<circle id="SVGID_9_" cx="203.9" cy="193.4" r="203.9"/>
			</defs>
			<clipPath id="SVGID_10_">
				<use xlink:href="#SVGID_9_"  style="overflow:visible;"/>
			</clipPath>
			<path class="st4" d="M206,327c0,2.7-2.2,4.8-4.8,4.8h-14c-2.7,0-4.8-2.2-4.8-4.8l0,0c0-2.7,2.2-4.8,4.8-4.8h14
				C203.9,322.2,206,324.3,206,327L206,327z"/>
		</g>
		<g>
			<defs>
				<circle id="SVGID_11_" cx="203.9" cy="193.4" r="203.9"/>
			</defs>
			<clipPath id="SVGID_12_">
				<use xlink:href="#SVGID_11_"  style="overflow:visible;"/>
			</clipPath>
			<path class="st5" d="M206,318.4c0,2.1-1.7,3.7-3.7,3.7h-15c-2.1,0-3.7-1.7-3.7-3.7l0,0c0-2.1,1.7-3.7,3.7-3.7h15
				C204.4,314.7,206,316.4,206,318.4L206,318.4z"/>
		</g>
		<g>
			<defs>
				<circle id="SVGID_13_" cx="203.9" cy="193.4" r="203.9"/>
			</defs>
			<clipPath id="SVGID_14_">
				<use xlink:href="#SVGID_13_"  style="overflow:visible;"/>
			</clipPath>
			<rect x="252.3" y="330.2" class="st6" width="188.7" height="37.1"/>
		</g>
		<g>
			<defs>
				<circle id="SVGID_15_" cx="203.9" cy="193.4" r="203.9"/>
			</defs>
			<clipPath id="SVGID_16_">
				<use xlink:href="#SVGID_15_"  style="overflow:visible;"/>
			</clipPath>
			<path class="st7" d="M198.3,316.1v4c0,0,4.1,1.3,5.9-0.3c1.9-1.5,0.3-3.8-0.2-4C201.9,314.9,198.3,316.1,198.3,316.1z"/>
		</g>
		<g>
			<defs>
				<circle id="SVGID_17_" cx="203.9" cy="193.4" r="203.9"/>
			</defs>
			<clipPath id="SVGID_18_">
				<use xlink:href="#SVGID_17_"  style="overflow:visible;"/>
			</clipPath>
			<path class="st8" d="M198.1,325.1v4c0,0,3.7,1.3,5.4-0.3c1.7-1.5,0.3-3.8-0.2-4C201.3,323.9,198.1,325.1,198.1,325.1z"/>
		</g>
		<g>
			<defs>
				<circle id="SVGID_19_" cx="203.9" cy="193.4" r="203.9"/>
			</defs>
			<clipPath id="SVGID_20_">
				<use xlink:href="#SVGID_19_"  style="overflow:visible;"/>
			</clipPath>
			<path class="st9" d="M199.2,334v4c0,0,3.7,1.3,5.4-0.3c1.7-1.5,0.3-3.8-0.2-4C202.5,332.8,199.2,334,199.2,334z"/>
		</g>
		<g>
			<defs>
				<circle id="SVGID_21_" cx="203.9" cy="193.4" r="203.9"/>
			</defs>
			<clipPath id="SVGID_22_">
				<use xlink:href="#SVGID_21_"  style="overflow:visible;"/>
			</clipPath>
			<path class="st10" d="M197.6,342.6v3.6c0,0,3.7,1.1,5.4-0.3c1.7-1.4,0.3-3.4-0.2-3.6C200.9,341.5,197.6,342.6,197.6,342.6z"/>
		</g>
		<g>
			<defs>
				<circle id="SVGID_23_" cx="203.9" cy="193.4" r="203.9"/>
			</defs>
			<clipPath id="SVGID_24_">
				<use xlink:href="#SVGID_23_"  style="overflow:visible;"/>
			</clipPath>
			<path class="st11" d="M246,331.5c-0.5,0.1-10.2-0.7-10.2-0.7l-21.9-22.3c0,0-16.4-4.2-19.3-3.1c-4.2,1.5-13,7.1-14.3,8.8
				c-0.6,0.8,3.4,5.8,9.6,3.8c6.2-2.1,7.5-2.8,7.5-2.8l11.1,6.2c0,0,0,14.3,7.6,16.7c7.7,2.5,17-0.5,17-0.5l12.8,0.5L246,331.5
				L246,331.5z"/>
		</g>
		<g>
			<defs>
				<circle id="SVGID_25_" cx="203.9" cy="193.4" r="203.9"/>
			</defs>
			<clipPath id="SVGID_26_">
				<use xlink:href="#SVGID_25_"  style="overflow:visible;"/>
			</clipPath>
			<path class="st12" d="M179.6,313.5c0,0,1.3,1.6,3.7,1.2c2.4-0.4,5.1-3.2,5.1-3.2l-1.6-2.1L179.6,313.5z"/>
		</g>
		<g>
			<defs>
				<circle id="SVGID_27_" cx="203.9" cy="193.4" r="203.9"/>
			</defs>
			<clipPath id="SVGID_28_">
				<use xlink:href="#SVGID_27_"  style="overflow:visible;"/>
			</clipPath>
			<rect x="236.4" y="325.2" class="st13" width="18.6" height="47"/>
		</g>
	</g>
	<g>
		<path class="st14" d="M202.9,23.4c-0.3,0-0.5,0-0.8,0c-1.5,0.1-2.9,0.2-4.4,0.4c-45.9,6.2-82.1,79.8-82.5,170c0,0.5,0,0.9,0,1.4
			h-0.9v-0.5c0-0.3,0.2-0.6,0.5-0.8v0c-3.1-5.1-23.8-9-48.9-9c-12.6,0-24.1,1-32.9,2.6c0,0.1,0,0.1,0,0.2v1c0,0.5-0.4,0.8-0.8,0.9
			c0-0.6,0-1.3,0.1-1.9c0-0.3,0-0.5,0-0.8c4.3-89,76.2-160.2,165.5-163.4c1.4,0,2.8-0.1,4.3-0.1C202.4,23.4,202.6,23.4,202.9,23.4z"
			/>
		<path class="st14" d="M375.8,188.9c-0.5,0-0.8-0.4-0.8-0.9v-0.9c-8.6-1.3-19.4-2.1-31.1-2.1c-26,0-47.5,3.9-50.7,9
			c0.3,0.1,0.5,0.4,0.5,0.8v0.5h-1.8v-0.5c0-0.3,0.1-0.5,0.3-0.7c-5.1-5.1-42.6-9.1-88.2-9.1c-45.5,0-83,4-88.2,9.1
			c0.2,0.2,0.3,0.4,0.3,0.7v0.5h-0.9c0-0.5,0-0.9,0-1.4c0-2.8,0-5.6,0.1-8.4c0-1.3,0.1-2.6,0.1-4c0-0.2,0-0.4,0-0.6
			c0-0.4,0-0.7,0-1.1c0.1-2.3,0.2-4.5,0.4-6.8c0.1-1.3,0.2-2.7,0.3-4c0-0.2,0-0.5,0-0.7c0.2-2.5,0.4-5,0.7-7.4
			c0.5-5.3,1.2-10.6,2-15.7c0.2-1.3,0.4-2.6,0.6-3.8c0.2-1.3,0.4-2.5,0.7-3.8c0.5-2.4,0.9-4.9,1.4-7.3c0-0.1,0-0.1,0-0.2
			c0.3-1.2,0.5-2.4,0.8-3.7c0.3-1.2,0.5-2.4,0.8-3.6c0.3-1.2,0.6-2.4,0.9-3.6c0.3-1,0.5-2,0.8-3.1c0.1-0.3,0.1-0.6,0.2-0.8
			c0.3-1,0.6-2.1,0.9-3.1c0-0.2,0.1-0.3,0.1-0.5c0.3-1,0.6-1.9,0.9-2.9c0.3-1.1,0.7-2.3,1-3.4c0.4-1.1,0.7-2.2,1.1-3.3c0,0,0,0,0,0
			c0-0.1,0.1-0.3,0.1-0.4c0.3-1,0.6-1.9,1-2.8c0.3-0.9,0.6-1.8,1-2.7c0.1-0.2,0.1-0.4,0.2-0.5c0,0,0,0,0,0c0.4-1.1,0.8-2.1,1.2-3.2
			c0.8-2.1,1.6-4.2,2.5-6.2c0.4-1,0.9-2,1.3-3c0.4-1,0.9-2,1.3-2.9c0.5-1,0.9-2,1.4-2.9c0.3-0.7,0.7-1.4,1-2.1
			c0.3-0.7,0.7-1.4,1.1-2.1c0.7-1.4,1.5-2.7,2.2-4.1c0.7-1.3,1.5-2.6,2.3-3.9c0.5-0.9,1-1.7,1.5-2.5c0.5-0.8,1-1.6,1.6-2.5
			c0.4-0.6,0.8-1.2,1.2-1.9c0.1-0.2,0.2-0.4,0.4-0.5c0.3-0.4,0.5-0.8,0.8-1.2c0.3-0.4,0.5-0.8,0.8-1.1c0.8-1.2,1.7-2.3,2.5-3.4
			c1.1-1.4,2.2-2.8,3.4-4.1c0.6-0.7,1.2-1.4,1.8-2.1c0.6-0.7,1.2-1.3,1.8-1.9c0.3-0.3,0.6-0.6,0.9-0.9l0.9-0.9
			c0.3-0.3,0.6-0.6,0.9-0.9c0.6-0.6,1.2-1.1,1.8-1.7c0,0,0.1-0.1,0.1-0.1c0.6-0.5,1.2-1.1,1.8-1.6c0.6-0.5,1.3-1,1.9-1.6
			c0,0,0,0,0,0c0.6-0.5,1.3-1,1.9-1.5c0.3-0.2,0.6-0.5,1-0.7c0.3-0.2,0.6-0.5,1-0.7c0.4-0.3,0.7-0.5,1.1-0.7
			c0.4-0.3,0.7-0.5,1.1-0.7c0.4-0.2,0.7-0.5,1.1-0.7c1.9-1.1,3.8-2.1,5.7-3c0.7-0.3,1.4-0.6,2-0.9c0.7-0.3,1.5-0.6,2.2-0.9
			c0.4-0.1,0.7-0.3,1.1-0.4c0.3-0.1,0.6-0.2,0.9-0.3c0.3-0.1,0.6-0.2,1-0.3c0.5-0.1,0.9-0.3,1.4-0.4c0.4-0.1,0.7-0.2,1.1-0.3
			c0.4-0.1,0.7-0.2,1.1-0.3c0.4-0.1,0.7-0.2,1.1-0.2c0.4-0.1,0.7-0.1,1.1-0.2c0.3-0.1,0.6-0.1,1-0.2c0.2,0,0.4-0.1,0.7-0.1
			c0.4,0,0.7-0.1,1.1-0.1c0.4,0,0.7-0.1,1.1-0.1c0.4,0,0.7-0.1,1.1-0.1c0.4,0,0.7,0,1.1-0.1h0c0.3,0,0.5,0,0.8,0c0.4,0,0.8,0,1.1,0
			s0.8,0,1.1,0h0.1c1.4,0,2.8,0,4.1,0.1c0,0,0,0,0,0c89.4,2.8,161.5,73.8,166.2,162.7v0c0,0.4,0,0.7,0,1.1
			C375.7,187.8,375.8,188.3,375.8,188.9z"/>
		<path class="st15" d="M292.8,195.2h-0.9v-0.5c0-0.3,0.1-0.5,0.3-0.7c-5.1-5.1-42.6-9.1-88.2-9.1c-45.5,0-83,4-88.2,9.1
			c0.2,0.2,0.3,0.4,0.3,0.7v0.5h-0.9c0-0.5,0-0.9,0-1.4c0-2.8,0-5.6,0.1-8.4c0-1.3,0.1-2.6,0.1-4c0-0.2,0-0.4,0-0.6
			c0.1-2.6,0.2-5.2,0.4-7.8c0.1-1.6,0.2-3.1,0.3-4.7c0.2-2.5,0.4-5,0.7-7.4c0.5-5.3,1.2-10.6,2-15.7c0.2-1.3,0.4-2.6,0.6-3.8
			c0.2-1.3,0.4-2.5,0.7-3.8c0.5-2.4,0.9-4.9,1.4-7.3c0.3-1.3,0.6-2.6,0.9-3.9c0.3-1.2,0.5-2.4,0.8-3.6c0.3-1.2,0.6-2.4,0.9-3.6
			c0.3-1,0.5-2,0.8-3.1c0.4-1.5,0.8-3,1.2-4.5c0.3-1,0.6-1.9,0.9-2.9c0.3-1.1,0.7-2.3,1-3.4c0.4-1.1,0.7-2.2,1.1-3.3c0,0,0,0,0,0
			c0.4-1.1,0.7-2.2,1.1-3.3c0.4-1.1,0.8-2.2,1.2-3.2c0,0,0,0,0,0c0.4-1.1,0.8-2.1,1.2-3.2c0.8-2.1,1.6-4.2,2.5-6.2
			c0.4-1,0.9-2,1.3-3c0.4-1,0.9-2,1.3-2.9c0.5-1,0.9-2,1.4-2.9c0.3-0.7,0.7-1.4,1-2.1c0.3-0.7,0.7-1.4,1.1-2.1
			c0.7-1.4,1.5-2.7,2.2-4.1c0.7-1.3,1.5-2.6,2.3-3.9c0.5-0.9,1-1.7,1.5-2.5c0.5-0.8,1-1.6,1.6-2.5c0.4-0.6,0.8-1.2,1.2-1.9
			c0.1-0.2,0.2-0.4,0.4-0.5c0.3-0.4,0.5-0.8,0.8-1.2c0.3-0.4,0.5-0.8,0.8-1.1c0.8-1.2,1.7-2.3,2.5-3.4c1.1-1.4,2.2-2.8,3.4-4.1
			c0.6-0.7,1.2-1.4,1.8-2.1c0.6-0.6,1.2-1.3,1.8-1.9c0.3-0.3,0.6-0.6,0.9-0.9l0.9-0.9c0.3-0.3,0.6-0.6,0.9-0.9
			c2.4-2.4,5-4.5,7.5-6.4c0.3-0.2,0.6-0.5,1-0.7c0.3-0.2,0.6-0.5,1-0.7c2.9-2,5.9-3.8,9-5.2c0.7-0.3,1.4-0.6,2-0.9
			c0.7-0.3,1.5-0.6,2.2-0.9c0.4-0.1,0.7-0.3,1.1-0.4c0.6-0.2,1.3-0.4,1.9-0.6c0.5-0.1,0.9-0.3,1.4-0.4c0.4-0.1,0.7-0.2,1.1-0.3
			c0.4-0.1,0.7-0.2,1.1-0.3c0.4-0.1,0.7-0.2,1.1-0.2c0.4-0.1,0.7-0.1,1.1-0.2c0.3-0.1,0.6-0.1,1-0.2c0.2,0,0.4-0.1,0.7-0.1
			c0.4,0,0.7-0.1,1.1-0.1c0.4,0,0.7-0.1,1.1-0.1c0.4,0,0.7-0.1,1.1-0.1c0.4,0,0.7,0,1.1-0.1h0c0.3,0,0.5,0,0.8,0c0.4,0,0.8,0,1.1,0
			s0.8,0,1.1,0h0.1c1.4,0,2.9,0.1,4.3,0.3c46.2,5.6,82.8,79.5,83.1,170.1C292.8,194.3,292.8,194.8,292.8,195.2z"/>
		<path class="st16" d="M28.9,191.9c0,0.1,0,0.1,0,0.2v1.1c0,0.5-0.4,0.9-0.8,0.9c0,0-0.1,0-0.1,0c-0.5,0-0.9-0.4-0.9-0.9v-0.9
			c0.3-0.1,0.7-0.1,1.1-0.2C28.4,192,28.6,192,28.9,191.9z"/>
		<path class="st16" d="M381,191.7v0.6c0,0.5-0.4,0.9-0.9,0.9c0,0-0.1,0-0.1,0c-0.5-0.1-0.8-0.4-0.8-0.9v-1c0.3,0,0.5,0.1,0.7,0.1
			C380.3,191.6,380.7,191.7,381,191.7z"/>
		<path class="st17" d="M33.2,187.9v1.1c0,0.5-0.4,0.9-0.8,0.9c0,0-0.1,0-0.1,0c-0.5,0-0.9-0.4-0.9-0.9v-1.1c0-0.5,0.4-0.9,0.9-0.9
			c0.1,0,0.1,0,0.2,0c0.3,0.1,0.6,0.4,0.7,0.7C33.2,187.8,33.2,187.8,33.2,187.9z"/>
		<path class="st17" d="M116.2,194.3v1c0,0.3-0.1,0.5-0.3,0.7c-0.2,0.1-0.4,0.2-0.6,0.2c-0.1,0-0.3,0-0.4-0.1v0
			c-0.3-0.1-0.5-0.4-0.5-0.8v-1c0-0.4,0.2-0.7,0.5-0.8v0c0.1-0.1,0.3-0.1,0.4-0.1h0c0.2,0,0.4,0.1,0.6,0.2
			C116.1,193.8,116.2,194,116.2,194.3z"/>
		<path class="st17" d="M293.7,194.3v1c0,0.4-0.2,0.7-0.5,0.8c-0.1,0.1-0.3,0.1-0.4,0.1c-0.2,0-0.5-0.1-0.6-0.2
			c-0.2-0.2-0.3-0.4-0.3-0.7v-1c0-0.3,0.1-0.5,0.3-0.7c0.1-0.1,0.4-0.2,0.6-0.2h0c0.1,0,0.3,0,0.4,0.1
			C293.5,193.6,293.7,193.9,293.7,194.3z"/>
		<path class="st17" d="M376.3,187.8v1c0,0.5-0.4,0.9-0.9,0.9c0,0-0.1,0-0.1,0c-0.5,0-0.8-0.4-0.8-0.9v-1c0-0.4,0.3-0.8,0.7-0.9v0
			c0.1,0,0.1,0,0.2,0C375.9,186.9,376.3,187.3,376.3,187.8z"/>
		<ellipse class="st17" cx="203.7" cy="23.7" rx="6" ry="0.8"/>
		<path class="st17" d="M205.1,13c0-0.8-0.6-1.4-1.4-1.4l0,0c-0.8,0-1.4,0.6-1.4,1.4l-0.5,9.8c0,0.8,1.1,1.2,1.9,1.2l0,0
			c0.8,0,1.9-0.4,1.9-1.2L205.1,13z"/>
	</g>
	<g>
		<g>
			<defs>
				<circle id="SVGID_29_" cx="203.9" cy="193" r="203.9"/>
			</defs>
			<clipPath id="SVGID_30_">
				<use xlink:href="#SVGID_29_"  style="overflow:visible;"/>
			</clipPath>
			<g class="st18">
				<circle class="st19" cx="212.2" cy="243.6" r="41.8"/>
				<circle class="st20" cx="210.8" cy="243.6" r="41.8"/>
				<circle class="st21" cx="206.9" cy="244.7" r="41.8"/>
				<path class="st22" d="M206.9,205.1c-21.9,0-39.6,17.8-39.6,39.6c0,21.9,17.8,39.6,39.6,39.6c21.9,0,39.6-17.8,39.6-39.6
					C246.6,222.8,228.8,205.1,206.9,205.1z M206.9,282.9c-21.1,0-38.2-17.1-38.2-38.2s17.1-38.2,38.2-38.2s38.2,17.1,38.2,38.2
					S228,282.9,206.9,282.9z"/>
				<circle class="st20" cx="206.9" cy="244.7" r="28.5"/>
				<circle class="st22" cx="208" cy="244.7" r="26.8"/>
				<path class="st20" d="M204.7,258.7c-3.1-0.3-6.1-1.1-9-2.5l0.3-7.2c1.6,0.9,3.4,1.7,5.3,2.4c1.9,0.7,3.6,1,5.1,1.1
					c1.2,0.1,2.1-0.1,2.7-0.3c0.6-0.3,0.9-0.7,0.9-1.4c0-0.5-0.2-0.9-0.6-1.2c-0.4-0.3-1.1-0.8-2-1.2c-0.9-0.5-2.2-1-3.8-1.7
					c-1.8-0.8-3.2-1.6-4.3-2.5s-1.9-1.9-2.3-2.9c-0.5-1.1-0.7-2.4-0.6-3.9c0.1-2.4,1-4.2,2.5-5.5c1.6-1.3,3.9-2,7-2.2l0.2-4.8
					l4.5,0.2l-0.2,4.7c2.9,0.3,5.7,1.1,8.5,2.5l-2.8,6c-2.9-1.5-5.6-2.3-8-2.4c-1.1-0.1-2,0.1-2.4,0.3c-0.5,0.3-0.7,0.7-0.8,1.2
					c0,0.5,0.1,0.9,0.5,1.2s0.9,0.7,1.7,1.1s2,0.9,3.4,1.5c3,1.2,5.1,2.5,6.3,3.9c1.2,1.4,1.8,3.2,1.7,5.3c-0.1,2.4-1,4.3-2.6,5.8
					c-1.6,1.4-3.9,2.3-6.8,2.5l-0.3,5.8l-4.5-0.2L204.7,258.7z"/>
			</g>
		</g>
		<g>
			<defs>
				<circle id="SVGID_31_" cx="203.9" cy="193" r="203.9"/>
			</defs>
			<clipPath id="SVGID_32_">
				<use xlink:href="#SVGID_31_"  style="overflow:visible;"/>
			</clipPath>
			<path class="st23" d="M120.1,262.9c0,0,26.9-9.3,30-8.5c3.1,0.8,51.1,32.7,51.1,32.7s21.3,0,24.3,1.8c3,1.8,4.4,7.9-6.1,9.5
				c-10.5,1.6-19.7,2.3-19.7,2.3l-24.5-6l-28-11.9l-33.9,0.8l6.9-20.2"/>
		</g>
		<g>
			<defs>
				<circle id="SVGID_33_" cx="203.9" cy="193" r="203.9"/>
			</defs>
			<clipPath id="SVGID_34_">
				<use xlink:href="#SVGID_33_"  style="overflow:visible;"/>
			</clipPath>
			<path class="st24" d="M131,259.3c0,0,17.7-6.2,22.1-5.6c11.5,1.5,20.7,11,20.7,11l16.2,3.1c0,0,12.8-1.5,15.3,0.3
				c2.6,1.8,5,6.5,3.2,7.9c-1.8,1.4-21.3,4.8-21.3,4.8l-21.5-4.6l-21.7-16.9"/>
		</g>
		<g>
			<defs>
				<circle id="SVGID_35_" cx="203.9" cy="193" r="203.9"/>
			</defs>
			<clipPath id="SVGID_36_">
				<use xlink:href="#SVGID_35_"  style="overflow:visible;"/>
			</clipPath>
			<path class="st25" d="M197.8,271.6l2.3,5c0,0,7.3-0.6,8-2c0.6-1.4-0.8-4.4-2.2-4.7C204.6,269.6,197.8,271.6,197.8,271.6z"/>
		</g>
		<g>
			<defs>
				<circle id="SVGID_37_" cx="203.9" cy="193" r="203.9"/>
			</defs>
			<clipPath id="SVGID_38_">
				<use xlink:href="#SVGID_37_"  style="overflow:visible;"/>
			</clipPath>
			<rect x="120.3" y="244.5" class="st26" width="17" height="50.8"/>
		</g>
		<g>
			<defs>
				<circle id="SVGID_39_" cx="203.9" cy="193" r="203.9"/>
			</defs>
			<clipPath id="SVGID_40_">
				<use xlink:href="#SVGID_39_"  style="overflow:visible;"/>
			</clipPath>
			<rect x="-20.6" y="247.7" class="st27" width="140.9" height="42.3"/>
		</g>
	</g>
</g>
<g id="Designed_by_Freepik">
</g>
</svg>
